<svg xmlns="http://www.w3.org/2000/svg" viewBox="0 0 688.06 549.87"><defs><style>.a{fill:#f5cb00;}.b{fill:#612cbf;}.c{fill:#d736bc;}.d{fill:#30135a;}.e{fill:none;stroke:#d736bc;stroke-miterlimit:10;stroke-width:3px;}</style></defs><path class="a" d="M579.84,86.34c9.57-13.31,9.41-30.52,16.43-44.93a37.41,37.41,0,0,1,37.52-21.09c14.82,1.58,27.93,13.29,31.41,27.73a37.37,37.37,0,0,1-15.76,39.56c-11.71,7.89-26.7,11.08-36.51,21.7a33.72,33.72,0,0,0-3.27,4.17c-1.07,1.61,1.52,3.11,2.59,1.51,4.09-6.12,10.37-10.12,16.8-13.43,6.65-3.41,13.64-6.19,20-10.13a41.56,41.56,0,0,0,15.75-16.72,41,41,0,0,0,4.07-23.06C667,36.08,655.12,22.76,640.07,18.51c-15.51-4.38-32.93,2-42.47,14.84-10.07,13.57-9.53,31.56-17.14,46.24a41.29,41.29,0,0,1-3.21,5.24c-1.13,1.57,1.48,3.07,2.59,1.51Z"/><path class="a" d="M577.94,86.79c11.31,8.62,21.44,18.75,31.81,28.45,1.41,1.32,3.54-.8,2.12-2.12C601.3,103.24,591,93,579.45,84.2c-1.53-1.17-3,1.43-1.51,2.59Z"/><path class="a" d="M572.66,94.88c10.07,9.08,19.73,18.65,30.4,27.05,1.5,1.18,3.64-.93,2.12-2.12-10.67-8.4-20.33-18-30.4-27-1.43-1.29-3.56.82-2.12,2.12Z"/><path class="a" d="M568.32,103A207.8,207.8,0,0,0,598,128.34c1.58,1.11,3.08-1.49,1.52-2.59a203.29,203.29,0,0,1-29.09-24.92c-1.35-1.39-3.47.73-2.12,2.12Z"/><path class="a" d="M572,104.4c-3,3.77-4.44,9.23-2.94,13.89,2,6.18,8.94,11.38,15.42,11.51,3.88.07,7.22-1.87,10.26-4.08,1.55-1.12.06-3.72-1.51-2.59-2.87,2.08-6,4-9.68,3.61s-6.88-2.71-9.27-5.37a10.44,10.44,0,0,1-2.62-9.08,14.33,14.33,0,0,1,1.2-3.63,14.79,14.79,0,0,1,.71-1.3c.12-.2.24-.4.37-.59s.4-.53.18-.25c1.18-1.5-.93-3.64-2.12-2.12Z"/><path class="a" d="M609.23,45.53a111.22,111.22,0,0,1-18.87,48.69c-1.1,1.59,1.5,3.09,2.59,1.51a114.34,114.34,0,0,0,19.28-50.2,1.5,1.5,0,0,0-1.5-1.5,1.54,1.54,0,0,0-1.5,1.5Z"/><path class="a" d="M640.29,65.93a302.63,302.63,0,0,0-43.15,34.62c-1.39,1.34.73,3.46,2.12,2.12A298.54,298.54,0,0,1,641.8,68.52c1.61-1.06.11-3.66-1.51-2.59Z"/><path class="a" d="M612.11,41.44c.58,3.27,1.48,6.8,4.58,8.57a5.86,5.86,0,0,0,4.42.67,9.79,9.79,0,0,0,3.79-2.54c.8-.72,2.75-2.3,3.47-.7a7.5,7.5,0,0,1,.35,2.4l.23,3.23c.11,1.54.09,3.25,1,4.59A3.36,3.36,0,0,0,634,58.79a4.27,4.27,0,0,1,2.68-.48,4.36,4.36,0,0,1,2.11,1.33c1.34,1.48,1.81,3.58,2.29,5.46a1.51,1.51,0,0,0,2.9-.8c-.83-3.2-2-6.74-5.13-8.34a6,6,0,0,0-4.46-.53c-.44.13-1.6.87-2,.59s-.38-1.75-.41-2.2c-.14-1.92-.2-3.86-.46-5.76a4.24,4.24,0,0,0-6.67-3.6c-1.4.71-2.34,2-3.63,2.87-1.56,1-3.32.31-4.4-1.09-1.2-1.57-1.51-3.7-1.85-5.6s-3.23-1.09-2.89.8Z"/><path class="b" d="M46.14,509.34a242.75,242.75,0,0,1-35-32.14q-4.43-4.9-8.6-10v2.12l47.13-38,13.38-10.78H60.94c11,11.42,23.19,21.57,34.18,33,3,3.14,6,6.38,8.72,9.77,1.22,1.49,3.33-.64,2.12-2.13-10-12.28-22.12-22.64-33.57-33.51-3.17-3-6.3-6.07-9.33-9.22a1.54,1.54,0,0,0-2.12,0l-47.13,38L.43,467.16a1.54,1.54,0,0,0,0,2.12,255.16,255.16,0,0,0,33.72,34.35q5.1,4.31,10.47,8.3c1.56,1.15,3.05-1.45,1.52-2.59Z"/><path class="b" d="M11.66,471.55c11.51,9.4,22.27,19.67,33.55,29.34,1.46,1.25,3.59-.87,2.12-2.12-11.28-9.67-22-19.94-33.54-29.34-1.49-1.21-3.62.9-2.13,2.12Z"/><path class="b" d="M13.89,471.65A383.42,383.42,0,0,1,45,446.34c2.63-1.93,5.29-3.81,8-5.67q2.1-1.46,4.23-2.88a24.56,24.56,0,0,1,4.1-2.62c1.39-.57,2.3.39,3.17,1.36,1.19,1.32,2.32,2.69,3.48,4l6.94,8.05L90.57,466.8l.3-2.36c-12.81,7.87-24.8,17.17-36.45,26.65-3.1,2.52-6.18,5.08-9.21,7.68-1.47,1.25.66,3.37,2.12,2.12a438.85,438.85,0,0,1,35.21-27.38c3.23-2.24,6.5-4.42,9.85-6.48a1.52,1.52,0,0,0,.3-2.35L78,447.63l-7.25-8.43-3.55-4.13a8.57,8.57,0,0,0-3.61-2.9c-3-1-5.93,1.72-8.26,3.29q-4.44,3-8.8,6.1Q38,447.64,29.88,454.15q-9.3,7.41-18.11,15.38c-1.44,1.3.69,3.42,2.12,2.12Z"/><path class="b" d="M45.93,511.92C62.14,500,77.75,487.35,93.07,474.34q6.48-5.5,12.89-11.07c1.46-1.27-.67-3.39-2.12-2.13-15,13.07-30.31,25.9-46.06,38.11q-6.62,5.13-13.36,10.08c-1.54,1.13-.05,3.73,1.51,2.59Z"/><path class="b" d="M44.17,510.84a79.76,79.76,0,0,0,5.16,18.05,111.36,111.36,0,0,0,8,16.56,1.5,1.5,0,0,0,2.59-1.51,107,107,0,0,1-7.87-16.23,79.4,79.4,0,0,1-5-17.66c-.27-1.91-3.16-1.1-2.9.79Z"/><path class="b" d="M59.4,546c20.7-15.14,41-30.83,60.62-47.35q8-6.75,15.79-13.71c1.44-1.29-.68-3.41-2.12-2.12-18.9,16.94-38.78,32.78-59,48.09q-8.34,6.33-16.79,12.5c-1.54,1.13,0,3.73,1.51,2.59Z"/><path class="b" d="M104.5,463.65c11.64,3.68,21.27,12.31,29.54,21,1.33,1.4,3.45-.72,2.12-2.12-8.63-9.07-18.72-17.92-30.86-21.76-1.85-.58-2.64,2.31-.8,2.89Z"/><path class="b" d="M54.84,510.84c.08,5.65,2.87,10.9,5.75,15.6,1,1.64,3.6.13,2.59-1.52-2.6-4.23-5.26-9-5.34-14.08,0-1.92-3-1.93-3,0Z"/><path class="b" d="M63,527.05l40.41-32.26,11.52-9.2c1.51-1.2-.63-3.31-2.12-2.12L72.42,515.73l-11.52,9.2c-1.5,1.2.63,3.31,2.13,2.12Z"/><path class="b" d="M102.51,476.34c3.38,3.14,7,6,10.55,9a1.54,1.54,0,0,0,2.12,0,1.52,1.52,0,0,0,0-2.12c-3.54-3-7.17-5.82-10.55-9a1.5,1.5,0,1,0-2.12,2.12Z"/><path class="b" d="M57.26,511.5a364.27,364.27,0,0,1,47.08-35.15c1.63-1,.12-3.62-1.52-2.59a367.79,367.79,0,0,0-37.64,27.08q-5.1,4.17-10,8.54c-1.46,1.28.67,3.39,2.12,2.12Z"/><path class="b" d="M80.32,515.12a11.28,11.28,0,0,1,1,1.16L81.1,516a16.18,16.18,0,0,1,1.78,2.85,1.54,1.54,0,0,0,.89.69,1.57,1.57,0,0,0,1.16-.16,1.5,1.5,0,0,0,.69-.89,1.73,1.73,0,0,0-.15-1.16,14.63,14.63,0,0,0-1.21-2.06A14,14,0,0,0,82.44,513a1.51,1.51,0,0,0-2.12,0,1.53,1.53,0,0,0,0,2.12Z"/><path class="b" d="M82.34,515.3l13-10.3L93,504.7a23.07,23.07,0,0,0,3.73,4.4V507a85.3,85.3,0,0,1-12.94,10.26c-1.62,1-.12,3.63,1.52,2.59A90.31,90.31,0,0,0,98.85,509.1a1.51,1.51,0,0,0,0-2.12,19.39,19.39,0,0,1-3.26-3.8,1.54,1.54,0,0,0-2.36-.3l-13,10.29a1.53,1.53,0,0,0,0,2.13,1.55,1.55,0,0,0,2.12,0Z"/><path class="c" d="M74.37,55.1c4.58-7,9.24-14,13.82-21l-2.8-.76c-.78,8.33.34,16.49,1.58,24.72.29,1.9,3.18,1.09,2.9-.8-1.21-8-2.23-15.85-1.48-23.92.15-1.58-2-1.89-2.79-.75-4.58,7-9.24,14-13.82,21-1.06,1.62,1.54,3.13,2.59,1.52Z"/><path class="c" d="M88.21,59.81A44,44,0,0,1,98.3,63.19c3.5,1.5,7,3.16,10.31,5V65.59c-4.79,2.3-10.2,2.8-15.11,4.77a1.56,1.56,0,0,0-1,1.85,1.51,1.51,0,0,0,1.85,1.05c5.16-2.08,10.78-2.66,15.82-5.08a1.51,1.51,0,0,0,0-2.59c-3.44-1.88-7-3.58-10.59-5.11A46.35,46.35,0,0,0,89,56.92c-1.89-.31-2.7,2.58-.79,2.89Z"/><path class="c" d="M73,53.59c-2.91-.49-5.8-1.12-8.71-1.57-1.41-.22-2.81-.32-4.23-.47a53.89,53.89,0,0,0-5.67-.44,1.52,1.52,0,0,0-1.06,2.56q6.57,7.45,13.82,14.27c1.4,1.32,3.53-.8,2.12-2.12Q62,59,55.47,51.55l-1.06,2.56a47.09,47.09,0,0,1,5.42.42c1.33.14,2.61.21,3.9.41,2.84.45,5.65,1.07,8.49,1.54a1.53,1.53,0,0,0,1.84-1,1.52,1.52,0,0,0-1-1.85Z"/><path class="c" d="M66.61,66.05q-3.66,5.25-7,10.7c-1.1,1.79-2.26,3.57-3.23,5.43a1.56,1.56,0,0,0,1.78,2.34A34.28,34.28,0,0,0,62.38,83q3.78-1.49,7.51-3.08c2.67-1.13,5.34-2.28,8-3.57,1.73-.86.21-3.45-1.52-2.59-3.73,1.85-7.59,3.45-11.44,5-1.72.7-3.44,1.39-5.18,2L58,81.43c-.18.06-.36.1-.53.17s-.3,0,.13,0l.76.21h0l.75,1.3h0l-.2.76q4.81-8.35,10.35-16.28c1.1-1.59-1.5-3.09-2.6-1.52Z"/><path class="c" d="M76.65,76.65,85.4,94A1.51,1.51,0,0,0,88,94,68.74,68.74,0,0,0,92.25,81.9a69.76,69.76,0,0,0,2.22-9.32,1.56,1.56,0,0,0-1-1.85,1.52,1.52,0,0,0-1.85,1,68.8,68.8,0,0,1-2.15,9,65.54,65.54,0,0,1-4,11.68H88L79.24,75.14c-.87-1.72-3.46-.21-2.59,1.51Z"/><path class="a" d="M644.31,418.59c7.92-7.75,15.91-15.42,23.82-23.17L665.62,394c-3.37,10.49-4.26,21.32-5,32.25-.13,1.92,2.87,1.92,3,0,.71-10.68,1.59-21.21,4.89-31.45A1.51,1.51,0,0,0,666,393.3c-7.91,7.75-15.91,15.42-23.82,23.17-1.38,1.35.74,3.47,2.12,2.12Z"/><path class="a" d="M661.77,428.59c4.3,1.71,8.24,4.59,12,7.27,4.06,2.9,8,6,11.76,9.27l.66-2.51c-7,1.65-14.3.78-21.38,2-1.9.32-1.09,3.21.8,2.89,7.09-1.18,14.35-.3,21.38-2a1.51,1.51,0,0,0,.66-2.51c-3.94-3.45-8.1-6.68-12.36-9.74-4-2.84-8.12-5.75-12.69-7.56-1.8-.71-2.58,2.19-.8,2.89Z"/><path class="a" d="M642.86,416.85c-3.56-1.43-7-3-10.62-4.44-1.68-.66-3.4-1.15-5.11-1.72a63.22,63.22,0,0,0-7.11-2.15,1.52,1.52,0,0,0-1.7,2.2q6.39,11.49,13.8,22.36c1.08,1.59,3.68.09,2.59-1.51q-7.41-10.86-13.79-22.36l-1.7,2.2a60.56,60.56,0,0,1,7,2.1c1.76.59,3.53,1.09,5.27,1.77,3.57,1.4,7,3,10.61,4.45a1.51,1.51,0,0,0,1.84-1.05,1.53,1.53,0,0,0-1-1.85Z"/><path class="a" d="M632,431.11q-6.18,5.68-12,11.71c-1.91,2-3.83,4-5.67,6-.64.72-1.16,1.64-.31,2.48a1.68,1.68,0,0,0,1.24.46,37.14,37.14,0,0,0,6.1-.84q5.18-.82,10.35-1.78c3.77-.7,7.55-1.43,11.28-2.36,1.87-.46,1.08-3.36-.8-2.89-5.42,1.35-10.93,2.33-16.43,3.28-2.47.42-4.94.83-7.42,1.2-.86.13-1.46.22-2.16.3-.24,0-.48,0-.72.08-.65.11.28,0,.67.43l.39,1.46c-.15.73.69-.53.89-.74l1-1c.75-.81,1.51-1.61,2.27-2.41q2.11-2.22,4.29-4.4,4.5-4.53,9.2-8.85c1.42-1.32-.71-3.43-2.12-2.12Z"/><path class="a" d="M642,447.16l6.37,24.94a1.51,1.51,0,0,0,2.51.66,91.17,91.17,0,0,0,9-14.5,94.56,94.56,0,0,0,5.59-11.61c.67-1.81-2.23-2.6-2.89-.79-.23.62-.25.63-.58,1.39s-.82,1.77-1.24,2.65q-1.66,3.45-3.47,6.84c-2.52,4.76-5.12,9.69-8.5,13.9l2.5.66-6.36-24.94c-.48-1.86-3.37-1.07-2.9.8Z"/><path class="d" d="M38.47,268.16c-2.91-11.44-5.7-22.91-8.61-34.35l-2.51,1.46c7.85,8.71,17.35,15.32,27,21.83,1.6,1.08,3.11-1.52,1.51-2.59-9.47-6.38-18.72-12.84-26.41-21.36A1.51,1.51,0,0,0,27,234.6C29.88,246,32.67,257.51,35.58,269a1.5,1.5,0,0,0,2.89-.79Z"/><path class="d" d="M57.08,257.33c3.87-3.06,8.65-5.16,13.12-7.17C75.06,248,80,246,85.06,244.27l-1.85-1.84C81,249.78,76.28,256,73.58,263.19c-.68,1.81,2.22,2.59,2.9.8,2.69-7.17,7.4-13.39,9.63-20.76a1.52,1.52,0,0,0-1.85-1.85c-5.29,1.79-10.48,3.89-15.57,6.19C64,249.7,59.06,252,55,255.2c-1.51,1.2.62,3.31,2.13,2.13Z"/><path class="d" d="M36.25,268.64c-3.22,2.51-6.56,4.86-9.76,7.4-1.49,1.18-2.84,2.47-4.25,3.73a72.36,72.36,0,0,0-5.87,5.47,1.52,1.52,0,0,0,1.06,2.56q14,.27,28-.75c1.91-.14,1.93-3.14,0-3q-14,1-28,.75l1.06,2.57A69.08,69.08,0,0,1,24.22,282c1.47-1.29,2.86-2.63,4.39-3.85,3.2-2.54,6.54-4.89,9.77-7.4,1.52-1.18-.62-3.29-2.13-2.12Z"/><path class="d" d="M43.61,286.21q2,8.9,4.46,17.67c.38,1.32.76,2.64,1.16,4a41.63,41.63,0,0,0,1.43,4.65,1.56,1.56,0,0,0,2.91.12,49.46,49.46,0,0,0,2.54-6.22q2-5.2,3.86-10.45c1.35-3.78,2.67-7.58,3.79-11.44.54-1.85-2.36-2.65-2.9-.79-1.64,5.68-3.68,11.25-5.73,16.79-.93,2.52-1.88,5-2.87,7.53-.17.43-.34.86-.52,1.29l-.38.93c-.1.22-.22.45-.3.68-.27.73-.48-.08.65-.28l1.46.38c.54.51-.12-.95-.2-1.2l-.43-1.39c-.33-1.09-.65-2.17-1-3.26-.63-2.18-1.25-4.36-1.83-6.55Q48,292.06,46.5,285.41c-.42-1.88-3.31-1.08-2.89.8Z"/><path class="d" d="M63.66,285.51,90.06,293c1,.29,2.26-.75,1.84-1.85a96.59,96.59,0,0,0-8.57-16,100,100,0,0,0-7.69-11.34c-1.24-1.48-3.35.65-2.12,2.13l.24.29c-.23-.3,0,0,0,.08l.65.87q.87,1.22,1.71,2.46,2.35,3.47,4.57,7c3,4.88,6.19,9.92,8.27,15.3l1.84-1.84-26.39-7.48a1.51,1.51,0,0,0-.8,2.9Z"/><path class="b" d="M437,498c-6.18,7.07-8.58,17.54-4.25,26.14a18.26,18.26,0,0,0,8.78,8.67,12.91,12.91,0,0,0,11.93-.94c3.83-2.37,6.5-6.28,8.42-10.27a33.74,33.74,0,0,0,3.7-14.51c0-3.75-.83-8.69-4.06-11.07-2.32-1.72-5.42-2.2-8.24-2.33A35.26,35.26,0,0,0,442,495.15c-3,.9-6.45,2.22-8.57,4.69-1.26,1.46.86,3.59,2.12,2.12a13.34,13.34,0,0,1,5.82-3.46,32.92,32.92,0,0,1,8.62-1.74,20.48,20.48,0,0,1,7.83.72c2.72.9,3.66,2.83,4.33,5.55,1.05,4.31.26,8.87-1.15,13a30.07,30.07,0,0,1-6,10.69c-2.48,2.69-5.92,4.63-9.69,4.11a13,13,0,0,1-8.31-5.48c-5.6-7.67-3.92-18.28,2.13-25.2,1.26-1.45-.85-3.58-2.12-2.13Z"/><path class="d" d="M150.93,526.8a11.93,11.93,0,0,0,23.67-.75A15.34,15.34,0,0,0,168,511.94c-5-3.41-11.64-3.85-17.38-2.35-7.33,1.91-13.41,6.88-18.78,12-1.4,1.34.72,3.46,2.12,2.12,7.54-7.21,17.73-14.64,28.74-11.05a12.71,12.71,0,0,1,8.82,9.68c.87,4.49-1,9.28-5.48,11A9.1,9.1,0,0,1,153.83,526c-.3-1.9-3.19-1.1-2.9.8Z"/><path class="d" d="M437.05,20c-1.46,2.94,1.26,6.2,4.42,5.71s5.07-4,5.1-7a10.47,10.47,0,0,0-3.75-7.88,12.19,12.19,0,0,0-9.38-2.5c-6.28.79-12.72,5.78-12.91,12.53s6.25,9.94,11.72,11.59c7.32,2.2,16.89,4.5,22.9-1.82,1.33-1.4-.79-3.52-2.12-2.12-3.95,4.15-10.11,3.55-15.19,2.33-4.2-1-9.36-2-12.47-5.3-3.4-3.58-1.49-8.58,1.86-11.43,3.58-3,9.93-4.29,13.73-.93a7.32,7.32,0,0,1,2.57,6.19,4.19,4.19,0,0,1-1.87,3.15,1.43,1.43,0,0,1-1.41.12c-.34-.18-.82-.71-.61-1.12.85-1.73-1.74-3.25-2.59-1.51Z"/><path class="a" d="M507.77,105.66c1.76-2.9,3.83-6.92,2.51-10.39a5.45,5.45,0,0,0-5.68-3.35,9.22,9.22,0,0,0-6.77,3.88c-2.4,3.39-4.28,8.45-3.17,12.61,1.26,4.67,6.15,6.8,10.65,6.28A17.15,17.15,0,0,0,516.72,108c5.38-6.9,6.27-17.38,1.13-24.68-5.85-8.3-17.5-11.1-26.65-7-1.76.78-.24,3.37,1.51,2.59a19.28,19.28,0,0,1,20.12,3.23c5.47,4.89,6.71,12.79,4.11,19.49a16.51,16.51,0,0,1-6.8,8.29c-3,1.78-7.33,2.79-10.44.66-3.31-2.27-2.51-6.6-1.16-9.78.94-2.22,2.15-4.52,4.41-5.47a5.44,5.44,0,0,1,2.56-.43,2.28,2.28,0,0,1,1.74.94,3.7,3.7,0,0,1,.33,2.7,16.38,16.38,0,0,1-2.4,5.58,1.5,1.5,0,0,0,2.59,1.52Z"/><path class="a" d="M299.92,517.3a42.17,42.17,0,0,0,1.86-11.25,12.88,12.88,0,0,0-1.53-6.73c-2-3.22-5.76-3.59-9-2.07a13.67,13.67,0,0,0-7,8.61,12.3,12.3,0,0,0,0,6.29,32.62,32.62,0,0,0,3.32,7.08,50.08,50.08,0,0,0,6.13,9.24c2.09,2.38,4.59,4.25,7.88,3.64,4.38-.8,7.79-4.48,9.4-8.47,2-4.94,1.6-10.4,1.17-15.59-.58-6.93-1.63-14.28-6.87-19.35a24.19,24.19,0,0,0-10.1-5.84,17.29,17.29,0,0,0-12.77,1.9,13.57,13.57,0,0,0-4.27,3.74c-1.34,1.85-2,4.28-2.73,6.42a43.63,43.63,0,0,0-2.62,12.14c-.36,7.79,3.19,14.65,7.39,21,1.38,2.08,2.84,4.13,4.3,6.16,1.12,1.55,3.72.06,2.59-1.51-4.31-6-9.22-12.37-10.82-19.72-1.56-7.15.84-14.66,3.54-21.23,1.31-3.2,4.71-5.07,7.92-5.9,4-1,7.6-.08,11.13,1.88a18.11,18.11,0,0,1,6.57,5.84,22.27,22.27,0,0,1,2.95,8.14,78.24,78.24,0,0,1,1.11,11.22c.16,4.52-.24,9.55-3.37,13.11-1.89,2.16-5.21,4.34-7.88,2.57-2.42-1.6-4.16-4.35-5.67-6.76s-3-5.11-4.28-7.75a10.94,10.94,0,0,1-1.42-4.93,10.62,10.62,0,0,1,4-8.07,11.33,11.33,0,0,1,1.67-1.08,6.12,6.12,0,0,1,1.69-.59c.11,0,.57-.08.19,0a3.4,3.4,0,0,1,.45,0h.45c.28,0,.37.05.21,0a2.33,2.33,0,0,1,1.41.59c-.24-.17.34.33.47.48a2.49,2.49,0,0,1,.43.64,7.12,7.12,0,0,1,.78,2.32,21.73,21.73,0,0,1-.27,7.66c-.32,1.84-.77,3.66-1.27,5.46a1.5,1.5,0,0,0,2.89.8Z"/><circle class="e" cx="344.23" cy="274.65" r="194.5"/><path class="d" d="M161.69,4.18C155.1,6,149.26,10.62,145,15.87a31,31,0,0,0-5.11,8.75A27,27,0,0,0,138.5,35c.7,15.19,12.09,27.64,26.59,31.28a36.57,36.57,0,0,0,21.49-1.09,37.45,37.45,0,0,0,9.38-5.1,29.82,29.82,0,0,0,6.85-6.6,34.9,34.9,0,0,0,6.25-18.6c.11-6.95-2.78-14-6-20.1-2.73-5.2-5.95-10.18-11.5-12.66C184.19-1.17,176-.17,168.44,2c-2.12.61-4.22,1.29-6.32,2-1.83.59-1.05,3.49.79,2.89,7.18-2.34,14.88-4.94,22.51-3.51a18.43,18.43,0,0,1,8.9,4.06,22.18,22.18,0,0,1,4,5,53.41,53.41,0,0,1,7.23,17.42c1.27,6.26-.22,12.5-3,18.16a21.54,21.54,0,0,1-4.16,6.11,38.69,38.69,0,0,1-7.94,6,33.51,33.51,0,0,1-19,4.17c-13.62-1-26-10.51-29.19-24a25.18,25.18,0,0,1,2.36-18.69,34.44,34.44,0,0,1,13.8-13,21,21,0,0,1,4.06-1.56,1.5,1.5,0,0,0-.8-2.89Z"/><path class="d" d="M143,47.6l47.22-18.83,13.42-5.36c1.78-.7,1-3.6-.79-2.89L155.6,39.35,142.17,44.7c-1.77.71-1,3.61.8,2.9Z"/><path class="d" d="M160.88,6.86q12.66,27.26,23.67,55.23c.7,1.78,3.6,1,2.89-.8Q176.3,33,163.47,5.35c-.81-1.75-3.4-.23-2.59,1.51Z"/><path class="d" d="M156.09,10.2c-1.57,9.58-3.14,19.46-.82,29.05a30.56,30.56,0,0,0,26.14,23.43c1.91.24,1.89-2.76,0-3a27.88,27.88,0,0,1-18-10.16c-5.12-6.35-6.58-14.67-6.35-22.63A121.46,121.46,0,0,1,159,11c.31-1.89-2.58-2.7-2.89-.8Z"/><path class="d" d="M166.7,7.13a52.62,52.62,0,0,1,22.41,37.59,53.18,53.18,0,0,1-.37,13.92c-.31,1.89,2.58,2.7,2.89.8a55.89,55.89,0,0,0-13.46-46.21,56.36,56.36,0,0,0-9.95-8.69c-1.6-1.1-3.1,1.5-1.52,2.59Z"/><path class="d" d="M145.64,21.85c8.14.3,16.68.58,24.32-2.7,6.08-2.61,11.41-7.5,13.11-14.06.48-1.87-2.41-2.67-2.89-.8-1.53,5.9-6.52,10.23-12.05,12.4-7.13,2.79-15,2.44-22.49,2.16-1.93-.08-1.93,2.92,0,3Z"/><path class="d" d="M167.6,63.42a31.68,31.68,0,0,1,33.84-16.51c1.89.36,2.7-2.53.8-2.89A34.74,34.74,0,0,0,165,61.91c-.89,1.71,1.7,3.23,2.59,1.51Z"/><path class="a" d="M111.24,171.76c-1.84-3.38-3.92-7.29-2.67-11.23,1-3.08,4.18-4.35,7.18-3.65,3.38.78,5.42,3.71,6,7a14.77,14.77,0,0,1-2.53,10.28c-1.88,3-4.3,5.89-7.62,7.23a12.33,12.33,0,0,1-7.49.67,11.38,11.38,0,0,1-8.29-7.4,28.35,28.35,0,0,1-1.35-12.13,37.85,37.85,0,0,1,.79-5.3c.16-.72.35-1.44.57-2.14.08-.27.17-.55.27-.82l.15-.4c.14-.35-.09.17.06-.14,2.79-5.88,8.31-10.94,15.06-11.22,7.82-.32,15,4.35,18.93,10.95,7.58,12.8,4.25,33.45-11.33,38.46a18.49,18.49,0,0,1-5.21.89c-1.93.05-1.94,3.05,0,3,8.53-.23,16.21-5.6,20.1-13.09a32.46,32.46,0,0,0,1.22-26.2c-3.17-8.18-9.94-14.92-18.75-16.6a19.29,19.29,0,0,0-12.12,1.38,22.68,22.68,0,0,0-8.84,8.05c-2.37,3.56-3.29,7.51-3.76,11.71a31.58,31.58,0,0,0,1.28,14.29c1.78,4.82,5.42,8.55,10.55,9.63a15.23,15.23,0,0,0,9.12-.76c3.88-1.56,6.62-4.62,8.91-8a18,18,0,0,0,3.33-12c-.45-3.9-2.48-7.82-6.19-9.52a9.87,9.87,0,0,0-10,.76c-3.47,2.66-4,7.46-2.81,11.42a32.62,32.62,0,0,0,2.87,6.38c.93,1.7,3.52.19,2.6-1.51Z"/><path class="c" d="M129.38,334.5c-4.56,5.12-3.46,14.44,2.86,17.7,3.17,1.63,7.68,1.66,10.12-1.29,2.7-3.26,1.72-7.85.3-11.45-.84-2.12-2-4.35-4.18-5.4a5.59,5.59,0,0,0-6.33.63c-1.44,1.3.69,3.42,2.12,2.12a2.65,2.65,0,0,1,3,0,6.77,6.77,0,0,1,2.45,3.41c1,2.44,2.22,6.08.49,8.48-1.42,2-4.42,1.92-6.42.92a8,8,0,0,1-4.06-5.56,8.56,8.56,0,0,1,1.72-7.48c1.28-1.44-.83-3.56-2.12-2.12Z"/><path class="d" d="M609.61,166.81l27.7,20.36c1.56,1.14,3.06-1.46,1.52-2.59l-27.71-20.36c-1.56-1.15-3.06,1.45-1.51,2.59Z"/><path class="d" d="M618.53,155.86l28.09,24.75c1.44,1.28,3.57-.84,2.12-2.12l-28.09-24.75c-1.44-1.27-3.57.84-2.12,2.12Z"/><path class="c" d="M350.62,41.43c-3.23-1-7.38-1.56-9.93,1.25a6.62,6.62,0,0,0-.38,8c3.66,5.51,13.24,3.54,15.1-2.58,1.09-3.59-1.87-7.67-5.75-6.89A1.51,1.51,0,0,0,348.61,43a1.53,1.53,0,0,0,1.84,1,1.66,1.66,0,0,1,.8.11,2.38,2.38,0,0,1,.87.7,2.45,2.45,0,0,1,.4,2.39c-.56,1.84-2.54,3.08-4.41,3.49A5.12,5.12,0,0,1,343,49.24c.11.14-.05-.08-.05-.09a3.24,3.24,0,0,1-.21-.35c-.07-.12-.13-.24-.19-.36s-.1-.26,0-.09a4.44,4.44,0,0,1-.19-.62,2.29,2.29,0,0,1-.1-.55,3.11,3.11,0,0,1,.53-2.25c-.1.15.05-.06.06-.07a2.87,2.87,0,0,1,.39-.39,3.54,3.54,0,0,1,.64-.42,4.67,4.67,0,0,1,1.48-.44,10.59,10.59,0,0,1,4.55.71c1.85.58,2.64-2.31.8-2.89Z"/><path class="c" d="M333.52,38.13a25.29,25.29,0,0,1,15.6-5.36,21.1,21.1,0,0,1,14.22,6.17c1.38,1.35,3.5-.76,2.12-2.12a24.26,24.26,0,0,0-16-7A27.83,27.83,0,0,0,332,35.54c-1.54,1.14-.05,3.74,1.51,2.59Z"/><path class="c" d="M325.75,27.22c11.72-7.4,28-9.52,40.1-1.68A13.55,13.55,0,0,1,372,33.85c.43,1.88,3.32,1.08,2.89-.8-1.68-7.3-8.4-11.38-15.07-13.56A40.49,40.49,0,0,0,337,19a46.14,46.14,0,0,0-12.73,5.61c-1.62,1-.12,3.63,1.52,2.59Z"/><path class="c" d="M319.86,18.23a47.34,47.34,0,0,1,25.85-9.06,42.69,42.69,0,0,1,24.65,7,47,47,0,0,1,10.93,10c1.21,1.5,3.32-.63,2.12-2.12a48.5,48.5,0,0,0-22.15-15.6,46,46,0,0,0-27.74-.29,51.73,51.73,0,0,0-15.17,7.48c-1.56,1.11-.07,3.71,1.51,2.59Z"/><path class="d" d="M515,296a306.37,306.37,0,0,0,82.45-.09q11.68-1.61,23.23-4.13c1.89-.41,1.09-3.3-.79-2.89a301.89,301.89,0,0,1-81,6.41q-11.58-.66-23.09-2.19a1.56,1.56,0,0,0-1.85,1,1.52,1.52,0,0,0,1,1.85Z"/><path class="c" d="M481.32,197.77c11.61-12.38,23.56-24.47,36.09-35.93a286,286,0,0,1,29.79-24.37,107.55,107.55,0,0,1,13.45-8.13c1.72-.86.21-3.45-1.52-2.59-9.31,4.63-17.77,11-25.86,17.46a439,439,0,0,0-33,29.78q-10.77,10.6-21.08,21.66c-1.32,1.41.79,3.53,2.12,2.12Z"/><path class="c" d="M319.65,98.09a315,315,0,0,0-66.53-44.54q-10.2-5.07-20.75-9.39c-1.78-.73-2.56,2.17-.8,2.89a311.71,311.71,0,0,1,68.53,39c6,4.49,11.79,9.22,17.43,14.13,1.45,1.27,3.58-.85,2.12-2.12Z"/><path class="b" d="M173.85,240c-22.17-4.25-45.33-1.61-65.61,8.46A99.91,99.91,0,0,0,92,258.62c-1.51,1.16,0,3.77,1.52,2.59A98.29,98.29,0,0,1,154.3,241a106.46,106.46,0,0,1,18.76,1.9c1.88.36,2.69-2.53.79-2.89Z"/><path class="a" d="M172.22,391.11c-18.07,8.68-33.06,23-44,39.62a131.83,131.83,0,0,0-8.85,15.67c-.83,1.73,1.76,3.25,2.59,1.51,8.69-18.14,21.53-34.56,38.08-46.16a97.27,97.27,0,0,1,13.73-8.05c1.74-.84.22-3.43-1.51-2.59Z"/><path class="d" d="M330.83,441.89a231.23,231.23,0,0,1,21.7,40.16,209.11,209.11,0,0,1,12.56,42.12A195.89,195.89,0,0,1,368,548.43c.11,1.92,3.11,1.93,3,0a203.08,203.08,0,0,0-7.31-43.37A219.93,219.93,0,0,0,347,463.11a238.93,238.93,0,0,0-13.53-22.74c-1.07-1.59-3.67-.09-2.59,1.52Z"/><path class="b" d="M481.4,421.13a323.59,323.59,0,0,1,82.67,62q10.14,10.51,19.3,21.92c1.21,1.5,3.32-.63,2.12-2.12a326.76,326.76,0,0,0-77.17-69.57q-12.36-8-25.4-14.85c-1.71-.9-3.23,1.69-1.52,2.59Z"/><path class="c" d="M530.7,375.31a127.76,127.76,0,0,1,61.89,25.58,130.43,130.43,0,0,1,14.14,12.75c1.34,1.4,3.46-.72,2.12-2.12a131.2,131.2,0,0,0-58.72-35.31,132.63,132.63,0,0,0-19.43-3.9c-1.91-.24-1.89,2.76,0,3Z"/><path class="d" d="M650.64,330.43c-6.46-1.67-12.24,5-11.67,11.23.63,6.86,6.58,12.23,12.55,14.9C657,359,664.1,360,669.05,356s4.76-11.46,1.23-16.35c-4.8-6.64-14.09-7.24-21.24-4.55-1.79.67-1,3.57.8,2.89,5.17-1.95,11.86-2.31,16.31,1.53,3.46,3,5.17,8.82,2.31,12.78s-8.71,3.91-13,2.59c-5-1.54-10.31-5.12-12.56-10a8.48,8.48,0,0,1,.29-8.12c1.39-2.31,3.92-4.09,6.69-3.38,1.88.48,2.67-2.41.8-2.89Z"/><path class="d" d="M622.68,212.53l-5.95,2.29c-1.06.42-1.64,2.15-.35,2.75a43.83,43.83,0,0,0,46.29-6.49c12.52-10.85,17.43-29.5,12.4-45.21-2.82-8.79-8.94-17.21-18.11-20-1.86-.56-2.65,2.34-.8,2.89,7.44,2.23,12.68,8.92,15.35,15.95a40.77,40.77,0,0,1-8.82,42.18,39.38,39.38,0,0,1-19.75,10.61A40,40,0,0,1,617.89,215l-.36,2.74,6-2.3c1.78-.69,1-3.59-.8-2.89Z"/></svg>