<svg xmlns="http://www.w3.org/2000/svg" fill="none" viewBox="0 0 686 548"><style>@keyframes spin{0%{transform:rotate(0deg)}to{transform:rotate(360deg)}}@keyframes scale{0%,to{transform:scale(1)}50%{transform:scale(1.05)}}@keyframes move-top{0%,to{transform:translateY(-10px)}50%{transform:translate(0)}}@keyframes move-right{0%,to{transform:translate(0)}50%{transform:translate(-10px)}}@keyframes move-bottom{0%,to{transform:translate(0)}50%{transform:translateY(-10px)}}@keyframes move-left{0%,to{transform:translate(10px)}50%{transform:translate(0)}}</style><g id="bg 1" clip-path="url(#clip0_1:2)"><g id="Layer 2"><g id="vector draw"><path id="Vector" stroke="#D736BC" stroke-miterlimit="10" stroke-width="3" d="M342.5 468.5C449.92 468.5 537 381.42 537 274S449.92 79.5 342.5 79.5 148 166.58 148 274s87.08 194.5 194.5 194.5Z"/><g fill="#F5CB00" style="animation:move-right 3s ease infinite;transform-box:fill-box" transform-origin="center"><path id="Vector_2" d="M575.31 69.21c9.57-13.31 9.41-30.52 16.43-44.94a37.4 37.4 0 0 1 37.52-21.08c14.82 1.58 27.93 13.28 31.41 27.72a37.36 37.36 0 0 1-15.76 39.57c-11.71 7.89-26.7 11.08-36.51 21.7-1.2 1.3-2.29 2.7-3.27 4.16-1.07 1.61 1.52 3.12 2.59 1.52 4.09-6.13 10.37-10.13 16.8-13.43 6.65-3.41 13.64-6.2 20-10.14a41.54 41.54 0 0 0 15.75-16.71 41.07 41.07 0 0 0 4.07-23.06c-1.92-15.58-13.76-28.89-28.81-33.14C620-3 602.61 3.36 593.07 16.21c-10.07 13.57-9.53 31.57-17.14 46.25a41.08 41.08 0 0 1-3.21 5.23c-1.13 1.57 1.48 3.07 2.59 1.52Z"/><path id="Vector_3" d="M573.41 69.65c11.31 8.63 21.44 18.76 31.81 28.46 1.41 1.31 3.54-.8 2.12-2.13-10.57-9.87-20.9-20.13-32.42-28.92-1.54-1.17-3 1.44-1.51 2.59Z"/><path id="Vector_4" d="M568.13 77.74c10.06 9.09 19.73 18.66 30.4 27.05 1.5 1.18 3.64-.92 2.12-2.12-10.67-8.39-20.33-18-30.4-27-1.43-1.29-3.56.83-2.12 2.12v-.05Z"/><path id="Vector_5" d="M563.79 85.82a207.13 207.13 0 0 0 29.69 25.38c1.58 1.12 3.08-1.48 1.52-2.59a203.82 203.82 0 0 1-29.09-24.91c-1.35-1.39-3.47.73-2.12 2.12Z"/><path id="Vector_6" d="M567.44 87.26c-3 3.78-4.44 9.24-2.94 13.89 2 6.18 8.94 11.39 15.42 11.51 3.88.08 7.22-1.87 10.26-4.07 1.55-1.12.06-3.73-1.51-2.59-2.87 2.08-6 4-9.68 3.61-3.68-.39-6.88-2.71-9.27-5.38a10.42 10.42 0 0 1-2.62-9.08 14.6 14.6 0 0 1 2.28-5.51c.13-.19.4-.54.18-.26 1.18-1.5-.93-3.63-2.12-2.12Z"/><path id="Vector_7" d="M604.7 28.39c-2.34 17.5-8.8 34.2-18.87 48.7-1.1 1.59 1.5 3.09 2.59 1.51a114.42 114.42 0 0 0 19.28-50.21c.11-.81-.76-1.49-1.5-1.5a1.54 1.54 0 0 0-1.5 1.5Z"/><path id="Vector_8" d="M635.76 48.8a302.63 302.63 0 0 0-43.15 34.62c-1.39 1.34.73 3.46 2.12 2.12a298.56 298.56 0 0 1 42.54-34.15c1.61-1.06.1-3.66-1.51-2.59Z"/><path id="Vector_9" d="M607.58 24.3c.58 3.27 1.48 6.81 4.58 8.58a5.86 5.86 0 0 0 4.42.67 9.91 9.91 0 0 0 3.79-2.55c.8-.73 2.75-2.3 3.47-.7.25.78.37 1.59.35 2.4l.23 3.23c.11 1.54.09 3.24 1 4.58a3.33 3.33 0 0 0 4.11 1.13 4.33 4.33 0 0 1 2.68-.48c.82.23 1.55.7 2.11 1.34 1.34 1.48 1.81 3.57 2.29 5.45a1.51 1.51 0 0 0 2.9-.8c-.83-3.19-2-6.74-5.13-8.34a6.12 6.12 0 0 0-4.46-.53c-.44.13-1.6.87-2 .59-.4-.28-.38-1.74-.41-2.2-.14-1.91-.2-3.86-.46-5.76a4.81 4.81 0 0 0-2.22-3.85 4.84 4.84 0 0 0-4.45.25c-1.4.71-2.34 2-3.63 2.87-1.56 1-3.32.32-4.4-1.08-1.2-1.58-1.51-3.71-1.85-5.6-.34-1.89-3.23-1.1-2.89.79l-.03.01Z"/></g><g fill="#612CBF" style="animation:scale 1s ease infinite;transform-box:fill-box" transform-origin="center"><path id="Vector_10" d="M53.91 507.17a242.76 242.76 0 0 1-35-32.14 265.9 265.9 0 0 1-8.6-10v2.12l47.13-38 13.38-10.78h-2.11c11 11.42 23.19 21.57 34.18 33 3 3.14 6 6.38 8.72 9.77 1.22 1.49 3.33-.64 2.12-2.12-10-12.29-22.12-22.65-33.57-33.52-3.17-3-6.3-6.07-9.33-9.22a1.54 1.54 0 0 0-2.12 0l-47.13 38L8.2 465a1.54 1.54 0 0 0 0 2.12 255.17 255.17 0 0 0 33.72 34.35c3.4 2.87 6.89 5.64 10.47 8.3 1.56 1.15 3-1.45 1.52-2.59v-.01Z"/><path id="Vector_11" d="M19.43 469.38c11.51 9.4 22.27 19.67 33.55 29.34 1.46 1.25 3.59-.86 2.12-2.12-11.28-9.67-22-19.94-33.54-29.34-1.49-1.21-3.62.9-2.13 2.12Z"/><path id="Vector_12" d="M21.66 469.49c13.93-12.58 28.86-24.12 43.64-35.68l4.31-3.36h-2.12c7.51 8.3 14.99 16.63 22.42 25a799.9 799.9 0 0 1 7.14 8.15l.3-2.36C84.64 469 73.27 479.07 62 488.8l-9 7.8c-1.47 1.26.66 3.37 2.12 2.12 11.21-9.61 22.2-19.54 34.1-28.32a138.2 138.2 0 0 1 9.67-6.58 1.52 1.52 0 0 0 .3-2.36c-8.78-10.19-17.84-20.15-26.85-30.14l-2.71-3a1.54 1.54 0 0 0-2.12 0c-12.19 9.45-24.29 19-36.15 28.9-4 3.32-7.95 6.66-11.8 10.13-1.44 1.3.69 3.42 2.12 2.13l-.02.01Z"/><path id="Vector_13" d="M53.7 509.75c16.21-11.89 31.82-24.57 47.14-37.58 4.32-3.66 8.62-7.35 12.89-11.07 1.46-1.27-.67-3.39-2.12-2.12-15 13.06-30.31 25.9-46.06 38.1-4.4 3.42-8.86 6.78-13.36 10.08-1.54 1.13 0 3.73 1.51 2.59Z"/><path id="Vector_14" d="M51.94 508.68c1 6.2 2.74 12.26 5.16 18.05 2.2 5.73 4.88 11.26 8 16.55a1.5 1.5 0 0 0 2.59-1.51c-3.07-5.18-5.7-10.6-7.87-16.22a79.33 79.33 0 0 1-5-17.67c-.27-1.91-3.16-1.1-2.9.8h.02Z"/><path id="Vector_15" d="M67.17 543.82c20.7-15.14 41-30.83 60.62-47.35 5.33-4.5 10.6-9.07 15.79-13.71 1.44-1.29-.68-3.41-2.12-2.12-18.9 16.94-38.78 32.79-59 48.1-5.56 4.21-11.16 8.38-16.79 12.49-1.54 1.13 0 3.73 1.51 2.59h-.01Z"/><path id="Vector_16" d="M112.27 461.48c11.64 3.68 21.27 12.31 29.54 21 1.33 1.4 3.45-.72 2.12-2.12-8.63-9.06-18.72-17.92-30.86-21.76-1.85-.58-2.64 2.31-.8 2.89v-.01Z"/><path id="Vector_17" d="M62.61 508.68c0 2.42.41 4.82 1.22 7.1A35.18 35.18 0 0 0 67 522c1 1.65 3.61.14 2.59-1.51a32.7 32.7 0 0 1-2.87-5.49 18.34 18.34 0 0 1-1.11-6.3 1.5 1.5 0 0 0-3 0v-.02Z"/><path id="Vector_18" d="m69.36 522.43 39.92-31.87 11.45-9.14c1.51-1.2-.63-3.31-2.12-2.12l-39.92 31.87-11.45 9.14c-1.51 1.2.62 3.31 2.12 2.12Z"/><path id="Vector_19" d="M110.28 474.17c2.65 2.47 5.56 4.69 8.13 7.25a1.5 1.5 0 0 0 2.12-2.12c-2.57-2.56-5.47-4.78-8.13-7.25a1.5 1.5 0 0 0-2.12 2.12Z"/><path id="Vector_20" d="M65 509.33a364.3 364.3 0 0 1 47.08-35.15c1.63-1 .12-3.62-1.52-2.59A369.37 369.37 0 0 0 63 507.21c-1.46 1.28.67 3.39 2.12 2.12H65Z"/><path id="Vector_21" d="M88.09 513c.36.36.7.75 1 1.16l-.24-.3c.7.88 1.29 1.83 1.78 2.84a1.5 1.5 0 0 0 2.74-.36c.09-.4.03-.8-.15-1.16-.35-.73-.76-1.44-1.22-2.11a14.5 14.5 0 0 0-1.82-2.24 1.51 1.51 0 0 0-2.12 0 1.53 1.53 0 0 0 0 2.12l.03.05Z"/><path id="Vector_22" d="m90.11 513.13 13-10.3-2.35-.3c1.05 1.62 2.3 3.1 3.73 4.4v-2.12a85.28 85.28 0 0 1-12.94 10.26c-1.62 1-.12 3.63 1.52 2.59a89.68 89.68 0 0 0 13.54-10.73 1.51 1.51 0 0 0 0-2.12 19.63 19.63 0 0 1-3.26-3.79 1.55 1.55 0 0 0-1.78-.65c-.21.07-.41.18-.58.34L88 511a1.51 1.51 0 0 0 0 2.12 1.55 1.55 0 0 0 2.12 0l-.01.01Z"/></g><path id="Vector_23" fill="#612CBF" d="M426.93 493.5c-3.55 3.67-5.88 9-2.76 13.7a11.08 11.08 0 0 0 12.83 4.44c4.63-1.73 8.19-6.72 8.9-11.55A8.4 8.4 0 0 0 444 493a8.9 8.9 0 0 0-4.58-2.15c-4.08-.79-9.41-.42-12.53 2.65-1.38 1.35.74 3.48 2.12 2.12 2-2 5.47-2.25 8.14-2.06 1.33.05 2.63.37 3.83.94.43.18.8.47 1.1.84-.19-.23.11.19.11.2.15.24.29.48.41.74.21.52.35 1.06.4 1.62.07 2.07-.49 4.11-1.61 5.85-.85 1.6-2.06 3-3.52 4.08a7.9 7.9 0 0 1-10.25-1.06 6.4 6.4 0 0 1-2-4.75c.13-2.47 1.75-4.69 3.4-6.4 1.37-1.39-.75-3.51-2.09-2.12Z"/><path id="Vector_24" fill="#612CBF" d="M140.35 139.64c-6.27-.19-12.84 1.74-16.45 7.21-2.91 4.42-3.69 11.09.51 15 4.71 4.39 12.54 3.34 18.06 1.26 5-1.9 10.59-6.08 9.61-12.1-.9-5.54-6-11.05-11.73-11.38-1.92-.11-1.92 2.89 0 3 4 .23 7.36 4.12 8.49 7.71a5.41 5.41 0 0 1-.5 5 13.07 13.07 0 0 1-5.68 4.52c-4.16 1.88-10.39 3.22-14.64 1s-4.22-7.5-2.19-11.3c2.84-5.32 8.84-7 14.52-6.84 1.94-.02 1.93-3.02 0-3.08Z"/><path id="Vector_25" fill="#D736BC" d="M173.15 466.47a11.92 11.92 0 0 0 23.66-.74 15.33 15.33 0 0 0-6.64-14.12c-5-3.41-11.64-3.84-17.38-2.35-7.33 1.91-13.42 6.89-18.79 12-1.4 1.33.73 3.45 2.12 2.12 7.55-7.21 17.73-14.65 28.75-11.06a12.72 12.72 0 0 1 8.81 9.69c.88 4.49-1 9.28-5.47 11a9.11 9.11 0 0 1-12.21-7.34c-.3-1.9-3.19-1.09-2.89.8h.04Z"/><path id="Vector_26" fill="#30135A" d="M472 54.35a5.05 5.05 0 0 0 2 6.55c2.28 1.51 5.11.9 7.14-.73 4.31-3.49 4.34-9.83 2.05-14.44-5.6-11.27-21.86-10.27-29.73-2.13-6.83 7.08-7.2 18.9.27 25.67 5.47 5 13.4 6.36 20.55 6.42 8.48.08 18.79-1.86 22.88-10.25.84-1.73-1.74-3.25-2.59-1.51-2 4.15-6.08 6.5-10.4 7.7-2.1.59-4.25.92-6.42 1-5.66.33-11.67-.1-16.93-2.36-6.32-2.72-10.61-8.83-9.55-15.91C452.76 44.41 464 38 473.45 41.05a11.89 11.89 0 0 1 8.29 11 7.28 7.28 0 0 1-3 6.22 2.8 2.8 0 0 1-3.22.09 2 2 0 0 1-.89-2.45c.91-1.71-1.68-3.22-2.59-1.51l-.04-.05Z"/><g style="animation:scale 1s ease infinite;transform-box:fill-box" transform-origin="center"><path id="Vector_27" stroke="#F5CB00" stroke-miterlimit="10" d="M161.73 77.55a33.29 33.29 0 1 0 0-66.58 33.29 33.29 0 0 0 0 66.58Z"/><path id="Vector_28" fill="#F5CB00" d="M148.62 12.93a34.67 34.67 0 0 0-21.8 32.6 33.13 33.13 0 0 0 9 21.64 36.82 36.82 0 0 0 42.79 7.56c5.52-2.73 10.94-6.82 13.8-12.39a38.6 38.6 0 0 0 4.11-21.16 37.48 37.48 0 0 0-9.92-21.54c-8.6-9.15-21.6-11.8-33.42-8.35-1.43.42-2.83.92-4.2 1.49-1.76.73-1 3.64.8 2.9 10.14-4.22 22-4.07 31 2.76A33.88 33.88 0 0 1 192.2 35a34.42 34.42 0 0 1-.66 21.74c-.8 2.37-1.9 4.63-3.29 6.71a25.9 25.9 0 0 1-6.08 5.61 34 34 0 0 1-20 6.44c-14.84-.11-28.69-10.26-31.76-25-2.6-12.5 3.81-25.89 14.59-32.38a42.69 42.69 0 0 1 5.14-2.6c1.77-.75.24-3.33-1.52-2.59Z"/><path id="Vector_29" fill="#F5CB00" d="m131.31 58.7 47.22-18.83L192 34.52c1.77-.71 1-3.61-.8-2.9l-47.26 18.83-13.42 5.36c-1.78.7-1 3.6.79 2.89Z"/><path id="Vector_30" fill="#F5CB00" d="M148.49 15.14a920.2 920.2 0 0 1 19.37 45.39c1.7 4.21 3.37 8.44 5 12.66.7 1.78 3.6 1 2.89-.79a1259.1 1259.1 0 0 0-19-46.14 694.42 694.42 0 0 0-5.7-12.63c-.81-1.75-3.4-.23-2.59 1.51h.03Z"/><path id="Vector_31" fill="#F5CB00" d="M148.49 13.63a58.3 58.3 0 0 0-4.86 15.3c-1 4.91-1.37 9.93-1.11 14.94.34 5.74 1.74 11.23 5.31 15.83a45.22 45.22 0 0 0 11.6 10.15c4.78 3 10.14 5.54 15.8 6.25 1.91.24 1.89-2.76 0-3-4.49-.57-8.81-2.59-12.67-4.85A45.66 45.66 0 0 1 151.09 59c-6.58-7.57-6.44-18.59-4.8-28a57.4 57.4 0 0 1 4.79-15.85c.87-1.72-1.72-3.24-2.59-1.51v-.01Z"/><path id="Vector_32" fill="#F5CB00" d="M149.39 15.83c8.87 2.45 16.71 9.07 22.31 16.17a28.12 28.12 0 0 1 5.7 10.9c1 4.56.83 9.37.38 14-.52 5.27-1.53 10.47-2.41 15.68-.31 1.89 2.58 2.71 2.9.8 1.63-9.76 4-20 2.3-29.89a28.68 28.68 0 0 0-5.53-12 56.5 56.5 0 0 0-10.26-10.64 41.72 41.72 0 0 0-14.59-7.91 1.5 1.5 0 0 0-.8 2.89Z"/><path id="Vector_33" fill="#F5CB00" d="M131.08 32.6a55.73 55.73 0 0 0 20-.26 39.54 39.54 0 0 0 17.66-8.4 25.64 25.64 0 0 0 7.35-9.18c.78-1.75-1.81-3.27-2.59-1.51-2.67 5.94-8.11 10.09-13.78 13S148.15 30.1 142 30.3c-3.37.17-6.75-.04-10.08-.6-1.89-.35-2.7 2.54-.8 2.9h-.04Z"/><path id="Vector_34" fill="#F5CB00" d="M155.12 74.76c3.4-6.53 9.25-12.27 16.32-14.64a43 43 0 0 1 21-1.67c1.89.36 2.7-2.53.8-2.89a42.33 42.33 0 0 0-11.57-.45 46.43 46.43 0 0 0-11.32 2.22c-7.66 2.67-14.08 8.78-17.8 15.92-.9 1.71 1.69 3.22 2.59 1.51h-.02Z"/></g><path id="Vector_35" fill="#F5CB00" d="M647.4 516.75c1.92-2.77 3.45-7 .57-9.71-2.34-2.21-6-2-8.75-.75a11.17 11.17 0 0 0-6.1 9.21c-.43 4.76 2.37 9 6.22 11.53 4.65 3.08 10.11 3.31 14.54-.27 3.67-3 5.7-7.75 6.09-12.38a13.76 13.76 0 0 0-4.87-11.9 23.26 23.26 0 0 0-7.35-3.75 20 20 0 0 0-9.11-1c-4.62.63-8.14 3.58-10.33 7.63-2.89 5.32-2.95 11.57-1.18 17.26.58 1.83 3.47 1 2.9-.8-2.14-6.85-1.26-16.21 5.67-20.12 3.84-2.17 8.89-1.05 12.74.47 3.85 1.52 7.08 3.8 8.19 7.85 1.79 6.56-2.74 17.13-10.67 16.45a11.75 11.75 0 0 1-9.41-7.28 8.64 8.64 0 0 1 1.78-8.61c1.66-1.74 4.57-2.86 6.7-1.93a2.32 2.32 0 0 1 1.54 2c.19 1.67-.86 3.33-1.76 4.63-1.1 1.59 1.5 3.09 2.59 1.51v-.04Z"/><g style="animation:spin 3.5s ease infinite;transform-box:fill-box" transform-origin="center"><path id="Vector_36" fill="#F5CB00" d="M31.57 213.84c-3.79-1-8.1-2.06-10.56-5.37a6.25 6.25 0 0 1 1.38-8.9 8.51 8.51 0 0 1 9.46-.46 15.1 15.1 0 0 1 7 8.93c1.15 3.57 2 8 1 11.65a13.79 13.79 0 0 1-4.86 7.38c-4.22 3.28-9.4 3.29-14.08 1a35.57 35.57 0 0 1-11.54-9.77 22.08 22.08 0 0 1-5.37-12c-.56-3.8.02-7.67 1.66-11.14a19.28 19.28 0 0 1 7.79-7.84c6.76-3.83 14.82-3.86 22-1.1a32.81 32.81 0 0 1 18.38 17.88c3.09 7.84 2.26 17.25-3.43 23.71-1.63 1.85 1.08 4.57 2.71 2.71a26.75 26.75 0 0 0 5.22-25.06c-2.57-8.82-9.12-16.32-17.09-20.75-8.12-4.52-18-5.83-26.66-2.22C6.14 186 .24 193.44 0 202.74a26.42 26.42 0 0 0 5.8 17.17c3.7 4.82 8.4 9.37 14 11.87 6.17 2.74 12.68 2.21 18-2.13a17.53 17.53 0 0 0 5.85-9.65c1-4.34.09-9.6-1.4-13.74-1.41-4.33-4.34-8-8.25-10.35a12.72 12.72 0 0 0-12.24-.49c-3.55 1.9-6.28 5.84-5.91 10 .4 4.45 3.77 7.93 7.66 9.77 2.25 1 4.6 1.8 7 2.36 2.39.62 3.41-3.08 1-3.69l.06-.02Z"/></g><g style="animation:spin 3.5s ease infinite;transform-box:fill-box" transform-origin="center"><path id="Vector_37" fill="#D736BC" d="M627.85 280.87c-3.1-1.79-6.67-3.82-7.92-7.4a5.75 5.75 0 0 1 3.42-7.33 7.73 7.73 0 0 1 8.3 1.69 13.5 13.5 0 0 1 4.09 9.46c.18 3.64-.22 7.87-2.28 11a12.36 12.36 0 0 1-6.3 5 11.51 11.51 0 0 1-11.52-2.46 30.3 30.3 0 0 1-7.49-10.48 32.26 32.26 0 0 1-1.82-4.82 21.3 21.3 0 0 1-.47-1.95c0-.15-.06-.46 0-.14v-.31c-.06-.88-.09-1.75-.07-2.63.16-7 3.51-13.25 10.09-16s14.32-1.67 20.35 2.13c12 7.53 18.72 25.74 8.52 37.43a18.44 18.44 0 0 1-3.82 3.34c-1.61 1.05-.11 3.64 1.52 2.59a23.6 23.6 0 0 0 10.27-20.59 32 32 0 0 0-11.23-22.58c-6.3-5.4-14.6-8.11-22.82-6.33-3.97.8-7.62 2.78-10.47 5.66a20 20 0 0 0-5 10.27c-.58 2.83-.6 5.75-.06 8.59a31.53 31.53 0 0 0 1.86 5.59 33.17 33.17 0 0 0 8.6 12.39c4.08 3.43 9.31 5 14.47 3.1a15.58 15.58 0 0 0 7.76-6c2.46-3.54 3.07-8.36 2.91-12.59a16.94 16.94 0 0 0-4.46-11.3 11.17 11.17 0 0 0-9.88-3.49 9.6 9.6 0 0 0-7.54 6.33c-1.23 4.08 1.11 8.27 4.15 10.86a36 36 0 0 0 5.32 3.55 1.5 1.5 0 0 0 1.51-2.59l.01.01Z"/></g><g style="animation:spin 3.5s ease infinite;transform-box:fill-box" transform-origin="center"><path id="Vector_38" fill="#30135A" d="M336.46 519.45c-2.89-.72-6.22-1.52-8-4.1a4.62 4.62 0 0 1 1.09-6.47 6.38 6.38 0 0 1 7.18-.32 11.42 11.42 0 0 1 5.16 6.7c.81 2.53 1.47 5.7.81 8.33a10.45 10.45 0 0 1-3.73 5.86 9.57 9.57 0 0 1-10.31.81 26.46 26.46 0 0 1-8.71-7.2 16.7 16.7 0 0 1-4.15-8.92c-.47-2.85-.1-5.78 1.09-8.42 1.3-2.53 3.3-4.61 5.78-6a19.21 19.21 0 0 1 16.53-1A24.63 24.63 0 0 1 353 511.9c2.45 5.87 1.91 13-2.35 18-1.26 1.45.85 3.58 2.12 2.12a20.16 20.16 0 0 0 3.78-19 27.1 27.1 0 0 0-13-15.48c-6.21-3.38-13.64-4.26-20.22-1.45-6.3 2.7-10.64 8.38-10.75 15.33a20.08 20.08 0 0 0 4.6 13.06 28.3 28.3 0 0 0 10.64 8.75 12.53 12.53 0 0 0 13.59-1.92c5.16-4.44 5.28-11.8 3-17.78a14.13 14.13 0 0 0-6.35-7.6 9.57 9.57 0 0 0-9.17-.17 8.19 8.19 0 0 0-4.37 7.36c.23 3.39 2.79 6.08 5.74 7.48 1.75.78 3.56 1.38 5.43 1.8 1.87.47 2.67-2.43.8-2.9l-.03-.05Z"/></g><path id="Vector_39" fill="#D736BC" d="M130.35 333.76c-2.37 1.86-2.85 5.57-2.56 8.36.36 3.45 1.81 7 4.86 8.9 3.37 2.09 8.36 2 10.9-1.31 2.77-3.63 1.18-9.1-.68-12.79-2.29-4.53-7.92-6.52-12.22-3.39a1.54 1.54 0 0 0-.53 2.05 1.5 1.5 0 0 0 2 .54 4.93 4.93 0 0 1 4.62-.91 5.24 5.24 0 0 1 3 2.41c.9 1.55 1.55 3.24 1.9 5a7.14 7.14 0 0 1-.18 4.72c-1.32 2.62-4.83 2.58-7.12 1.28a6.17 6.17 0 0 1-2.37-2.46 10.46 10.46 0 0 1-1.22-3.71c0-.18-.06-.48-.08-.8-.02-.4-.02-.8 0-1.19 0-.62.07-1.23.22-1.83a4.16 4.16 0 0 1 1.52-2.71 1.5 1.5 0 0 0 0-2.12 1.54 1.54 0 0 0-2.06-.04Z"/><path id="Vector_40" fill="#F5CB00" d="M40.46 365.44c-4.33-1.29-9.06 1.54-12 4.47-3.62 3.55-5.85 8.56-4.38 13.61 1.51 5.23 6.59 9.38 12.16 7.41a15.75 15.75 0 0 0 6.75-5.2c2-2.46 4-5.3 4.56-8.49.37-2.21.07-4.49-.86-6.53a10.13 10.13 0 0 0-6.19-5.27c-1.83-.62-2.62 2.27-.8 2.89a7.28 7.28 0 0 1 5 7.37c-.06 2.47-1.48 4.67-2.87 6.62a17.84 17.84 0 0 1-4.9 5 6.14 6.14 0 0 1-6 .59 8 8 0 0 1-3.76-4.54c-1.35-3.78 0-7.53 2.57-10.43 2.25-2.52 6.33-5.66 10-4.58 1.77.53 2.57-2.36.72-2.92Z"/><g fill="#D736BC" style="animation:scale 1s ease infinite;transform-box:fill-box" transform-origin="center"><path id="Vector_41" d="M358.1 38.3c-1.88-.5-3.84-.6-5.76-.31a8.19 8.19 0 0 0-4.34 3.13c-1.8 2.49-1.15 6.14.84 8.31 2.3 2.52 6.29 2.84 9.31 1.62 1.28-.5 2.45-1.23 3.45-2.16a6.37 6.37 0 0 0 1.82-4c.34-3.29-2.43-5.59-5.29-6.54a1.5 1.5 0 0 0-1.84 1 1.52 1.52 0 0 0 1.05 1.85l.46.17c-.38-.15.21.11.29.15a7.14 7.14 0 0 1 1.34.85l.21.2.26.27s.23.29.09.1c.28.3.46.7.49 1.11v.61c-.02.22-.06.44-.12.65a2.99 2.99 0 0 1-.64 1.27l-.2.2c-.07.07-.52.45-.33.31-.4.3-.84.57-1.29.8a6.07 6.07 0 0 1-6.24 0 4 4 0 0 1-1.65-2.81V44.12c0-.14-.08.34 0-.14l.09-.39c0-.05.19-.48.1-.29a5.16 5.16 0 0 1 2.6-2.31c.7-.2 1.42-.25 2.13-.17.82 0 1.63.13 2.42.36 1.81.58 2.65-2.32.75-2.88Z"/><path id="Vector_42" d="M341.29 36a25.35 25.35 0 0 1 15.6-5.36 21.07 21.07 0 0 1 14.22 6.18c1.38 1.35 3.5-.77 2.12-2.13a24.31 24.31 0 0 0-16-7 27.83 27.83 0 0 0-17.48 5.76c-1.54 1.14 0 3.74 1.51 2.59l.03-.04Z"/><path id="Vector_43" d="M333.52 25.06a41 41 0 0 1 24.69-6.54c8.13.57 16.83 4 22 10.52 1.19 1.51 3.3-.62 2.12-2.13-4.33-5.47-11.12-8.91-17.79-10.45a41.31 41.31 0 0 0-21 .72c-4.07 1.23-7.95 3-11.54 5.28-1.62 1-.12 3.63 1.52 2.6Z"/><path id="Vector_44" d="M327.63 16.06a47.57 47.57 0 0 1 24.82-9 42.61 42.61 0 0 1 24.11 6 46.68 46.68 0 0 1 11.05 9.24c1.28 1.44 3.4-.68 2.12-2.13A48.23 48.23 0 0 0 367.49 5.8a46.18 46.18 0 0 0-27 .44 51.62 51.62 0 0 0-14.37 7.23c-1.56 1.11-.07 3.71 1.51 2.59Z"/></g><path id="Vector_45" fill="#30135A" d="M251.05 56.79a7.9 7.9 0 0 0-9.24 3.46c-2.2 4.11-1 9.56 1.62 13.19 2.47 3.43 6.69 5.9 10.83 3.8 3.28-1.66 5-5.81 4.66-9.34a14.2 14.2 0 0 0-2.63-6.46 11.47 11.47 0 0 0-5.24-4.65c-.2-.06-.4-.08-.6-.06a1.5 1.5 0 0 0-.2 2.95 7.8 7.8 0 0 1 3.2 2.91 14.85 14.85 0 0 1 2.3 4.43 7.22 7.22 0 0 1-2 7c-2.41 2.11-5.38.65-7.21-1.42a11 11 0 0 1-2.63-9.43 4.58 4.58 0 0 1 2.6-3.31 5.36 5.36 0 0 1 3.74-.15c1.84.58 2.62-2.31.8-2.92Z"/><g fill="#612CBF" style="animation:move-top 3s ease infinite;transform-box:fill-box" transform-origin="center"><path id="Vector_46" d="m632.16 181.31 21.62 15.88c1.55 1.15 3.05-1.45 1.51-2.59l-21.61-15.88c-1.56-1.14-3.06 1.46-1.52 2.59Z"/><path id="Vector_47" d="M639.06 172.72 661 192c1.44 1.27 3.57-.84 2.12-2.12l-21.94-19.28c-1.44-1.27-3.57.84-2.12 2.12Z"/><path id="Vector_48" d="m642.44 216.37-4.64 1.79c-1.06.41-1.65 2.15-.35 2.74a34.5 34.5 0 0 0 36.61-5.2c9.79-8.56 13.6-23.23 9.63-35.55-2.24-7-7.09-13.54-14.34-15.74-1.85-.56-2.64 2.34-.79 2.9 5.77 1.74 9.79 7 11.82 12.43a31.47 31.47 0 0 1-6.71 32.19 30.33 30.33 0 0 1-15.3 8.33c-6.5 1.46-13.3.77-19.37-1.95l-.36 2.75 4.64-1.8c1.78-.69 1-3.59-.8-2.89h-.04Z"/></g><g id="star4" fill="#F5CB00"><path id="Vector_49" d="M209.77 510c-5.51 2.63-11.16 5-16.68 7.61a1.7 1.7 0 0 0-.61 2.31 1.72 1.72 0 0 0 2.31.6c5.52-2.63 11.17-5 16.69-7.61a1.7 1.7 0 0 0 .6-2.31 1.72 1.72 0 0 0-2.31-.6Z"/><path id="Vector_50" d="M193 520.63a160.11 160.11 0 0 0 16.26 8.89 1.73 1.73 0 0 0 2.31-.61 1.69 1.69 0 0 0-.61-2.3 158.94 158.94 0 0 1-16.25-8.9c-1.84-1.17-3.54 1.75-1.71 2.92Z"/><path id="Vector_51" d="M208.5 528.17c.73 6.22 1.6 12.42 2.61 18.6a1.7 1.7 0 0 0 2.07 1.18 1.73 1.73 0 0 0 1.18-2.08 394.47 394.47 0 0 1-2.48-17.7 1.74 1.74 0 0 0-1.69-1.68 1.7 1.7 0 0 0-1.69 1.68Z"/><path id="Vector_52" d="M224.16 532.34c-2 2.21-4.06 4.44-6.12 6.63-2.06 2.19-4.24 3.73-6.16 5.8a1.72 1.72 0 0 0 0 2.39 1.7 1.7 0 0 0 2.38 0c1.92-2.07 4.23-3.74 6.17-5.8 1.94-2.06 4.08-4.42 6.11-6.63a1.69 1.69 0 0 0-2.38-2.39Z"/><path id="Vector_53" d="M225.59 535.23c6.19.22 12.14 2.13 18.12 3.59 2.1.51 3-2.74.89-3.26-6.27-1.53-12.5-3.48-19-3.71-2.17-.08-2.17 3.3 0 3.38h-.01Z"/><path id="Vector_54" d="M234.21 521.31c2.71 5.64 5.84 11.06 8.56 16.7a1.69 1.69 0 0 0 2.31.6 1.72 1.72 0 0 0 .6-2.3c-2.71-5.64-5.84-11.06-8.55-16.7a1.7 1.7 0 0 0-2.31-.6 1.72 1.72 0 0 0-.61 2.3Z"/><path id="Vector_55" d="M212.77 494.34c4.23 4.22 8.17 8.72 11.8 13.47a1.74 1.74 0 0 0 2.31.6 1.7 1.7 0 0 0 .6-2.3c-3.79-4.97-7.9-9.69-12.32-14.11a1.69 1.69 0 0 0-2.39 2.38v-.04Z"/><path id="Vector_56" d="M212.2 492.74c-.35 1.45-.73 2.84-1 4.32-.27 1.48-.49 3.09-.73 4.64-.47 3.07-.94 6.14-1.45 9.2a1.74 1.74 0 0 0 1.18 2.07 1.7 1.7 0 0 0 2.08-1.17c.51-3.07 1-6.14 1.44-9.21l.71-4.48c.24-1.48.64-3 1-4.47.51-2.12-2.75-3-3.26-.9h.03Z"/><path id="Vector_57" d="M226.28 508.72c3.14-.2 6.26-.6 9.34-1.21 3.09-.51 6.19-1 9.25-1.65 2.13-.45 1.23-3.7-.89-3.25-3 .63-6 1.11-9 1.61-2.86.56-5.74.94-8.65 1.13-2.17.07-2.18 3.45 0 3.37h-.05Z"/><path id="Vector_58" d="M243.18 503.77c-.74 2.82-2.74 5.31-4.28 7.74l-2.56 4a28.2 28.2 0 0 0-2.21 3.88 1.74 1.74 0 0 0 .61 2.31 1.7 1.7 0 0 0 2.31-.61 28.8 28.8 0 0 1 2.37-4.14l2.57-4c1.65-2.62 3.65-5.25 4.45-8.28.55-2.11-2.71-3-3.26-.9Z"/></g><g id="star3" fill="#30135A"><path id="Vector_59" d="M614.33 449c1.67 7.3 3 14.69 4.64 22 .43 1.88 3.33 1.08 2.9-.8-1.67-7.31-3-14.69-4.64-22-.43-1.88-3.33-1.09-2.9.8Z"/><path id="Vector_60" d="M621.59 471.78c5.33-5.4 10.34-11.1 15-17.07a1.55 1.55 0 0 0 0-2.12 1.51 1.51 0 0 0-2.12 0 194.65 194.65 0 0 1-15 17.07 1.5 1.5 0 0 0 2.12 2.12Z"/><path id="Vector_61" d="M635.68 455.06a473 473 0 0 0 22.39 1.81c1.92.11 1.92-2.89 0-3a474.51 474.51 0 0 1-22.39-1.81c-1.92-.19-1.91 2.81 0 3Z"/><path id="Vector_62" d="M644.85 437.62c2.08 3 4.18 6 6.24 9 2.06 3 3.37 6.12 5.35 9 1.08 1.58 3.68.08 2.59-1.52-2-2.88-3.38-6.11-5.35-9-1.97-2.89-4.16-6-6.24-9-1.1-1.57-3.7-.07-2.59 1.52Z"/><path id="Vector_63" d="M647.66 437c1.93-7.41 5.81-14.06 9.18-20.87.85-1.72-1.73-3.25-2.59-1.51-3.48 7-7.49 13.93-9.48 21.58a1.5 1.5 0 0 0 2.89.8Z"/><path id="Vector_64" d="M633.66 422.47c7.47-1.74 14.8-4 22.26-5.77 1.88-.44 1.09-3.33-.8-2.89-7.46 1.73-14.79 4-22.25 5.76-1.88.44-1.09 3.34.79 2.9Z"/><path id="Vector_65" d="M595.54 441c6.34-4.01 12.94-7.6 19.75-10.74 1.75-.81.22-3.39-1.52-2.59A170.36 170.36 0 0 0 594 438.39c-1.63 1-.12 3.63 1.51 2.59l.03.02Z"/><path id="Vector_66" d="M594 441.15c1.74.86 3.42 1.73 5.22 2.46 1.8.73 3.57 1.42 5.36 2.12 3.55 1.39 7.12 2.77 10.65 4.2a1.5 1.5 0 0 0 1.85-1 1.53 1.53 0 0 0-1-1.85c-3.42-1.38-6.86-2.72-10.3-4.06-1.68-.66-3.37-1.32-5-2a97.53 97.53 0 0 1-5.18-2.42c-1.73-.85-3.25 1.74-1.51 2.59l-.09-.04Z"/><path id="Vector_67" d="M616.13 429.06c.6-3.76.95-7.55 1.06-11.35.22-3.83.46-7.67.5-11.5a1.5 1.5 0 0 0-3 0c0 3.75-.28 7.5-.48 11.25-.1 3.62-.43 7.23-1 10.8-.35 1.89 2.54 2.7 2.89.8h.03Z"/><path id="Vector_68" d="M615.52 407c1.48.81 2.83 1.85 4 3.06 1.39 1.36 2.76 2.74 4.14 4.11l4.16 4.15a36.69 36.69 0 0 0 4.44 4 1.5 1.5 0 1 0 1.52-2.59 35.78 35.78 0 0 1-4.19-3.88l-4.28-4.27c-2.55-2.54-5-5.52-8.3-7.18-1.71-.88-3.23 1.71-1.51 2.59l.02.01Z"/></g><g id="star1" fill="#D736BC"><path id="Vector_69" d="M39.85 70.76c-3 5.78-6.19 11.4-9.14 17.17-.88 1.72 1.71 3.24 2.59 1.51 3-5.77 6.19-11.39 9.14-17.16.87-1.72-1.71-3.24-2.59-1.52Z"/><path id="Vector_70" d="M32 90.35c6.66-.61 13.28-1.62 19.82-3 1.89-.39 1.09-3.28-.8-2.89a167.4 167.4 0 0 1-19 2.94c-1.91.16-1.93 3.17 0 3l-.02-.05Z"/><path id="Vector_71" d="M50.5 86.94c4.51 4.67 9.13 9.21 13.84 13.64 1.41 1.32 3.54-.8 2.13-2.13a417.22 417.22 0 0 1-13.85-13.63c-1.35-1.39-3.47.74-2.12 2.12Z"/><path id="Vector_72" d="M66.28 80.62c-.29 3.11-.55 6.23-.85 9.34C65.13 93.07 64.25 96 64 99a1.5 1.5 0 0 0 1.5 1.5A1.54 1.54 0 0 0 67 99c.29-3 1.17-6 1.47-9 .3-3 .56-6.23.85-9.34.17-1.92-2.83-1.91-3 0l-.04-.04Z"/><path id="Vector_73" d="M68.74 81.76c5.49-3.91 11.86-6.2 18-8.89a1.5 1.5 0 1 0-1.51-2.59c-6.12 2.69-12.5 5-18 8.89a1.54 1.54 0 0 0-.54 2 1.51 1.51 0 0 0 2 .54l.05.05Z"/><path id="Vector_74" d="M67.28 64.26c5.92 3 12 5.54 18 8.53 1.72.87 3.24-1.71 1.52-2.59-5.92-3-12.05-5.54-18-8.53-1.72-.87-3.24 1.72-1.51 2.59h-.01Z"/><path id="Vector_75" d="M32.15 55.47c6.3.85 12.53 2.12 18.66 3.79a1.5 1.5 0 0 0 .8-2.89 149.6 149.6 0 0 0-19.46-3.9c-.8-.11-1.5.77-1.5 1.5a1.54 1.54 0 0 0 1.5 1.5Z"/><path id="Vector_76" d="M30.77 54.84c.67 1.52 1.29 3 2.07 4.48l2.29 4.22c1.57 2.87 3.15 5.73 4.69 8.63.91 1.7 3.5.19 2.59-1.52-1.54-2.89-3.12-5.76-4.69-8.63l-2.29-4.22c-.78-1.46-1.39-3-2.07-4.47a1.52 1.52 0 0 0-2.05-.54 1.54 1.54 0 0 0-.54 2.05Z"/><path id="Vector_77" d="M52.53 58.77A70.8 70.8 0 0 0 59.37 52c2.24-2.39 4.5-4.77 6.63-7.25a1.53 1.53 0 0 0 0-2.12 1.51 1.51 0 0 0-2.12 0c-2.13 2.48-4.39 4.86-6.63 7.25a70.81 70.81 0 0 1-6.84 6.8 1.5 1.5 0 0 0 2.12 2.12v-.03Z"/><path id="Vector_78" d="M63.81 43.8c1.19 2.92 1.19 6.29 1.46 9.4.3 3.32.32 6.83 1.14 10.07.48 1.87 3.37 1.08 2.89-.8-.36-1.7-.58-3.42-.66-5.15l-.44-4.87c-.28-3.13-.27-6.52-1.5-9.45a1.54 1.54 0 0 0-1.84-1 1.51 1.51 0 0 0-1 1.85l-.05-.05Z"/></g><g id="star2" fill="#F5CB00"><path id="Vector_79" d="M590.22 330.52c-4.59 1.42-9.25 2.61-13.83 4-1.84.57-1.06 3.47.79 2.9 4.59-1.42 9.25-2.61 13.83-4 1.84-.57 1.06-3.46-.79-2.89v-.01Z"/><path id="Vector_80" d="M575.63 337.14c3.8 3.23 7.79 6.23 11.94 9a1.51 1.51 0 0 0 2-.54 1.53 1.53 0 0 0-.54-2.05 121.78 121.78 0 0 1-11.28-8.55 1.53 1.53 0 0 0-2.12 0 1.51 1.51 0 0 0 0 2.12v.02Z"/><path id="Vector_81" d="M586.89 344.92c-.13 4.8-.16 9.6-.07 14.4 0 1.92 3 1.93 3 0-.1-4.8-.07-9.6.07-14.4.05-1.93-2.95-1.93-3 0Z"/><path id="Vector_82" d="m598.51 349.74-5.56 4.51c-1.87 1.51-3.68 2.39-5.39 3.77a1.51 1.51 0 0 0 0 2.12 1.54 1.54 0 0 0 2.12 0c.8-.61 1.64-1.18 2.51-1.7 1-.64 1.96-1.33 2.88-2.07 1.87-1.48 3.71-3 5.56-4.51a1.51 1.51 0 0 0 0-2.12 1.54 1.54 0 0 0-2.12 0Z"/><path id="Vector_83" d="M599.36 352.28c4.91.89 9.42 3.08 14 4.93a1.52 1.52 0 0 0 1.85-1 1.54 1.54 0 0 0-1.05-1.84c-4.59-1.86-9.11-4.05-14-4.94a1.55 1.55 0 0 0-1.85 1.05 1.52 1.52 0 0 0 1.05 1.85v-.05Z"/><path id="Vector_84" d="M607.62 342.2c1.47 4.69 3.29 9.26 4.76 13.94.58 1.84 3.48 1.06 2.9-.79-1.48-4.69-3.3-9.26-4.77-13.94-.58-1.84-3.47-1.06-2.89.79Z"/><path id="Vector_85" d="M594 318.88a110 110 0 0 1 7.8 12.12c.94 1.69 3.53.18 2.59-1.51-2.34-4.2-4.95-8.24-7.82-12.09a1.56 1.56 0 0 0-2.06-.54 1.51 1.51 0 0 0-.53 2.05l.02-.03Z"/><path id="Vector_86" d="M593.72 317.74c-.46 1.15-.94 2.26-1.31 3.45-.37 1.19-.71 2.25-1 3.38-.71 2.31-1.41 4.63-2.15 6.93-.58 1.84 2.31 2.63 2.9.8.73-2.31 1.43-4.62 2.14-6.93.35-1.13.69-2.26 1-3.38.31-1.12.85-2.3 1.31-3.45a1.5 1.5 0 0 0-1.05-1.85 1.53 1.53 0 0 0-1.84 1.05Z"/><path id="Vector_87" d="M603.28 331.8c2.37.19 4.75.23 7.13.12 2.43-.06 4.86-.09 7.29-.24a1.53 1.53 0 0 0 1.5-1.5 1.5 1.5 0 0 0-1.5-1.5c-2.43.15-4.86.18-7.29.24-2.38.11-4.76.07-7.13-.12a1.5 1.5 0 0 0 0 3Z"/><path id="Vector_88" d="M616.56 329.81c-.43.89-1 1.7-1.66 2.43-.81 1-1.64 1.92-2.46 2.87L610 338c-.83.91-1.59 1.89-2.27 2.92-1 1.66 1.6 3.17 2.6 1.52.62-.95 1.32-1.84 2.09-2.67l2.6-3c1.64-1.92 3.45-3.76 4.44-6.11.06-.2.08-.4.06-.6a1.5 1.5 0 0 0-2.95-.2l-.01-.05Z"/></g><g fill="#30135A" style="animation:move-bottom 3s ease infinite;transform-box:fill-box" transform-origin="center"><path id="Vector_89" d="M78.68 306.18c5.75-3.3 11.65-6.31 17.14-10.06 1.59-1.08.09-3.68-1.51-2.59-5.49 3.75-11.4 6.75-17.15 10.06a1.5 1.5 0 0 0 1.52 2.59Z"/><path id="Vector_90" d="M79.13 304.15A252.49 252.49 0 0 0 65 279.43c-1.05-1.61-3.65-.11-2.59 1.52a251.09 251.09 0 0 1 14.1 24.71c.86 1.73 3.45.21 2.59-1.51h.03Z"/><path id="Vector_91" d="M63.22 278.77a39.07 39.07 0 0 0-9.3 4.58 1.5 1.5 0 0 0-.15 2.5 1.5 1.5 0 0 0 1.67.09c1.4-.93 2.84-1.77 4.33-2.53l1.08-.52.57-.26.29-.12c-.09 0-.09 0 0 0 .76-.31 1.52-.59 2.3-.85a1.5 1.5 0 1 0-.8-2.89h.01Z"/><path id="Vector_92" d="m50.74 243.23 2.44 41.42c.11 1.92 3.11 1.93 3 0l-2.44-41.42c-.11-1.92-3.11-1.93-3 0Z"/><path id="Vector_93" d="M96.36 294.07a245.7 245.7 0 0 1-14.74-23.95c-.94-1.68-3.54-.17-2.59 1.52a246.94 246.94 0 0 0 14.74 23.95c1.12 1.55 3.72.05 2.59-1.52Z"/><path id="Vector_94" d="M81.39 271.94c.58-.57 1.17-1.12 1.78-1.66l1-.81.52-.41c.06-.05.17-.13 0 0l.3-.22a22.73 22.73 0 0 1 4.26-2.57 1.52 1.52 0 0 0 .54-2.05 1.55 1.55 0 0 0-2.06-.54 30.35 30.35 0 0 0-8.45 6.18 1.5 1.5 0 0 0 0 2.12 1.53 1.53 0 0 0 2.12 0l-.01-.04Z"/><path id="Vector_95" d="m51.47 244.39 36.25 21.84a1.5 1.5 0 1 0 1.52-2.59L53 241.8a1.5 1.5 0 1 0-1.52 2.59h-.01Z"/></g><g style="animation:move-right 3s ease infinite;transform-box:fill-box" transform-origin="center"><path id="Vector_96" fill="#D736BC" d="M578 391a225.01 225.01 0 0 1 20 25.91c1.07 1.59 3.67.09 2.59-1.52a230.34 230.34 0 0 0-20.48-26.51c-1.3-1.43-3.42.7-2.12 2.12h.01Z"/><path id="Vector_97" fill="#D736BC" d="M511.07 350.39c17.22 4.95 33.66 12.28 48 23.12 4.47 3.4 8.73 7.07 12.75 11 1.39 1.35 3.51-.77 2.12-2.12a137.49 137.49 0 0 0-46.41-29.68c-5.13-2-10.37-3.72-15.66-5.24a1.5 1.5 0 0 0-.8 2.89v.03Z"/><path id="Vector_98" fill="#30135A" d="M587.76 218.82c7.46-.97 14.97-1.46 22.49-1.47a1.5 1.5 0 0 0 0-3c-7.52.01-15.03.5-22.49 1.47a1.53 1.53 0 0 0-1.5 1.5 1.51 1.51 0 0 0 1.5 1.5Z"/><path id="Vector_99" fill="#30135A" d="M510.3 248.79a175.3 175.3 0 0 1 44.17-22.23c4.47-1.51 9-2.83 13.59-4 1.87-.47 1.08-3.36-.8-2.89a179.75 179.75 0 0 0-46.35 18.79c-4.15 2.4-8.19 5-12.13 7.72-1.57 1.1-.07 3.7 1.52 2.59v.02Z"/></g><g style="animation:move-left 3s ease infinite;transform-box:fill-box" transform-origin="center"><path id="Vector_100" fill="#F5CB00" d="M134.77 407.16a127.07 127.07 0 0 0-14.89 14.37 1.5 1.5 0 0 0 2.12 2.12c4.56-5.19 9.54-10 14.89-14.37a1.5 1.5 0 0 0 0-2.12 1.54 1.54 0 0 0-2.12 0Z"/><path id="Vector_101" fill="#F5CB00" d="M218.12 377.29a131.1 131.1 0 0 0-52.33 11c-4.64 2.02-9.16 4.3-13.54 6.82a1.5 1.5 0 0 0 1.51 2.59 129.82 129.82 0 0 1 49.46-16.53c4.95-.57 9.92-.85 14.9-.84a1.5 1.5 0 0 0 0-3v-.04Z"/><path id="Vector_102" fill="#612CBF" d="M102.61 253.71c-1.71.44-3.41.9-5.11 1.4a1.5 1.5 0 1 0 .8 2.89c1.69-.49 3.4-1 5.11-1.4a1.5 1.5 0 0 0 1-1.84 1.52 1.52 0 0 0-1.84-1l.04-.05Z"/><path id="Vector_103" fill="#612CBF" d="M127.65 249.47c-6.69.58-13.33 1.58-19.89 3-1.88.41-1.09 3.3.8 2.89 6.3-1.37 12.67-2.34 19.09-2.91 1.91-.17 1.93-3.18 0-3v.02Z"/><path id="Vector_104" fill="#612CBF" d="M188.42 256.06a157.66 157.66 0 0 0-47.54-7.19 1.5 1.5 0 0 0 0 3 154.66 154.66 0 0 1 46.74 7.13c1.85.58 2.64-2.32.8-2.9v-.04Z"/></g><g style="animation:move-bottom 3s ease infinite;transform-box:fill-box" transform-origin="center"><path id="Vector_105" fill="#F5CB00" d="M486.51 468.55c.94 2.43 1.81 4.89 2.59 7.38a1.5 1.5 0 0 0 2.9-.8c-.79-2.49-1.65-4.95-2.6-7.38a1.5 1.5 0 1 0-2.89.8Z"/><path id="Vector_106" fill="#30135A" d="m236.21 487.55-.91 2.31c-.06.2-.06.4 0 .6 0 .2.06.39.17.55a1.5 1.5 0 0 0 2.06.54l.3-.23c.18-.19.32-.41.39-.66.29-.78.59-1.55.9-2.32.06-.2.06-.4 0-.59 0-.2-.07-.4-.18-.56-.2-.33-.52-.58-.89-.69a1.51 1.51 0 0 0-1.16.15l-.3.23c-.19.18-.32.42-.39.67h.01Z"/><path id="Vector_107" fill="#30135A" d="M248.53 464.55a122.82 122.82 0 0 0-9.26 16 1.55 1.55 0 0 0 .54 2.06 1.52 1.52 0 0 0 2.05-.54c2.68-5.56 5.77-10.9 9.26-16a1.5 1.5 0 1 0-2.59-1.52Z"/><path id="Vector_108" fill="#30135A" d="M281.39 432a122.62 122.62 0 0 0-21.9 18.77c-1.31 1.42.81 3.55 2.12 2.12a119.16 119.16 0 0 1 21.29-18.3c1.6-1.07.1-3.67-1.51-2.59Z"/><path id="Vector_109" fill="#F5CB00" d="M452.16 420.64a120.07 120.07 0 0 1 32.4 43.2c.79 1.76 3.37.24 2.59-1.51a123.1 123.1 0 0 0-32.84-43.82c-1.47-1.24-3.6.87-2.12 2.12l-.03.01Z"/></g><g fill="#D736BC" style="animation:scale 1s ease infinite;transform-box:fill-box" transform-origin="center"><path id="Vector_110" d="M513.36 537.57a20.3 20.3 0 0 1-16.36-9.64 18.48 18.48 0 0 1-2.67-9.74c.08-2.72 1.57-5.81 4.14-7a1.53 1.53 0 0 0 .69-1.7c-1.71-5.52-1.68-11.71 1.54-16.7a18.8 18.8 0 0 1 12.8-8.2 1.57 1.57 0 0 0 1.5-1.5c1.1-8.28 9-13.82 16.52-15.83a26.65 26.65 0 0 1 12.79-.58c3.61.92 6.91 2.79 9.55 5.42a25 25 0 0 1 6.69 11.55 1.52 1.52 0 0 0 2.2.9c7.28-4 12.65 7 13.61 12.58.49 3.26.16 6.59-.94 9.69-.84 2.58-2.11 5.56-4.45 7.12-1.59 1.07-.09 3.67 1.52 2.59 3-2 4.73-5.52 5.82-8.91 1.35-3.9 1.61-8.1.77-12.15-1.66-7.54-8.88-18.42-17.84-13.51l2.2.89c-2.3-8.38-8.48-16.11-17-18.71a28.4 28.4 0 0 0-14.53-.07c-4.55.98-8.8 3.04-12.4 6a20.86 20.86 0 0 0-7.5 13l1.5-1.5a22 22 0 0 0-15.18 9.38c-3.83 5.65-4 13-2.06 19.32l.69-1.69c-3 1.45-5.14 5.11-5.52 8.34a20.5 20.5 0 0 0 2.56 11.82 23.34 23.34 0 0 0 19.36 11.83c1.93.07 1.93-2.93 0-3Z"/><path id="Vector_111" d="m513.86 540.48 58.26-23.84c1.76-.72 1-3.62-.8-2.89l-58.25 23.83c-1.77.72-1 3.63.79 2.9Z"/></g><g style="animation:move-top 3s ease infinite;transform-box:fill-box" transform-origin="center"><path id="Vector_112" fill="#D736BC" d="M205.19 100.59a205.3 205.3 0 0 1 45.22 34c3.85 3.82 7.55 7.77 11.14 11.83 1.28 1.44 3.4-.68 2.12-2.13a219.28 219.28 0 0 0-42.8-37.71c-4.58-3.05-9.3-5.91-14.16-8.58-1.69-.94-3.21 1.65-1.52 2.59Z"/><path id="Vector_113" fill="#D736BC" d="M193 94.32a399.8 399.8 0 0 1 6.36 3.16 1.5 1.5 0 1 0 1.51-2.59c-2.1-1.08-4.22-2.13-6.36-3.16a1.54 1.54 0 0 0-2.05.54 1.51 1.51 0 0 0 .54 2v.05Z"/><path id="Vector_114" fill="#612CBF" d="M547.25 103c2.28-1.33 4.58-2.61 6.9-3.83a1.53 1.53 0 0 0 .54-2.06 1.55 1.55 0 0 0-2.06-.54 232.12 232.12 0 0 0-6.89 3.84 1.5 1.5 0 0 0 1.51 2.59Z"/><path id="Vector_115" fill="#612CBF" d="M512.83 127.42a230.33 230.33 0 0 1 27.27-20.15c1.63-1 .13-3.62-1.51-2.59a234.88 234.88 0 0 0-27.89 20.62c-1.46 1.26.67 3.37 2.13 2.12Z"/><path id="Vector_116" fill="#612CBF" d="M477 166.25a229.7 229.7 0 0 1 26.88-30.73c1.4-1.34-.73-3.46-2.12-2.13a234.38 234.38 0 0 0-27.35 31.35c-1.13 1.56 1.47 3.06 2.59 1.51Z"/></g></g></g></g><defs><clipPath id="clip0_1:2"><path fill="#fff" d="M0 0h685.24v548H0z"/></clipPath></defs></svg>