<svg width="686" height="548" viewBox="0 0 686 548" fill="none" xmlns="http://www.w3.org/2000/svg">

  <style>

#spiral1,
#spiral2,
#spiral3 {
  animation: spin 3.5s ease infinite;
  transform-origin: center;
  transform-box: fill-box;
}

#laptop,
#earth,
#wi-fi,
#cloud {
  animation: scale 1s ease infinite;
  transform-origin: center;
  transform-box: fill-box;
}

#stiks-move-top,
#smile {
  animation: move-top 3s ease infinite;
  transform-origin: center;
  transform-box: fill-box;
}

#stiks-move-right,
#lamp
 {
  animation: move-right 3s ease infinite;
  transform-origin: center;
  transform-box: fill-box;
}

#stiks-move-bottom,
#cursor {
  animation: move-bottom 3s ease infinite;
  transform-origin: center;
  transform-box: fill-box;
}

#stiks-move-left
 {
  animation: move-left 3s ease infinite;
  transform-origin: center;
  transform-box: fill-box;
}

@keyframes spin {
  0% {
    transform: rotate(0deg);
  }
  100% {
    transform: rotate(360deg);
  }
}

@keyframes scale {
  0% {
    transform: scale(1);
  }
  50% {
    transform: scale(1.05);
  }
  100% {
    transform: scale(1);
  }
}



@keyframes move-top {
  0% {
    transform: translateY(-10px);
  }
  50% {
    transform: translate(0);
  }
  100% {
    transform: translateY(-10px);
  }
}

@keyframes move-right {
  0% {
    transform: translate(0);
  }
  50% {
    transform: translate(-10px);
  }
  100% {
    transform: translate(0);
  }
}

@keyframes move-bottom {
  0% {
    transform: translate(0);
  }
  50% {
    transform: translateY(-10px);
  }
  100% {
    transform: translate(0);
  }
}

@keyframes move-left {
  0% {
    transform: translate(10px);
  }
  50% {
    transform: translate(0);
  }
  100% {
    transform: translate(10px);
  }
}

  </style>
<g id="bg 1" clip-path="url(#clip0_1:2)">
<g id="Layer 2">
<g id="vector draw">
<path id="Vector" d="M342.5 468.5C449.919 468.5 537 381.419 537 274C537 166.581 449.919 79.5 342.5 79.5C235.081 79.5 148 166.581 148 274C148 381.419 235.081 468.5 342.5 468.5Z" stroke="#D736BC" stroke-width="3" stroke-miterlimit="10"/>
<g id="lamp">
<path id="Vector_2" d="M575.31 69.21C584.88 55.9 584.72 38.69 591.74 24.27C595.061 17.3193 600.447 11.5639 607.163 7.79069C613.879 4.0175 621.596 2.4107 629.26 3.18999C644.08 4.76999 657.19 16.47 660.67 30.91C662.386 38.3258 661.796 46.0886 658.979 53.1601C656.163 60.2315 651.254 66.2742 644.91 70.48C633.2 78.37 618.21 81.56 608.4 92.18C607.205 93.4806 606.111 94.8714 605.13 96.34C604.06 97.95 606.65 99.46 607.72 97.86C611.81 91.73 618.09 87.73 624.52 84.43C631.17 81.02 638.16 78.23 644.52 74.29C651.236 70.3105 656.694 64.5192 660.27 57.58C663.836 50.4513 665.25 42.4388 664.34 34.52C662.42 18.94 650.58 5.62999 635.53 1.37999C620 -3.00001 602.61 3.35999 593.07 16.21C583 29.78 583.54 47.78 575.93 62.46C574.992 64.2808 573.919 66.0289 572.72 67.69C571.59 69.26 574.2 70.76 575.31 69.21Z" fill="#F5CB00"/>
<path id="Vector_3" d="M573.41 69.65C584.72 78.28 594.85 88.41 605.22 98.11C606.63 99.42 608.76 97.31 607.34 95.98C596.77 86.11 586.44 75.85 574.92 67.06C573.38 65.89 571.92 68.5 573.41 69.65V69.65Z" fill="#F5CB00"/>
<path id="Vector_4" d="M568.13 77.74C578.19 86.83 587.86 96.4 598.53 104.79C600.03 105.97 602.17 103.87 600.65 102.67C589.98 94.28 580.32 84.67 570.25 75.67C568.82 74.38 566.69 76.5 568.13 77.79V77.74Z" fill="#F5CB00"/>
<path id="Vector_5" d="M563.79 85.82C572.865 95.1964 582.806 103.694 593.48 111.2C595.06 112.32 596.56 109.72 595 108.61C584.543 101.238 574.803 92.8978 565.91 83.7C564.56 82.31 562.44 84.43 563.79 85.82V85.82Z" fill="#F5CB00"/>
<path id="Vector_6" d="M567.44 87.26C564.44 91.04 563 96.5 564.5 101.15C566.5 107.33 573.44 112.54 579.92 112.66C583.8 112.74 587.14 110.79 590.18 108.59C591.73 107.47 590.24 104.86 588.67 106C585.8 108.08 582.67 110 578.99 109.61C575.31 109.22 572.11 106.9 569.72 104.23C568.599 103.03 567.778 101.582 567.323 100.004C566.867 98.4259 566.791 96.7629 567.1 95.15C567.339 93.8926 567.743 92.6722 568.3 91.52C568.52 91.08 568.75 90.64 569.01 90.22C569.13 90.02 569.25 89.83 569.38 89.64C569.51 89.45 569.78 89.1 569.56 89.38C570.74 87.88 568.63 85.75 567.44 87.26Z" fill="#F5CB00"/>
<path id="Vector_7" d="M604.7 28.39C602.361 45.8901 595.893 62.5829 585.83 77.09C584.73 78.68 587.33 80.18 588.42 78.6C598.745 63.6328 605.354 46.4207 607.7 28.39C607.81 27.58 606.94 26.9 606.2 26.89C605.805 26.9001 605.43 27.0614 605.151 27.3405C604.871 27.6197 604.71 27.9954 604.7 28.39V28.39Z" fill="#F5CB00"/>
<path id="Vector_8" d="M635.76 48.8C620.35 58.9984 605.906 70.5868 592.61 83.42C591.22 84.76 593.34 86.88 594.73 85.54C607.838 72.8823 622.078 61.4512 637.27 51.39C638.88 50.33 637.37 47.73 635.76 48.8Z" fill="#F5CB00"/>
<path id="Vector_9" d="M607.58 24.3C608.16 27.57 609.06 31.11 612.16 32.88C613.487 33.6786 615.076 33.9195 616.58 33.55C618.025 33.0067 619.322 32.1335 620.37 31C621.17 30.27 623.12 28.7 623.84 30.3C624.088 31.0754 624.206 31.8862 624.19 32.7L624.42 35.93C624.53 37.47 624.51 39.17 625.42 40.51C625.865 41.1492 626.52 41.6123 627.271 41.8187C628.021 42.0252 628.821 41.9619 629.53 41.64C630.349 41.196 631.288 41.0277 632.21 41.16C633.029 41.3922 633.762 41.8579 634.32 42.5C635.66 43.98 636.13 46.07 636.61 47.95C636.742 48.3037 637.002 48.5951 637.338 48.7668C637.674 48.9386 638.062 48.9781 638.426 48.8777C638.79 48.7773 639.103 48.5443 639.304 48.2245C639.504 47.9047 639.578 47.5213 639.51 47.15C638.68 43.96 637.51 40.41 634.38 38.81C633.014 38.0745 631.42 37.885 629.92 38.28C629.48 38.41 628.32 39.15 627.92 38.87C627.52 38.59 627.54 37.13 627.51 36.67C627.37 34.76 627.31 32.81 627.05 30.91C627.016 30.1372 626.797 29.384 626.41 28.7139C626.024 28.0438 625.482 27.4765 624.83 27.06C624.123 26.742 623.349 26.5988 622.575 26.6423C621.8 26.6858 621.047 26.9148 620.38 27.31C618.98 28.02 618.04 29.31 616.75 30.18C615.19 31.18 613.43 30.5 612.35 29.1C611.15 27.52 610.84 25.39 610.5 23.5C610.16 21.61 607.27 22.4 607.61 24.29L607.58 24.3Z" fill="#F5CB00"/>
</g>
<g id="laptop">
<path id="Vector_10" d="M53.91 507.17C41.2203 497.627 29.4975 486.862 18.91 475.03C15.9567 471.763 13.09 468.43 10.31 465.03V467.15L57.44 429.15L70.82 418.37H68.71C79.71 429.79 91.9 439.94 102.89 451.37C105.89 454.51 108.89 457.75 111.61 461.14C112.83 462.63 114.94 460.5 113.73 459.02C103.73 446.73 91.61 436.37 80.16 425.5C76.99 422.5 73.86 419.43 70.83 416.28C70.5439 416.008 70.1645 415.857 69.77 415.857C69.3756 415.857 68.9962 416.008 68.71 416.28L21.58 454.28L8.20002 465C7.92852 465.286 7.77716 465.666 7.77716 466.06C7.77716 466.454 7.92852 466.834 8.20002 467.12C18.3325 479.607 29.6227 491.108 41.92 501.47C45.32 504.343 48.81 507.11 52.39 509.77C53.95 510.92 55.39 508.32 53.91 507.18V507.17Z" fill="#612CBF"/>
<path id="Vector_11" d="M19.43 469.38C30.94 478.78 41.7 489.05 52.98 498.72C54.44 499.97 56.57 497.86 55.1 496.6C43.82 486.93 33.1 476.66 21.56 467.26C20.07 466.05 17.94 468.16 19.43 469.38V469.38Z" fill="#612CBF"/>
<path id="Vector_12" d="M21.66 469.49C35.59 456.91 50.52 445.37 65.3 433.81L69.61 430.45H67.49C75.0033 438.743 82.4767 447.077 89.91 455.45C92.3 458.15 94.69 460.86 97.05 463.6L97.35 461.24C84.64 469 73.27 479.07 62 488.8C59 491.4 56 494.01 53 496.6C51.53 497.86 53.66 499.97 55.12 498.72C66.33 489.11 77.32 479.18 89.22 470.4C92.36 468.09 95.56 465.86 98.89 463.82C99.0855 463.701 99.2516 463.54 99.3761 463.348C99.5006 463.157 99.5803 462.939 99.6091 462.712C99.6379 462.486 99.6152 462.255 99.5427 462.038C99.4701 461.821 99.3496 461.624 99.19 461.46C90.41 451.27 81.35 441.31 72.34 431.32L69.63 428.32C69.3439 428.049 68.9644 427.897 68.57 427.897C68.1756 427.897 67.7961 428.049 67.51 428.32C55.32 437.77 43.22 447.32 31.36 457.22C27.36 460.54 23.41 463.88 19.56 467.35C18.12 468.65 20.25 470.77 21.68 469.48L21.66 469.49Z" fill="#612CBF"/>
<path id="Vector_13" d="M53.7 509.75C69.91 497.86 85.52 485.18 100.84 472.17C105.16 468.51 109.457 464.82 113.73 461.1C115.19 459.83 113.06 457.71 111.61 458.98C96.61 472.04 81.3 484.88 65.55 497.08C61.1433 500.5 56.69 503.86 52.19 507.16C50.65 508.29 52.19 510.89 53.7 509.75V509.75Z" fill="#612CBF"/>
<path id="Vector_14" d="M51.94 508.68C52.9462 514.878 54.6781 520.936 57.1 526.73C59.3076 532.457 61.9833 537.992 65.1 543.28C65.3077 543.608 65.6346 543.843 66.0119 543.935C66.3892 544.027 66.7876 543.97 67.1232 543.774C67.4587 543.578 67.7053 543.26 67.811 542.886C67.9167 542.513 67.8734 542.112 67.69 541.77C64.6166 536.594 61.984 531.168 59.82 525.55C57.4749 519.873 55.797 513.944 54.82 507.88C54.55 505.97 51.66 506.78 51.92 508.68H51.94Z" fill="#612CBF"/>
<path id="Vector_15" d="M67.17 543.82C87.87 528.68 108.17 512.99 127.79 496.47C133.123 491.97 138.387 487.4 143.58 482.76C145.02 481.47 142.9 479.35 141.46 480.64C122.56 497.58 102.68 513.43 82.46 528.74C76.9 532.953 71.3033 537.117 65.67 541.23C64.13 542.36 65.67 544.96 67.18 543.82H67.17Z" fill="#612CBF"/>
<path id="Vector_16" d="M112.27 461.48C123.91 465.16 133.54 473.79 141.81 482.48C143.14 483.88 145.26 481.76 143.93 480.36C135.3 471.3 125.21 462.44 113.07 458.6C111.22 458.02 110.43 460.91 112.27 461.49V461.48Z" fill="#612CBF"/>
<path id="Vector_17" d="M62.61 508.68C62.6086 511.099 63.0213 513.5 63.83 515.78C64.6778 517.953 65.7397 520.037 67 522C68 523.65 70.61 522.14 69.59 520.49C68.4618 518.755 67.5009 516.917 66.72 515C65.9838 512.981 65.6081 510.849 65.61 508.7C65.61 508.302 65.452 507.921 65.1707 507.639C64.8894 507.358 64.5078 507.2 64.11 507.2C63.7122 507.2 63.3307 507.358 63.0494 507.639C62.7681 507.921 62.61 508.302 62.61 508.7V508.68Z" fill="#612CBF"/>
<path id="Vector_18" d="M69.36 522.43L109.28 490.56L120.73 481.42C122.24 480.22 120.1 478.11 118.61 479.3L78.69 511.17L67.24 520.31C65.73 521.51 67.86 523.62 69.36 522.43V522.43Z" fill="#612CBF"/>
<path id="Vector_19" d="M110.28 474.17C112.93 476.64 115.84 478.86 118.41 481.42C118.694 481.685 119.07 481.829 119.459 481.822C119.848 481.815 120.218 481.658 120.493 481.383C120.768 481.108 120.925 480.738 120.932 480.349C120.939 479.96 120.795 479.584 120.53 479.3C117.96 476.74 115.06 474.52 112.4 472.05C112.116 471.785 111.74 471.641 111.351 471.648C110.962 471.654 110.592 471.812 110.317 472.087C110.042 472.362 109.885 472.732 109.878 473.121C109.871 473.51 110.015 473.886 110.28 474.17V474.17Z" fill="#612CBF"/>
<path id="Vector_20" d="M65 509.33C79.7213 496.365 95.4658 484.61 112.08 474.18C113.71 473.18 112.2 470.56 110.56 471.59C97.4859 479.822 84.9413 488.867 73 498.67C69.6 501.45 66.2667 504.297 63 507.21C61.54 508.49 63.67 510.6 65.12 509.33H65Z" fill="#612CBF"/>
<path id="Vector_21" d="M88.09 513C88.4492 513.364 88.7833 513.751 89.09 514.16L88.85 513.86C89.5427 514.741 90.1394 515.693 90.63 516.7C90.8258 517.037 91.145 517.284 91.52 517.39C91.7104 517.443 91.9095 517.458 92.1057 517.434C92.3019 517.41 92.4914 517.347 92.6633 517.25C92.8353 517.152 92.9862 517.021 93.1075 516.865C93.2288 516.709 93.318 516.531 93.37 516.34C93.4554 515.948 93.4024 515.538 93.22 515.18C92.8704 514.445 92.4624 513.74 92 513.07C91.4694 512.265 90.8597 511.514 90.18 510.83C89.8975 510.552 89.5167 510.395 89.12 510.395C88.7233 510.395 88.3425 510.552 88.06 510.83C87.7862 511.115 87.6333 511.495 87.6333 511.89C87.6333 512.285 87.7862 512.665 88.06 512.95L88.09 513Z" fill="#612CBF"/>
<path id="Vector_22" d="M90.11 513.13L103.11 502.83L100.76 502.53C101.814 504.147 103.067 505.625 104.49 506.93V504.81C100.519 508.64 96.185 512.077 91.55 515.07C89.93 516.07 91.43 518.7 93.07 517.66C97.9182 514.527 102.453 510.934 106.61 506.93C106.888 506.647 107.045 506.267 107.045 505.87C107.045 505.473 106.888 505.093 106.61 504.81C105.366 503.691 104.271 502.417 103.35 501.02C103.23 500.827 103.068 500.663 102.877 500.539C102.685 500.416 102.469 500.337 102.243 500.307C102.018 500.277 101.788 500.298 101.571 500.368C101.355 500.438 101.156 500.554 100.99 500.71L88 511C87.7215 511.283 87.5654 511.663 87.5654 512.06C87.5654 512.457 87.7215 512.837 88 513.12C88.2873 513.389 88.6663 513.539 89.06 513.539C89.4537 513.539 89.8327 513.389 90.12 513.12L90.11 513.13Z" fill="#612CBF"/>
</g>
<path id="Vector_23" d="M426.93 493.5C423.38 497.17 421.05 502.5 424.17 507.2C425.513 509.258 427.503 510.811 429.825 511.615C432.148 512.419 434.672 512.428 437 511.64C441.63 509.91 445.19 504.92 445.9 500.09C446.14 498.841 446.093 497.555 445.764 496.327C445.435 495.099 444.832 493.961 444 493C442.713 491.855 441.123 491.108 439.42 490.85C435.34 490.06 430.01 490.43 426.89 493.5C425.51 494.85 427.63 496.98 429.01 495.62C431.01 493.62 434.48 493.37 437.15 493.56C438.477 493.614 439.779 493.933 440.98 494.5C441.411 494.684 441.789 494.973 442.08 495.34C441.89 495.11 442.19 495.53 442.19 495.54C442.342 495.778 442.479 496.025 442.6 496.28C442.813 496.797 442.947 497.343 443 497.9C443.074 499.969 442.512 502.01 441.39 503.75C440.537 505.357 439.334 506.751 437.87 507.83C436.317 508.907 434.429 509.393 432.549 509.198C430.668 509.004 428.92 508.142 427.62 506.77C426.976 506.16 426.466 505.422 426.122 504.605C425.777 503.787 425.607 502.907 425.62 502.02C425.75 499.55 427.37 497.33 429.02 495.62C430.39 494.23 428.27 492.11 426.93 493.5Z" fill="#612CBF"/>
<path id="Vector_24" d="M140.35 139.64C134.08 139.45 127.51 141.38 123.9 146.85C120.99 151.27 120.21 157.94 124.41 161.85C129.12 166.24 136.95 165.19 142.47 163.11C147.47 161.21 153.06 157.03 152.08 151.01C151.18 145.47 146.08 139.96 140.35 139.63C138.43 139.52 138.43 142.52 140.35 142.63C144.35 142.86 147.71 146.75 148.84 150.34C149.166 151.152 149.292 152.031 149.204 152.901C149.117 153.772 148.821 154.609 148.34 155.34C146.911 157.353 144.942 158.92 142.66 159.86C138.5 161.74 132.27 163.08 128.02 160.86C123.77 158.64 123.8 153.36 125.83 149.56C128.67 144.24 134.67 142.56 140.35 142.72C142.29 142.7 142.28 139.7 140.35 139.64Z" fill="#612CBF"/>
<path id="Vector_25" d="M173.15 466.47C173.586 469.354 175.065 471.977 177.305 473.844C179.546 475.711 182.393 476.692 185.308 476.6C188.223 476.509 191.004 475.353 193.123 473.349C195.243 471.346 196.555 468.635 196.81 465.73C197.069 462.998 196.589 460.246 195.421 457.762C194.253 455.278 192.439 453.154 190.17 451.61C185.17 448.2 178.53 447.77 172.79 449.26C165.46 451.17 159.37 456.15 154 461.26C152.6 462.59 154.73 464.71 156.12 463.38C163.67 456.17 173.85 448.73 184.87 452.32C187.079 452.985 189.065 454.238 190.617 455.945C192.168 457.652 193.227 459.748 193.68 462.01C194.56 466.5 192.68 471.29 188.21 473.01C186.927 473.488 185.553 473.67 184.19 473.544C182.827 473.418 181.51 472.986 180.337 472.28C179.164 471.575 178.165 470.615 177.414 469.47C176.663 468.326 176.18 467.027 176 465.67C175.7 463.77 172.81 464.58 173.11 466.47H173.15Z" fill="#D736BC"/>
<path id="Vector_26" d="M472 54.35C471.449 55.4934 471.349 56.8021 471.72 58.0158C472.091 59.2295 472.905 60.2592 474 60.9C476.28 62.41 479.11 61.8 481.14 60.17C485.45 56.68 485.48 50.34 483.19 45.73C477.59 34.46 461.33 35.46 453.46 43.6C446.63 50.68 446.26 62.5 453.73 69.27C459.2 74.27 467.13 75.63 474.28 75.69C482.76 75.77 493.07 73.83 497.16 65.44C498 63.71 495.42 62.19 494.57 63.93C492.57 68.08 488.49 70.43 484.17 71.63C482.078 72.2186 479.922 72.5543 477.75 72.63C472.09 72.96 466.08 72.53 460.82 70.27C454.5 67.55 450.21 61.44 451.27 54.36C452.76 44.41 464 38 473.45 41.05C475.803 41.7963 477.865 43.2563 479.35 45.2273C480.836 47.1984 481.671 49.5828 481.74 52.05C481.795 53.2542 481.549 54.4532 481.026 55.5389C480.502 56.6247 479.717 57.5632 478.74 58.27C478.278 58.6147 477.721 58.8083 477.144 58.8244C476.568 58.8405 476.001 58.6783 475.52 58.36C475.103 58.1255 474.784 57.7494 474.621 57.2999C474.458 56.8504 474.461 56.3573 474.63 55.91C475.54 54.2 472.95 52.69 472.04 54.4L472 54.35Z" fill="#30135A"/>
<g id="earth">
<path id="Vector_27" d="M161.73 77.55C180.116 77.55 195.02 62.6456 195.02 44.26C195.02 25.8744 180.116 10.97 161.73 10.97C143.344 10.97 128.44 25.8744 128.44 44.26C128.44 62.6456 143.344 77.55 161.73 77.55Z" stroke="#F5CB00" stroke-miterlimit="10"/>
<path id="Vector_28" d="M148.62 12.93C142.12 15.528 136.559 20.0326 132.668 25.8514C128.777 31.6702 126.738 38.5305 126.82 45.53C127.083 53.5989 130.284 61.2942 135.82 67.17C141.228 72.806 148.289 76.5761 155.981 77.9351C163.673 79.2941 171.598 78.1716 178.61 74.73C184.13 72 189.55 67.91 192.41 62.34C195.761 55.8199 197.187 48.4805 196.52 41.18C195.632 33.1156 192.151 25.5571 186.6 19.64C178 10.49 165 7.83998 153.18 11.29C151.754 11.7101 150.352 12.2075 148.98 12.78C147.22 13.51 147.98 16.42 149.78 15.68C159.92 11.46 171.78 11.61 180.78 18.44C186.175 22.6765 190.158 28.4511 192.2 35C194.336 42.1275 194.104 49.7551 191.54 56.74C190.743 59.1116 189.637 61.3678 188.25 63.45C186.537 65.6338 184.484 67.528 182.17 69.06C176.35 73.2644 169.349 75.5187 162.17 75.5C147.33 75.39 133.48 65.24 130.41 50.5C127.81 38 134.22 24.61 145 18.12C146.653 17.1386 148.37 16.2699 150.14 15.52C151.91 14.77 150.38 12.19 148.62 12.93Z" fill="#F5CB00"/>
<path id="Vector_29" d="M131.31 58.7L178.53 39.87L192 34.52C193.77 33.81 193 30.91 191.2 31.62L143.94 50.45L130.52 55.81C128.74 56.51 129.52 59.41 131.31 58.7Z" fill="#F5CB00"/>
<path id="Vector_30" d="M148.49 15.14C155.42 30.06 161.74 45.26 167.86 60.53C169.56 64.74 171.23 68.97 172.86 73.19C173.56 74.97 176.46 74.19 175.75 72.4C169.67 56.92 163.44 41.49 156.75 26.26C154.89 22.0266 152.99 17.8166 151.05 13.63C150.24 11.88 147.65 13.4 148.46 15.14H148.49Z" fill="#F5CB00"/>
<path id="Vector_31" d="M148.49 13.63C146.172 18.4816 144.537 23.6304 143.63 28.93C142.637 33.844 142.264 38.8632 142.52 43.87C142.86 49.61 144.26 55.1 147.83 59.7C151.087 63.7221 155.011 67.1553 159.43 69.85C164.21 72.85 169.57 75.39 175.23 76.1C177.14 76.34 177.12 73.34 175.23 73.1C170.74 72.53 166.42 70.51 162.56 68.25C158.261 65.8079 154.387 62.6839 151.09 59C144.51 51.43 144.65 40.41 146.29 31C147.112 25.5129 148.726 20.1741 151.08 15.15C151.95 13.43 149.36 11.91 148.49 13.64V13.63Z" fill="#F5CB00"/>
<path id="Vector_32" d="M149.39 15.83C158.26 18.28 166.1 24.9 171.7 32C174.381 35.1682 176.328 38.8905 177.4 42.9C178.4 47.46 178.23 52.27 177.78 56.9C177.26 62.17 176.25 67.37 175.37 72.58C175.06 74.47 177.95 75.29 178.27 73.38C179.9 63.62 182.27 53.38 180.57 43.49C179.686 39.114 177.792 35.0049 175.04 31.49C172.101 27.5094 168.651 23.9322 164.78 20.85C160.495 17.2629 155.534 14.573 150.19 12.94C149.811 12.8471 149.411 12.9055 149.074 13.1028C148.738 13.3 148.491 13.6207 148.387 13.9967C148.283 14.3727 148.33 14.7744 148.517 15.1167C148.704 15.459 149.017 15.7148 149.39 15.83V15.83Z" fill="#F5CB00"/>
<path id="Vector_33" d="M131.08 32.6C137.708 33.7202 144.484 33.6321 151.08 32.34C157.577 31.0629 163.65 28.1745 168.74 23.94C171.868 21.4908 174.384 18.3481 176.09 14.76C176.87 13.01 174.28 11.49 173.5 13.25C170.83 19.19 165.39 23.34 159.72 26.25C154.05 29.16 148.15 30.1 142 30.3C138.628 30.4658 135.248 30.2646 131.92 29.7C130.03 29.35 129.22 32.24 131.12 32.6H131.08Z" fill="#F5CB00"/>
<path id="Vector_34" d="M155.12 74.76C158.52 68.23 164.37 62.49 171.44 60.12C178.193 57.8307 185.41 57.2568 192.44 58.45C194.33 58.81 195.14 55.92 193.24 55.56C189.422 54.8807 185.529 54.7293 181.67 55.11C177.819 55.3766 174.016 56.1223 170.35 57.33C162.69 60 156.27 66.11 152.55 73.25C151.65 74.96 154.24 76.47 155.14 74.76H155.12Z" fill="#F5CB00"/>
</g>
<path id="Vector_35" d="M647.4 516.75C649.32 513.98 650.85 509.75 647.97 507.04C645.63 504.83 641.97 505.04 639.22 506.29C637.492 507.165 636.021 508.473 634.952 510.088C633.882 511.703 633.251 513.568 633.12 515.5C632.69 520.26 635.49 524.5 639.34 527.03C643.99 530.11 649.45 530.34 653.88 526.76C657.55 523.76 659.58 519.01 659.97 514.38C660.189 512.15 659.86 509.9 659.012 507.826C658.163 505.752 656.82 503.917 655.1 502.48C652.893 500.802 650.404 499.532 647.75 498.73C644.832 497.696 641.713 497.354 638.64 497.73C634.02 498.36 630.5 501.31 628.31 505.36C625.42 510.68 625.36 516.93 627.13 522.62C627.71 524.45 630.6 523.62 630.03 521.82C627.89 514.97 628.77 505.61 635.7 501.7C639.54 499.53 644.59 500.65 648.44 502.17C652.29 503.69 655.52 505.97 656.63 510.02C658.42 516.58 653.89 527.15 645.96 526.47C643.886 526.204 641.92 525.389 640.266 524.109C638.611 522.829 637.329 521.131 636.55 519.19C636.05 517.727 635.951 516.156 636.265 514.642C636.578 513.128 637.291 511.725 638.33 510.58C639.99 508.84 642.9 507.72 645.03 508.65C645.452 508.799 645.823 509.067 646.096 509.422C646.369 509.777 646.534 510.204 646.57 510.65C646.76 512.32 645.71 513.98 644.81 515.28C643.71 516.87 646.31 518.37 647.4 516.79V516.75Z" fill="#F5CB00"/>
<g id="spiral1">
<path id="Vector_36" d="M31.57 213.84C27.78 212.84 23.47 211.78 21.01 208.47C20.5006 207.801 20.1315 207.036 19.9248 206.221C19.718 205.406 19.6778 204.557 19.8067 203.726C19.9355 202.895 20.2307 202.099 20.6746 201.385C21.1185 200.671 21.7019 200.053 22.39 199.57C23.7438 198.565 25.3658 197.984 27.0501 197.902C28.7344 197.82 30.405 198.241 31.85 199.11C35.2562 201.063 37.7673 204.266 38.85 208.04C40 211.61 40.85 216.04 39.85 219.69C39.0834 222.617 37.3757 225.21 34.99 227.07C30.77 230.35 25.59 230.36 20.91 228.07C16.4074 225.678 12.4718 222.346 9.37001 218.3C6.40308 214.938 4.53003 210.752 4.00001 206.3C3.44014 202.504 4.01779 198.628 5.66001 195.16C7.43595 191.842 10.1439 189.117 13.45 187.32C20.21 183.49 28.27 183.46 35.45 186.22C39.5574 187.813 43.3018 190.218 46.4597 193.289C49.6175 196.361 52.1242 200.038 53.83 204.1C56.92 211.94 56.09 221.35 50.4 227.81C48.77 229.66 51.48 232.38 53.11 230.52C56.0054 227.112 58.0002 223.033 58.9121 218.655C59.824 214.277 59.6239 209.741 58.33 205.46C55.76 196.64 49.21 189.14 41.24 184.71C33.12 180.19 23.24 178.88 14.58 182.49C6.14001 186 0.24001 193.44 9.78447e-06 202.74C-0.151524 208.968 1.90275 215.05 5.80001 219.91C9.50001 224.73 14.2 229.28 19.8 231.78C25.97 234.52 32.48 233.99 37.8 229.65C40.7604 227.166 42.817 223.774 43.65 220C44.65 215.66 43.74 210.4 42.25 206.26C40.8366 201.929 37.907 198.254 34 195.91C32.166 194.805 30.0826 194.18 27.9429 194.095C25.8032 194.009 23.6765 194.465 21.76 195.42C18.21 197.32 15.48 201.26 15.85 205.42C16.25 209.87 19.62 213.35 23.51 215.19C25.7625 216.199 28.1065 216.989 30.51 217.55C32.9 218.17 33.92 214.47 31.51 213.86L31.57 213.84Z" fill="#F5CB00"/>
</g>
<g id="spiral3">
<path id="Vector_37" d="M627.85 280.87C624.75 279.08 621.18 277.05 619.93 273.47C619.42 272.044 619.493 270.474 620.133 269.102C620.774 267.73 621.93 266.665 623.35 266.14C624.748 265.583 626.278 265.447 627.752 265.747C629.226 266.047 630.581 266.771 631.65 267.83C634.211 270.318 635.681 273.72 635.74 277.29C635.92 280.93 635.52 285.16 633.46 288.29C631.976 290.612 629.759 292.372 627.16 293.29C625.196 293.955 623.089 294.077 621.062 293.644C619.034 293.211 617.161 292.239 615.64 290.83C612.421 287.914 609.867 284.34 608.15 280.35C607.416 278.794 606.807 277.183 606.33 275.53C606.14 274.89 605.99 274.24 605.86 273.58C605.86 273.43 605.8 273.12 605.86 273.44C605.86 273.34 605.86 273.23 605.86 273.13C605.8 272.25 605.77 271.38 605.79 270.5C605.95 263.5 609.3 257.25 615.88 254.5C622.46 251.75 630.2 252.83 636.23 256.63C648.23 264.16 654.95 282.37 644.75 294.06C643.637 295.344 642.351 296.468 640.93 297.4C639.32 298.45 640.82 301.04 642.45 299.99C645.777 297.719 648.467 294.635 650.264 291.031C652.062 287.427 652.907 283.423 652.72 279.4C652.475 275.072 651.354 270.839 649.423 266.957C647.493 263.076 644.794 259.627 641.49 256.82C635.19 251.42 626.89 248.71 618.67 250.49C614.696 251.297 611.052 253.267 608.2 256.15C605.57 259.014 603.833 262.583 603.2 266.42C602.625 269.253 602.605 272.17 603.14 275.01C603.584 276.927 604.207 278.799 605 280.6C606.877 285.336 609.82 289.575 613.6 292.99C617.68 296.42 622.91 297.99 628.07 296.09C631.235 294.978 633.957 292.873 635.83 290.09C638.29 286.55 638.9 281.73 638.74 277.5C638.702 273.311 637.113 269.286 634.28 266.2C633.044 264.855 631.497 263.833 629.775 263.225C628.052 262.616 626.207 262.439 624.4 262.71C622.689 262.987 621.085 263.722 619.758 264.836C618.431 265.95 617.429 267.403 616.86 269.04C615.63 273.12 617.97 277.31 621.01 279.9C622.675 281.239 624.455 282.427 626.33 283.45C626.672 283.633 627.073 283.677 627.446 283.571C627.82 283.465 628.138 283.219 628.334 282.883C628.53 282.548 628.587 282.149 628.495 281.772C628.403 281.395 628.168 281.068 627.84 280.86L627.85 280.87Z" fill="#D736BC"/>
</g>
<g id="spiral2">
<path id="Vector_38" d="M336.46 519.45C333.57 518.73 330.24 517.93 328.46 515.35C328.103 514.855 327.848 514.294 327.709 513.7C327.571 513.105 327.551 512.489 327.653 511.887C327.754 511.285 327.974 510.71 328.3 510.193C328.625 509.677 329.05 509.231 329.55 508.88C330.576 508.111 331.81 507.67 333.091 507.613C334.371 507.556 335.64 507.886 336.73 508.56C339.244 510.051 341.091 512.449 341.89 515.26C342.7 517.79 343.36 520.96 342.7 523.59C342.161 525.912 340.845 527.979 338.97 529.45C337.51 530.558 335.762 531.224 333.934 531.368C332.106 531.511 330.276 531.127 328.66 530.26C325.272 528.515 322.301 526.059 319.95 523.06C317.702 520.571 316.256 517.463 315.8 514.14C315.33 511.287 315.709 508.359 316.89 505.72C318.184 503.195 320.195 501.108 322.67 499.72C325.176 498.331 327.962 497.52 330.822 497.347C333.682 497.174 336.545 497.643 339.2 498.72C342.261 499.889 345.058 501.657 347.427 503.92C349.797 506.183 351.691 508.896 353 511.9C355.45 517.77 354.91 524.9 350.65 529.9C349.39 531.35 351.5 533.48 352.77 532.02C354.944 529.425 356.43 526.324 357.09 523.004C357.751 519.683 357.565 516.25 356.55 513.02C354.376 506.376 349.718 500.829 343.55 497.54C337.34 494.16 329.91 493.28 323.33 496.09C317.03 498.79 312.69 504.47 312.58 511.42C312.516 516.181 314.147 520.81 317.18 524.48C319.952 528.229 323.607 531.234 327.82 533.23C330.026 534.267 332.487 534.637 334.901 534.296C337.315 533.955 339.577 532.917 341.41 531.31C346.57 526.87 346.69 519.51 344.41 513.53C343.28 510.314 341.024 507.614 338.06 505.93C336.668 505.136 335.099 504.705 333.497 504.675C331.895 504.645 330.311 505.018 328.89 505.76C327.553 506.464 326.437 507.524 325.665 508.823C324.894 510.122 324.498 511.609 324.52 513.12C324.75 516.51 327.31 519.2 330.26 520.6C332.006 521.379 333.825 521.982 335.69 522.4C337.56 522.87 338.36 519.97 336.49 519.5L336.46 519.45Z" fill="#30135A"/>
</g>
<path id="Vector_39" d="M130.35 333.76C127.98 335.62 127.5 339.33 127.79 342.12C128.15 345.57 129.6 349.12 132.65 351.02C136.02 353.11 141.01 353.02 143.55 349.71C146.32 346.08 144.73 340.61 142.87 336.92C140.58 332.39 134.95 330.4 130.65 333.53C130.316 333.739 130.075 334.068 129.977 334.449C129.878 334.831 129.929 335.235 130.12 335.58C130.32 335.91 130.639 336.15 131.012 336.251C131.384 336.351 131.781 336.304 132.12 336.12C132.753 335.595 133.507 335.237 134.314 335.078C135.121 334.919 135.955 334.964 136.74 335.21C138.009 335.604 139.082 336.465 139.74 337.62C140.645 339.17 141.287 340.86 141.64 342.62C142.117 344.168 142.054 345.833 141.46 347.34C140.14 349.96 136.63 349.92 134.34 348.62C133.334 348.039 132.513 347.187 131.97 346.16C131.334 345.011 130.92 343.752 130.75 342.45C130.75 342.27 130.69 341.97 130.67 341.65C130.645 341.254 130.645 340.856 130.67 340.46C130.664 339.843 130.738 339.228 130.89 338.63C131.028 337.564 131.572 336.593 132.41 335.92C132.691 335.639 132.849 335.257 132.849 334.86C132.849 334.462 132.691 334.081 132.41 333.8C132.132 333.54 131.768 333.392 131.388 333.385C131.007 333.377 130.638 333.511 130.35 333.76Z" fill="#D736BC"/>
<path id="Vector_40" d="M40.46 365.44C36.13 364.15 31.4 366.98 28.46 369.91C24.84 373.46 22.61 378.47 24.08 383.52C25.59 388.75 30.67 392.9 36.24 390.93C38.925 389.85 41.2605 388.051 42.99 385.73C44.99 383.27 46.99 380.43 47.55 377.24C47.9206 375.026 47.6211 372.752 46.69 370.71C46.0776 369.452 45.2115 368.334 44.1463 367.428C43.081 366.521 41.8395 365.844 40.5 365.44C38.67 364.82 37.88 367.71 39.7 368.33C41.2317 368.832 42.5536 369.827 43.4585 371.161C44.3633 372.495 44.8 374.091 44.7 375.7C44.64 378.17 43.22 380.37 41.83 382.32C40.5429 384.294 38.8775 385.993 36.93 387.32C36.0651 387.926 35.0585 388.299 34.0074 388.402C32.9564 388.505 31.8964 388.336 30.93 387.91C29.1445 386.93 27.7998 385.307 27.17 383.37C25.82 379.59 27.17 375.84 29.74 372.94C31.99 370.42 36.07 367.28 39.74 368.36C41.51 368.89 42.31 366 40.46 365.44Z" fill="#F5CB00"/>
<g id="wi-fi">
<path id="Vector_41" d="M358.1 38.3C356.223 37.7965 354.261 37.6909 352.34 37.99C350.584 38.518 349.055 39.6202 348 41.12C346.2 43.61 346.85 47.26 348.84 49.43C351.14 51.95 355.13 52.27 358.15 51.05C359.428 50.5576 360.599 49.8243 361.6 48.89C362.662 47.8148 363.307 46.397 363.42 44.89C363.76 41.6 360.99 39.3 358.13 38.35C357.753 38.2438 357.35 38.2889 357.007 38.4757C356.663 38.6626 356.406 38.9763 356.29 39.35C356.188 39.7344 356.241 40.1434 356.437 40.4893C356.634 40.8351 356.958 41.0903 357.34 41.2L357.8 41.37C357.42 41.22 358.01 41.48 358.09 41.52C358.506 41.7214 358.901 41.9625 359.27 42.24C359.04 42.07 359.42 42.37 359.43 42.37L359.64 42.57L359.9 42.84C359.9 42.84 360.13 43.13 359.99 42.94C360.275 43.2435 360.448 43.635 360.48 44.05C360.48 43.75 360.48 44.26 360.48 44.27C360.48 44.28 360.48 44.53 360.48 44.66C360.462 44.8802 360.422 45.098 360.36 45.31C360.27 45.7068 360.1 46.081 359.86 46.41C359.98 46.25 359.7 46.6 359.72 46.58L359.52 46.78C359.45 46.85 359 47.23 359.19 47.09C358.781 47.3891 358.35 47.6566 357.9 47.89C356.957 48.4549 355.879 48.7532 354.78 48.7532C353.681 48.7532 352.603 48.4549 351.66 47.89C350.945 47.3733 350.422 46.6351 350.17 45.79C350.101 45.557 350.048 45.3199 350.01 45.08C350.01 45.35 350.01 44.83 350.01 44.84C350.01 44.85 350.01 44.63 350.01 44.52C350.01 44.41 350.01 44.26 350.01 44.12C350.01 43.98 349.93 44.46 350.01 43.98C350.03 43.848 350.061 43.7176 350.1 43.59C350.1 43.54 350.29 43.11 350.2 43.3C350.773 42.2523 351.692 41.4359 352.8 40.99C353.493 40.7974 354.216 40.7397 354.93 40.82C355.75 40.8247 356.564 40.9459 357.35 41.18C359.16 41.76 360 38.86 358.1 38.3Z" fill="#D736BC"/>
<path id="Vector_42" d="M341.29 36C345.747 32.5242 351.238 30.6376 356.89 30.64C362.243 30.8177 367.328 33.0274 371.11 36.82C372.49 38.17 374.61 36.05 373.23 34.69C368.948 30.4553 363.246 27.9609 357.23 27.69C350.919 27.572 344.755 29.6031 339.75 33.45C338.21 34.59 339.75 37.19 341.26 36.04L341.29 36Z" fill="#D736BC"/>
<path id="Vector_43" d="M333.52 25.06C340.844 20.3067 349.494 18.0155 358.21 18.52C366.34 19.09 375.04 22.52 380.21 29.04C381.4 30.55 383.51 28.42 382.33 26.91C378 21.44 371.21 18 364.54 16.46C357.595 14.8859 350.361 15.134 343.54 17.18C339.471 18.4069 335.589 20.1833 332 22.46C330.38 23.46 331.88 26.09 333.52 25.06V25.06Z" fill="#D736BC"/>
<path id="Vector_44" d="M327.63 16.06C334.888 10.7783 343.493 7.65808 352.45 7.06001C360.904 6.62054 369.298 8.70935 376.56 13.06C380.699 15.5497 384.427 18.6668 387.61 22.3C388.89 23.74 391.01 21.62 389.73 20.17C383.802 13.399 376.099 8.42137 367.49 5.80001C358.647 3.25327 349.245 3.40648 340.49 6.24001C335.352 7.88411 330.503 10.3237 326.12 13.47C324.56 14.58 326.05 17.18 327.63 16.06Z" fill="#D736BC"/>
</g>
<path id="Vector_45" d="M251.05 56.79C249.346 56.2306 247.502 56.2686 245.822 56.8975C244.143 57.5265 242.728 58.7089 241.81 60.25C239.61 64.36 240.81 69.81 243.43 73.44C245.9 76.87 250.12 79.34 254.26 77.24C257.54 75.58 259.26 71.43 258.92 67.9C258.594 65.5616 257.69 63.3414 256.29 61.44C255.071 59.3815 253.239 57.7556 251.05 56.79C250.858 56.7307 250.657 56.7106 250.457 56.7307C250.257 56.7508 250.063 56.8108 249.887 56.9071C249.711 57.0035 249.556 57.1342 249.432 57.2915C249.307 57.4488 249.215 57.6295 249.162 57.823C249.108 58.0164 249.094 58.2186 249.12 58.4177C249.146 58.6167 249.212 58.8085 249.313 58.9816C249.415 59.1548 249.55 59.3059 249.711 59.4258C249.872 59.5458 250.055 59.6322 250.25 59.68C251.57 60.3289 252.679 61.3377 253.45 62.59C254.461 63.9262 255.239 65.4241 255.75 67.02C256.066 68.2594 256.047 69.5604 255.695 70.7901C255.344 72.0198 254.673 73.1344 253.75 74.02C251.34 76.13 248.37 74.67 246.54 72.6C245.403 71.3379 244.574 69.8298 244.118 68.1937C243.662 66.5577 243.591 64.8382 243.91 63.17C244.047 62.4506 244.355 61.7746 244.807 61.1986C245.26 60.6227 245.844 60.1637 246.51 59.86C247.698 59.3622 249.026 59.3089 250.25 59.71C252.09 60.29 252.87 57.4 251.05 56.79Z" fill="#30135A"/>
<g id="smile">
<path id="Vector_46" d="M632.16 181.31L653.78 197.19C655.33 198.34 656.83 195.74 655.29 194.6L633.68 178.72C632.12 177.58 630.62 180.18 632.16 181.31Z" fill="#612CBF"/>
<path id="Vector_47" d="M639.06 172.72L661 192C662.44 193.27 664.57 191.16 663.12 189.88L641.18 170.6C639.74 169.33 637.61 171.44 639.06 172.72Z" fill="#612CBF"/>
<path id="Vector_48" d="M642.44 216.37L637.8 218.16C636.74 218.57 636.15 220.31 637.45 220.9C643.417 223.596 650.028 224.538 656.51 223.617C662.993 222.696 669.08 219.95 674.06 215.7C683.85 207.14 687.66 192.47 683.69 180.15C681.45 173.15 676.6 166.61 669.35 164.41C667.5 163.85 666.71 166.75 668.56 167.31C674.33 169.05 678.35 174.31 680.38 179.74C682.338 185.203 682.748 191.1 681.564 196.781C680.379 202.462 677.648 207.705 673.67 211.93C669.494 216.143 664.175 219.039 658.37 220.26C651.872 221.718 645.077 221.034 639 218.31L638.64 221.06L643.28 219.26C645.06 218.57 644.28 215.67 642.48 216.37H642.44Z" fill="#612CBF"/>
</g>
<g id="star4">
<path id="Vector_49" d="M209.77 510C204.26 512.63 198.61 515 193.09 517.61C192.705 517.837 192.425 518.207 192.311 518.64C192.197 519.072 192.257 519.532 192.48 519.92C192.713 520.299 193.083 520.574 193.514 520.686C193.945 520.798 194.402 520.738 194.79 520.52C200.31 517.89 205.96 515.52 211.48 512.91C211.863 512.681 212.141 512.31 212.254 511.878C212.366 511.446 212.303 510.987 212.08 510.6C211.847 510.221 211.477 509.946 211.046 509.834C210.615 509.722 210.158 509.782 209.77 510V510Z" fill="#F5CB00"/>
<path id="Vector_50" d="M193 520.63C198.244 523.905 203.673 526.873 209.26 529.52C209.65 529.735 210.107 529.791 210.537 529.678C210.967 529.564 211.337 529.289 211.57 528.91C211.792 528.524 211.853 528.065 211.738 527.634C211.624 527.204 211.344 526.835 210.96 526.61C205.375 523.962 199.949 520.99 194.71 517.71C192.87 516.54 191.17 519.46 193 520.63V520.63Z" fill="#F5CB00"/>
<path id="Vector_51" d="M208.5 528.17C209.227 534.39 210.097 540.59 211.11 546.77C211.232 547.199 211.517 547.563 211.904 547.783C212.291 548.004 212.749 548.064 213.18 547.95C213.607 547.822 213.967 547.534 214.187 547.147C214.407 546.759 214.469 546.302 214.36 545.87C213.4 539.99 212.573 534.09 211.88 528.17C211.865 527.728 211.682 527.307 211.368 526.995C211.054 526.683 210.633 526.502 210.19 526.49C209.744 526.493 209.317 526.67 209.001 526.984C208.685 527.299 208.505 527.724 208.5 528.17V528.17Z" fill="#F5CB00"/>
<path id="Vector_52" d="M224.16 532.34C222.16 534.55 220.1 536.78 218.04 538.97C215.98 541.16 213.8 542.7 211.88 544.77C211.57 545.091 211.397 545.519 211.397 545.965C211.397 546.411 211.57 546.839 211.88 547.16C212.198 547.471 212.625 547.646 213.07 547.646C213.515 547.646 213.942 547.471 214.26 547.16C216.18 545.09 218.49 543.42 220.43 541.36C222.37 539.3 224.51 536.94 226.54 534.73C226.824 534.408 226.975 533.99 226.962 533.561C226.949 533.132 226.773 532.724 226.47 532.42C226.167 532.116 225.76 531.938 225.331 531.923C224.902 531.908 224.483 532.057 224.16 532.34V532.34Z" fill="#F5CB00"/>
<path id="Vector_53" d="M225.59 535.23C231.78 535.45 237.73 537.36 243.71 538.82C245.81 539.33 246.71 536.08 244.6 535.56C238.33 534.03 232.1 532.08 225.6 531.85C223.43 531.77 223.43 535.15 225.6 535.23H225.59Z" fill="#F5CB00"/>
<path id="Vector_54" d="M234.21 521.31C236.92 526.95 240.05 532.37 242.77 538.01C242.997 538.395 243.368 538.675 243.801 538.787C244.234 538.9 244.694 538.836 245.08 538.61C245.457 538.377 245.729 538.009 245.841 537.58C245.953 537.152 245.895 536.697 245.68 536.31C242.97 530.67 239.84 525.25 237.13 519.61C236.901 519.227 236.53 518.949 236.098 518.836C235.666 518.724 235.207 518.787 234.82 519.01C234.442 519.241 234.167 519.609 234.053 520.037C233.939 520.466 233.996 520.922 234.21 521.31V521.31Z" fill="#F5CB00"/>
<path id="Vector_55" d="M212.77 494.34C216.998 498.563 220.94 503.063 224.57 507.81C224.806 508.186 225.177 508.457 225.606 508.568C226.035 508.68 226.491 508.623 226.88 508.41C227.263 508.183 227.54 507.814 227.653 507.383C227.765 506.953 227.703 506.495 227.48 506.11C223.692 501.138 219.576 496.424 215.16 492C214.838 491.716 214.42 491.565 213.991 491.578C213.562 491.591 213.154 491.767 212.85 492.07C212.546 492.373 212.368 492.78 212.353 493.209C212.338 493.638 212.487 494.057 212.77 494.38V494.34Z" fill="#F5CB00"/>
<path id="Vector_56" d="M212.2 492.74C211.85 494.19 211.47 495.58 211.2 497.06C210.93 498.54 210.71 500.15 210.47 501.7C210 504.77 209.53 507.84 209.02 510.9C208.916 511.33 208.981 511.784 209.2 512.169C209.419 512.553 209.777 512.84 210.2 512.97C210.631 513.087 211.091 513.03 211.48 512.811C211.869 512.592 212.156 512.229 212.28 511.8C212.79 508.73 213.28 505.66 213.72 502.59C213.96 501.1 214.19 499.59 214.43 498.11C214.67 496.63 215.07 495.11 215.43 493.64C215.94 491.52 212.68 490.64 212.17 492.74H212.2Z" fill="#F5CB00"/>
<path id="Vector_57" d="M226.28 508.72C229.417 508.522 232.537 508.118 235.62 507.51C238.71 507 241.81 506.51 244.87 505.86C247 505.41 246.1 502.16 243.98 502.61C240.98 503.24 237.98 503.72 234.98 504.22C232.124 504.781 229.235 505.159 226.33 505.35C224.16 505.42 224.15 508.8 226.33 508.72H226.28Z" fill="#F5CB00"/>
<path id="Vector_58" d="M243.18 503.77C242.44 506.59 240.44 509.08 238.9 511.51L236.34 515.51C235.502 516.743 234.763 518.04 234.13 519.39C233.918 519.78 233.862 520.237 233.976 520.666C234.089 521.096 234.363 521.466 234.74 521.7C235.128 521.923 235.588 521.983 236.02 521.869C236.453 521.755 236.823 521.475 237.05 521.09C237.724 519.647 238.517 518.262 239.42 516.95L241.99 512.95C243.64 510.33 245.64 507.7 246.44 504.67C246.99 502.56 243.73 501.67 243.18 503.77Z" fill="#F5CB00"/>
</g>
<g id="star3">
<path id="Vector_59" d="M614.33 449C616 456.3 617.33 463.69 618.97 471C619.4 472.88 622.3 472.08 621.87 470.2C620.2 462.89 618.87 455.51 617.23 448.2C616.8 446.32 613.9 447.11 614.33 449Z" fill="#30135A"/>
<path id="Vector_60" d="M621.59 471.78C626.918 466.387 631.927 460.687 636.59 454.71C636.859 454.423 637.009 454.044 637.009 453.65C637.009 453.256 636.859 452.877 636.59 452.59C636.307 452.312 635.927 452.155 635.53 452.155C635.133 452.155 634.752 452.312 634.47 452.59C629.807 458.567 624.798 464.267 619.47 469.66C619.205 469.944 619.061 470.32 619.068 470.709C619.074 471.098 619.232 471.468 619.507 471.743C619.782 472.018 620.152 472.175 620.541 472.182C620.93 472.189 621.306 472.045 621.59 471.78V471.78Z" fill="#30135A"/>
<path id="Vector_61" d="M635.68 455.06C643.12 455.84 650.583 456.443 658.07 456.87C659.99 456.98 659.99 453.98 658.07 453.87C650.59 453.443 643.127 452.84 635.68 452.06C633.76 451.87 633.77 454.87 635.68 455.06Z" fill="#30135A"/>
<path id="Vector_62" d="M644.85 437.62C646.93 440.62 649.03 443.62 651.09 446.62C653.15 449.62 654.46 452.74 656.44 455.62C657.52 457.2 660.12 455.7 659.03 454.1C657.03 451.22 655.65 447.99 653.68 445.1C651.71 442.21 649.52 439.1 647.44 436.1C646.34 434.53 643.74 436.03 644.85 437.62Z" fill="#30135A"/>
<path id="Vector_63" d="M647.66 437C649.59 429.59 653.47 422.94 656.84 416.13C657.69 414.41 655.11 412.88 654.25 414.62C650.77 421.62 646.76 428.55 644.77 436.2C644.677 436.579 644.735 436.979 644.933 437.316C645.13 437.652 645.451 437.899 645.827 438.003C646.203 438.107 646.604 438.06 646.947 437.873C647.289 437.686 647.545 437.373 647.66 437V437Z" fill="#30135A"/>
<path id="Vector_64" d="M633.66 422.47C641.13 420.73 648.46 418.47 655.92 416.7C657.8 416.26 657.01 413.37 655.12 413.81C647.66 415.54 640.33 417.81 632.87 419.57C630.99 420.01 631.78 422.91 633.66 422.47Z" fill="#30135A"/>
<path id="Vector_65" d="M595.54 441C601.879 436.987 608.477 433.4 615.29 430.26C617.04 429.45 615.51 426.87 613.77 427.67C606.951 430.804 600.347 434.385 594 438.39C592.37 439.39 593.88 442.02 595.51 440.98L595.54 441Z" fill="#30135A"/>
<path id="Vector_66" d="M594 441.15C595.74 442.01 597.42 442.88 599.22 443.61C601.02 444.34 602.79 445.03 604.58 445.73C608.13 447.12 611.7 448.5 615.23 449.93C615.608 450.037 616.012 449.992 616.358 449.805C616.703 449.618 616.962 449.304 617.08 448.93C617.181 448.552 617.134 448.15 616.948 447.806C616.762 447.462 616.452 447.202 616.08 447.08C612.66 445.7 609.22 444.36 605.78 443.02C604.1 442.36 602.41 441.7 600.78 441.02C599.15 440.34 597.33 439.45 595.6 438.6C593.87 437.75 592.35 440.34 594.09 441.19L594 441.15Z" fill="#30135A"/>
<path id="Vector_67" d="M616.13 429.06C616.728 425.304 617.082 421.512 617.19 417.71C617.41 413.88 617.65 410.04 617.69 406.21C617.69 405.812 617.532 405.431 617.251 405.149C616.969 404.868 616.588 404.71 616.19 404.71C615.792 404.71 615.411 404.868 615.129 405.149C614.848 405.431 614.69 405.812 614.69 406.21C614.69 409.96 614.41 413.71 614.21 417.46C614.112 421.078 613.778 424.686 613.21 428.26C612.86 430.15 615.75 430.96 616.1 429.06H616.13Z" fill="#30135A"/>
<path id="Vector_68" d="M615.52 407C616.999 407.814 618.348 408.845 619.52 410.06C620.91 411.42 622.28 412.8 623.66 414.17L627.82 418.32C629.189 419.772 630.674 421.11 632.26 422.32C632.603 422.522 633.013 422.578 633.398 422.478C633.784 422.378 634.113 422.128 634.315 421.785C634.517 421.442 634.573 421.032 634.473 420.647C634.373 420.261 634.124 419.932 633.78 419.73C632.282 418.55 630.881 417.253 629.59 415.85L625.31 411.58C622.76 409.04 620.31 406.06 617.01 404.4C615.3 403.52 613.78 406.11 615.5 406.99L615.52 407Z" fill="#30135A"/>
</g>
<g id="star1">
<path id="Vector_69" d="M39.85 70.76C36.85 76.54 33.66 82.16 30.71 87.93C29.83 89.65 32.42 91.17 33.3 89.44C36.3 83.67 39.49 78.05 42.44 72.28C43.31 70.56 40.73 69.04 39.85 70.76V70.76Z" fill="#D736BC"/>
<path id="Vector_70" d="M32 90.35C38.6592 89.7351 45.2771 88.7334 51.82 87.35C53.71 86.96 52.91 84.07 51.02 84.46C44.7482 85.8032 38.4044 86.7848 32.02 87.4C30.11 87.56 30.09 90.57 32.02 90.4L32 90.35Z" fill="#D736BC"/>
<path id="Vector_71" d="M50.5 86.94C55.0134 91.6067 59.6267 96.1533 64.34 100.58C65.75 101.9 67.88 99.78 66.47 98.45C61.75 94.0166 57.1333 89.4733 52.62 84.82C51.27 83.43 49.15 85.56 50.5 86.94V86.94Z" fill="#D736BC"/>
<path id="Vector_72" d="M66.28 80.62C65.99 83.73 65.73 86.85 65.43 89.96C65.13 93.07 64.25 96 64 99C64 99.3978 64.158 99.7794 64.4393 100.061C64.7206 100.342 65.1022 100.5 65.5 100.5C65.8946 100.49 66.2703 100.329 66.5495 100.049C66.8286 99.7703 66.9899 99.3946 67 99C67.29 96 68.17 93 68.47 90C68.77 87 69.03 83.77 69.32 80.66C69.49 78.74 66.49 78.75 66.32 80.66L66.28 80.62Z" fill="#D736BC"/>
<path id="Vector_73" d="M68.74 81.76C74.23 77.85 80.6 75.56 86.74 72.87C86.9177 72.7748 87.0744 72.6449 87.2007 72.4878C87.3271 72.3308 87.4204 72.1499 87.4753 71.9559C87.5302 71.762 87.5454 71.559 87.52 71.359C87.4947 71.1591 87.4293 70.9663 87.3278 70.7921C87.2263 70.618 87.0907 70.4661 86.9292 70.3456C86.7677 70.225 86.5835 70.1382 86.3877 70.0904C86.1919 70.0426 85.9885 70.0348 85.7896 70.0674C85.5906 70.0999 85.4003 70.1722 85.23 70.28C79.11 72.97 72.73 75.28 67.23 79.17C66.9074 79.3765 66.6733 79.6958 66.5735 80.0656C66.4736 80.4354 66.5152 80.8292 66.69 81.17C66.8917 81.498 67.211 81.7367 67.5828 81.837C67.9546 81.9374 68.3506 81.892 68.69 81.71L68.74 81.76Z" fill="#D736BC"/>
<path id="Vector_74" d="M67.28 64.26C73.2 67.26 79.28 69.8 85.28 72.79C87 73.66 88.52 71.08 86.8 70.2C80.88 67.2 74.75 64.66 68.8 61.67C67.08 60.8 65.56 63.39 67.29 64.26H67.28Z" fill="#D736BC"/>
<path id="Vector_75" d="M32.15 55.47C38.4466 56.3216 44.6801 57.5877 50.81 59.26C51.1889 59.3529 51.5891 59.2945 51.9257 59.0972C52.2623 58.8999 52.5087 58.5793 52.6128 58.2033C52.7169 57.8273 52.6704 57.4256 52.4832 57.0833C52.296 56.741 51.9828 56.4852 51.61 56.37C45.2168 54.6407 38.7159 53.3378 32.15 52.47C31.35 52.36 30.65 53.24 30.65 53.97C30.6601 54.3646 30.8214 54.7403 31.1006 55.0194C31.3797 55.2986 31.7554 55.4599 32.15 55.47Z" fill="#D736BC"/>
<path id="Vector_76" d="M30.77 54.84C31.44 56.36 32.06 57.84 32.84 59.32L35.13 63.54C36.7 66.41 38.28 69.27 39.82 72.17C40.73 73.87 43.32 72.36 42.41 70.65C40.87 67.76 39.29 64.89 37.72 62.02C36.9533 60.62 36.19 59.2133 35.43 57.8C34.65 56.34 34.04 54.8 33.36 53.33C33.1559 52.9907 32.8275 52.7445 32.4447 52.6436C32.0618 52.5428 31.6547 52.5953 31.31 52.79C30.9746 52.9975 30.7316 53.3259 30.6311 53.7073C30.5307 54.0887 30.5804 54.4941 30.77 54.84Z" fill="#D736BC"/>
<path id="Vector_77" d="M52.53 58.77C54.9609 56.6711 57.2462 54.4092 59.37 52C61.61 49.61 63.87 47.23 66 44.75C66.2738 44.465 66.4267 44.0852 66.4267 43.69C66.4267 43.2948 66.2738 42.915 66 42.63C65.7175 42.3515 65.3367 42.1954 64.94 42.1954C64.5433 42.1954 64.1625 42.3515 63.88 42.63C61.75 45.11 59.49 47.49 57.25 49.88C55.1272 52.2995 52.8419 54.5714 50.41 56.68C50.1451 56.9643 50.0008 57.3404 50.0077 57.729C50.0145 58.1176 50.1719 58.4884 50.4468 58.7632C50.7216 59.0381 51.0924 59.1955 51.481 59.2023C51.8696 59.2092 52.2457 59.065 52.53 58.8V58.77Z" fill="#D736BC"/>
<path id="Vector_78" d="M63.81 43.8C65 46.72 65 50.09 65.27 53.2C65.57 56.52 65.59 60.03 66.41 63.27C66.89 65.14 69.78 64.35 69.3 62.47C68.9444 60.7734 68.7237 59.0514 68.64 57.32L68.2 52.45C67.92 49.32 67.93 45.93 66.7 43C66.5759 42.632 66.3174 42.3245 65.9762 42.1391C65.635 41.9537 65.2363 41.904 64.86 42C64.4855 42.1179 64.1717 42.3769 63.985 42.7223C63.7983 43.0677 63.7535 43.4721 63.86 43.85L63.81 43.8Z" fill="#D736BC"/>
</g>
<g id="star2">
<path id="Vector_79" d="M590.22 330.52C585.63 331.94 580.97 333.13 576.39 334.52C574.55 335.09 575.33 337.99 577.18 337.42C581.77 336 586.43 334.81 591.01 333.42C592.85 332.85 592.07 329.96 590.22 330.53V330.52Z" fill="#F5CB00"/>
<path id="Vector_80" d="M575.63 337.14C579.432 340.369 583.419 343.374 587.57 346.14C587.909 346.322 588.305 346.367 588.677 346.267C589.049 346.167 589.368 345.928 589.57 345.6C589.762 345.255 589.813 344.848 589.713 344.466C589.612 344.084 589.367 343.756 589.03 343.55C585.107 340.921 581.341 338.066 577.75 335C577.465 334.726 577.085 334.573 576.69 334.573C576.295 334.573 575.915 334.726 575.63 335C575.352 335.283 575.195 335.663 575.195 336.06C575.195 336.457 575.352 336.837 575.63 337.12V337.14Z" fill="#F5CB00"/>
<path id="Vector_81" d="M586.89 344.92C586.757 349.72 586.733 354.52 586.82 359.32C586.82 361.24 589.82 361.25 589.82 359.32C589.727 354.52 589.75 349.72 589.89 344.92C589.94 342.99 586.94 342.99 586.89 344.92Z" fill="#F5CB00"/>
<path id="Vector_82" d="M598.51 349.74C596.66 351.24 594.82 352.74 592.95 354.25C591.08 355.76 589.27 356.64 587.56 358.02C587.282 358.303 587.125 358.683 587.125 359.08C587.125 359.477 587.282 359.857 587.56 360.14C587.846 360.412 588.226 360.563 588.62 360.563C589.014 360.563 589.394 360.412 589.68 360.14C590.486 359.529 591.324 358.961 592.19 358.44C593.185 357.8 594.146 357.109 595.07 356.37C596.94 354.89 598.78 353.37 600.63 351.86C600.908 351.577 601.065 351.197 601.065 350.8C601.065 350.403 600.908 350.023 600.63 349.74C600.344 349.468 599.964 349.317 599.57 349.317C599.176 349.317 598.796 349.468 598.51 349.74Z" fill="#F5CB00"/>
<path id="Vector_83" d="M599.36 352.28C604.27 353.17 608.78 355.36 613.36 357.21C613.738 357.314 614.141 357.268 614.486 357.082C614.831 356.895 615.09 356.583 615.21 356.21C615.304 355.827 615.247 355.423 615.052 355.081C614.856 354.738 614.537 354.484 614.16 354.37C609.57 352.51 605.05 350.32 600.16 349.43C599.776 349.336 599.37 349.392 599.026 349.588C598.683 349.783 598.426 350.102 598.31 350.48C598.208 350.864 598.261 351.273 598.457 351.619C598.654 351.965 598.978 352.22 599.36 352.33V352.28Z" fill="#F5CB00"/>
<path id="Vector_84" d="M607.62 342.2C609.09 346.89 610.91 351.46 612.38 356.14C612.96 357.98 615.86 357.2 615.28 355.35C613.8 350.66 611.98 346.09 610.51 341.41C609.93 339.57 607.04 340.35 607.62 342.2Z" fill="#F5CB00"/>
<path id="Vector_85" d="M594 318.88C596.862 322.745 599.468 326.794 601.8 331C602.74 332.69 605.33 331.18 604.39 329.49C602.053 325.292 599.44 321.253 596.57 317.4C596.359 317.066 596.029 316.824 595.646 316.724C595.264 316.624 594.858 316.672 594.51 316.86C594.17 317.064 593.925 317.393 593.825 317.777C593.726 318.16 593.782 318.567 593.98 318.91L594 318.88Z" fill="#F5CB00"/>
<path id="Vector_86" d="M593.72 317.74C593.26 318.89 592.78 320 592.41 321.19C592.04 322.38 591.7 323.44 591.41 324.57C590.7 326.88 590 329.2 589.26 331.5C588.68 333.34 591.57 334.13 592.16 332.3C592.89 329.99 593.59 327.68 594.3 325.37C594.65 324.24 594.99 323.11 595.3 321.99C595.61 320.87 596.15 319.69 596.61 318.54C596.714 318.155 596.663 317.745 596.466 317.399C596.269 317.052 595.944 316.797 595.56 316.69C595.177 316.594 594.772 316.649 594.429 316.845C594.086 317.041 593.832 317.361 593.72 317.74V317.74Z" fill="#F5CB00"/>
<path id="Vector_87" d="M603.28 331.8C605.652 331.99 608.033 332.03 610.41 331.92C612.84 331.86 615.27 331.83 617.7 331.68C618.095 331.67 618.47 331.509 618.749 331.229C619.029 330.95 619.19 330.575 619.2 330.18C619.2 329.782 619.042 329.401 618.761 329.119C618.479 328.838 618.098 328.68 617.7 328.68C615.27 328.83 612.84 328.86 610.41 328.92C608.033 329.03 605.652 328.99 603.28 328.8C602.882 328.8 602.501 328.958 602.219 329.239C601.938 329.521 601.78 329.902 601.78 330.3C601.78 330.698 601.938 331.079 602.219 331.361C602.501 331.642 602.882 331.8 603.28 331.8V331.8Z" fill="#F5CB00"/>
<path id="Vector_88" d="M616.56 329.81C616.126 330.696 615.567 331.514 614.9 332.24C614.09 333.24 613.26 334.16 612.44 335.11L610 338C609.169 338.913 608.41 339.889 607.73 340.92C606.73 342.58 609.33 344.09 610.33 342.44C610.952 341.494 611.651 340.601 612.42 339.77L615.02 336.77C616.66 334.85 618.47 333.01 619.46 330.66C619.519 330.468 619.539 330.267 619.519 330.067C619.499 329.867 619.439 329.673 619.343 329.497C619.247 329.321 619.116 329.166 618.958 329.042C618.801 328.917 618.62 328.825 618.427 328.772C618.234 328.718 618.031 328.704 617.832 328.73C617.633 328.756 617.442 328.822 617.268 328.923C617.095 329.025 616.944 329.16 616.824 329.321C616.704 329.482 616.618 329.665 616.57 329.86L616.56 329.81Z" fill="#F5CB00"/>
</g>
<g id="cursor">
<path id="Vector_89" d="M78.68 306.18C84.43 302.88 90.33 299.87 95.82 296.12C97.41 295.04 95.91 292.44 94.31 293.53C88.82 297.28 82.91 300.28 77.16 303.59C76.8165 303.792 76.5672 304.121 76.4669 304.507C76.3666 304.892 76.4234 305.302 76.625 305.645C76.8266 305.988 77.1563 306.238 77.5417 306.338C77.9271 306.438 78.3365 306.382 78.68 306.18V306.18Z" fill="#30135A"/>
<path id="Vector_90" d="M79.13 304.15C74.8889 295.651 70.1714 287.398 65 279.43C63.95 277.82 61.35 279.32 62.41 280.95C67.5732 288.914 72.2808 297.163 76.51 305.66C77.37 307.39 79.96 305.87 79.1 304.15H79.13Z" fill="#30135A"/>
<path id="Vector_91" d="M63.22 278.77C59.9302 279.877 56.8027 281.417 53.92 283.35C53.7499 283.45 53.6012 283.582 53.4823 283.739C53.3634 283.897 53.2766 284.076 53.2269 284.267C53.1772 284.458 53.1656 284.656 53.1927 284.852C53.2199 285.047 53.2852 285.235 53.385 285.405C53.4848 285.575 53.6171 285.724 53.7744 285.843C53.9317 285.962 54.1109 286.048 54.3017 286.098C54.4925 286.148 54.6913 286.159 54.8866 286.132C55.0819 286.105 55.2699 286.04 55.44 285.94C56.831 285.01 58.277 284.165 59.77 283.41L60.85 282.89L61.42 282.63L61.71 282.51C61.62 282.51 61.62 282.51 61.71 282.51C62.47 282.2 63.23 281.92 64.01 281.66C64.205 281.612 64.3883 281.526 64.5493 281.406C64.7102 281.286 64.8454 281.135 64.9469 280.962C65.0484 280.788 65.1141 280.597 65.1402 280.398C65.1662 280.199 65.152 279.996 65.0985 279.803C65.0449 279.61 64.9531 279.429 64.8284 279.271C64.7038 279.114 64.5488 278.983 64.3727 278.887C64.1966 278.791 64.0029 278.731 63.8032 278.711C63.6035 278.691 63.4018 278.711 63.21 278.77H63.22Z" fill="#30135A"/>
<path id="Vector_92" d="M50.74 243.23L53.18 284.65C53.29 286.57 56.29 286.58 56.18 284.65L53.74 243.23C53.63 241.31 50.63 241.3 50.74 243.23V243.23Z" fill="#30135A"/>
<path id="Vector_93" d="M96.36 294.07C90.9935 286.375 86.0721 278.378 81.62 270.12C80.68 268.44 78.08 269.95 79.03 271.64C83.4844 279.897 88.4057 287.893 93.77 295.59C94.89 297.14 97.49 295.64 96.36 294.07Z" fill="#30135A"/>
<path id="Vector_94" d="M81.39 271.94C81.97 271.37 82.56 270.82 83.17 270.28L84.17 269.47L84.69 269.06C84.75 269.01 84.86 268.93 84.69 269.06L84.99 268.84C86.3118 267.83 87.7404 266.968 89.25 266.27C89.5893 266.066 89.8355 265.738 89.9364 265.355C90.0372 264.972 89.9847 264.565 89.79 264.22C89.5806 263.884 89.2505 263.641 88.8674 263.54C88.4844 263.44 88.0774 263.49 87.73 263.68C84.5767 265.235 81.7176 267.326 79.28 269.86C78.9991 270.141 78.8413 270.523 78.8413 270.92C78.8413 271.318 78.9991 271.699 79.28 271.98C79.565 272.254 79.9448 272.407 80.34 272.407C80.7352 272.407 81.115 272.254 81.4 271.98L81.39 271.94Z" fill="#30135A"/>
<path id="Vector_95" d="M51.47 244.39L87.72 266.23C88.0635 266.432 88.4729 266.488 88.8583 266.388C89.2437 266.288 89.5734 266.038 89.775 265.695C89.9766 265.352 90.0334 264.942 89.9331 264.557C89.8328 264.171 89.5835 263.842 89.24 263.64L53 241.8C52.6566 241.598 52.2471 241.542 51.8617 241.642C51.4763 241.742 51.1466 241.992 50.945 242.335C50.7434 242.678 50.6866 243.088 50.7869 243.473C50.8872 243.859 51.1366 244.188 51.48 244.39H51.47Z" fill="#30135A"/>
</g>
<g id="stiks-move-right">
<path id="Vector_96" d="M578 391C585.287 399.14 591.971 407.799 598 416.91C599.07 418.5 601.67 417 600.59 415.39C594.416 406.068 587.571 397.208 580.11 388.88C578.81 387.45 576.69 389.58 577.99 391H578Z" fill="#D736BC"/>
<path id="Vector_97" d="M511.07 350.39C528.29 355.34 544.73 362.67 559.07 373.51C563.545 376.908 567.803 380.582 571.82 384.51C573.21 385.86 575.33 383.74 573.94 382.39C560.631 369.467 544.844 359.371 527.53 352.71C522.4 350.71 517.16 348.99 511.87 347.47C511.491 347.377 511.091 347.435 510.754 347.633C510.418 347.83 510.171 348.151 510.067 348.527C509.963 348.903 510.01 349.304 510.197 349.647C510.384 349.989 510.697 350.245 511.07 350.36V350.39Z" fill="#D736BC"/>
<path id="Vector_98" d="M587.76 218.82C595.218 217.851 602.73 217.36 610.25 217.35C610.648 217.35 611.029 217.192 611.311 216.911C611.592 216.629 611.75 216.248 611.75 215.85C611.75 215.452 611.592 215.071 611.311 214.789C611.029 214.508 610.648 214.35 610.25 214.35C602.73 214.36 595.218 214.851 587.76 215.82C587.365 215.83 586.99 215.991 586.711 216.271C586.431 216.55 586.27 216.925 586.26 217.32C586.263 217.717 586.421 218.097 586.702 218.378C586.983 218.659 587.363 218.817 587.76 218.82V218.82Z" fill="#30135A"/>
<path id="Vector_99" d="M510.3 248.79C523.899 239.33 538.77 231.846 554.47 226.56C558.94 225.05 563.47 223.73 568.06 222.56C569.93 222.09 569.14 219.2 567.26 219.67C551.01 223.743 535.409 230.067 520.91 238.46C516.76 240.86 512.72 243.46 508.78 246.18C507.21 247.28 508.71 249.88 510.3 248.77V248.79Z" fill="#30135A"/>
</g>
<g id="stiks-move-left">
<path id="Vector_100" d="M134.77 407.16C129.424 411.537 124.445 416.343 119.88 421.53C119.615 421.814 119.471 422.19 119.478 422.579C119.485 422.968 119.642 423.338 119.917 423.613C120.192 423.888 120.562 424.045 120.951 424.052C121.34 424.059 121.716 423.915 122 423.65C126.565 418.463 131.544 413.657 136.89 409.28C137.171 408.999 137.329 408.618 137.329 408.22C137.329 407.822 137.171 407.441 136.89 407.16C136.604 406.888 136.224 406.737 135.83 406.737C135.436 406.737 135.056 406.888 134.77 407.16V407.16Z" fill="#F5CB00"/>
<path id="Vector_101" d="M218.12 377.29C200.106 377.323 182.292 381.067 165.79 388.29C161.153 390.31 156.633 392.587 152.25 395.11C151.922 395.318 151.687 395.645 151.595 396.022C151.503 396.399 151.56 396.798 151.756 397.133C151.952 397.469 152.27 397.715 152.644 397.821C153.017 397.927 153.418 397.883 153.76 397.7C168.959 388.901 185.785 383.278 203.22 381.17C208.166 380.6 213.141 380.32 218.12 380.33C218.518 380.33 218.899 380.172 219.181 379.891C219.462 379.609 219.62 379.228 219.62 378.83C219.62 378.432 219.462 378.051 219.181 377.769C218.899 377.488 218.518 377.33 218.12 377.33V377.29Z" fill="#F5CB00"/>
<path id="Vector_102" d="M102.61 253.71C100.9 254.15 99.2 254.61 97.5 255.11C97.3051 255.158 97.1217 255.244 96.9607 255.364C96.7998 255.484 96.6646 255.635 96.5631 255.808C96.4616 255.982 96.3959 256.173 96.3698 256.372C96.3438 256.571 96.358 256.774 96.4115 256.967C96.4651 257.16 96.5569 257.341 96.6816 257.499C96.8063 257.656 96.9612 257.787 97.1373 257.883C97.3134 257.979 97.5071 258.039 97.7068 258.059C97.9065 258.079 98.1082 258.059 98.3 258C99.99 257.51 101.7 257 103.41 256.6C103.784 256.484 104.097 256.227 104.284 255.883C104.471 255.54 104.516 255.137 104.41 254.76C104.29 254.389 104.032 254.079 103.69 253.893C103.347 253.706 102.946 253.659 102.57 253.76L102.61 253.71Z" fill="#612CBF"/>
<path id="Vector_103" d="M127.65 249.47C120.963 250.05 114.32 251.052 107.76 252.47C105.88 252.88 106.67 255.77 108.56 255.36C114.856 253.991 121.232 253.019 127.65 252.45C129.56 252.28 129.58 249.27 127.65 249.45V249.47Z" fill="#612CBF"/>
<path id="Vector_104" d="M188.42 256.06C173.034 251.247 157.001 248.822 140.88 248.87C140.482 248.87 140.101 249.028 139.819 249.309C139.538 249.591 139.38 249.972 139.38 250.37C139.38 250.768 139.538 251.149 139.819 251.431C140.101 251.712 140.482 251.87 140.88 251.87C156.733 251.837 172.498 254.242 187.62 259C189.47 259.58 190.26 256.68 188.42 256.1V256.06Z" fill="#612CBF"/>
</g>
<g id="stiks-move-bottom">
<path id="Vector_105" d="M486.51 468.55C487.45 470.98 488.32 473.44 489.1 475.93C489.206 476.315 489.461 476.641 489.808 476.838C490.154 477.035 490.565 477.086 490.95 476.98C491.335 476.874 491.661 476.619 491.858 476.272C492.055 475.926 492.106 475.515 492 475.13C491.21 472.64 490.35 470.18 489.4 467.75C489.352 467.555 489.266 467.372 489.146 467.211C489.026 467.05 488.875 466.915 488.702 466.813C488.528 466.712 488.337 466.646 488.138 466.62C487.939 466.594 487.736 466.608 487.543 466.662C487.35 466.715 487.169 466.807 487.011 466.932C486.854 467.056 486.723 467.211 486.627 467.387C486.531 467.563 486.471 467.757 486.451 467.957C486.431 468.157 486.451 468.358 486.51 468.55V468.55Z" fill="#F5CB00"/>
<path id="Vector_106" d="M236.21 487.55C235.9 488.31 235.6 489.08 235.3 489.86C235.245 490.056 235.245 490.264 235.3 490.46C235.306 490.655 235.365 490.845 235.47 491.01C235.672 491.354 236.003 491.604 236.389 491.705C236.775 491.806 237.185 491.75 237.53 491.55L237.83 491.32C238.012 491.135 238.146 490.909 238.22 490.66C238.51 489.88 238.81 489.11 239.12 488.34C239.175 488.147 239.175 487.943 239.12 487.75C239.111 487.551 239.049 487.357 238.94 487.19C238.742 486.855 238.424 486.608 238.05 486.5C237.856 486.447 237.654 486.432 237.455 486.458C237.256 486.484 237.064 486.549 236.89 486.65L236.59 486.88C236.402 487.064 236.268 487.296 236.2 487.55H236.21Z" fill="#30135A"/>
<path id="Vector_107" d="M248.53 464.55C245.046 469.643 241.95 474.992 239.27 480.55C239.08 480.897 239.03 481.304 239.13 481.687C239.231 482.07 239.474 482.401 239.81 482.61C240.155 482.805 240.562 482.857 240.945 482.756C241.328 482.656 241.656 482.409 241.86 482.07C244.538 476.51 247.634 471.162 251.12 466.07C251.322 465.727 251.378 465.317 251.278 464.932C251.178 464.546 250.928 464.217 250.585 464.015C250.242 463.813 249.832 463.757 249.447 463.857C249.061 463.957 248.732 464.207 248.53 464.55V464.55Z" fill="#30135A"/>
<path id="Vector_108" d="M281.39 432C273.377 437.373 266.026 443.674 259.49 450.77C258.18 452.19 260.3 454.32 261.61 452.89C267.961 445.972 275.107 439.83 282.9 434.59C284.5 433.52 283 430.92 281.39 432V432Z" fill="#30135A"/>
<path id="Vector_109" d="M452.16 420.64C462.976 429.755 472.096 440.711 479.1 453C481.1 456.52 482.92 460.133 484.56 463.84C485.35 465.6 487.93 464.08 487.15 462.33C481.325 449.232 473.257 437.252 463.31 426.93C460.454 423.973 457.45 421.163 454.31 418.51C452.84 417.27 450.71 419.38 452.19 420.63L452.16 420.64Z" fill="#F5CB00"/>
</g>
<g id="cloud">
<path id="Vector_110" d="M513.36 537.57C510.054 537.419 506.834 536.462 503.983 534.782C501.131 533.102 498.734 530.749 497 527.93C495.223 524.994 494.298 521.622 494.33 518.19C494.41 515.47 495.9 512.38 498.47 511.19C498.753 511.019 498.974 510.761 499.098 510.455C499.222 510.148 499.244 509.81 499.16 509.49C497.45 503.97 497.48 497.78 500.7 492.79C502.145 490.607 504.03 488.751 506.234 487.339C508.438 485.927 510.913 484.99 513.5 484.59C513.892 484.573 514.264 484.409 514.542 484.132C514.819 483.854 514.983 483.482 515 483.09C516.1 474.81 524 469.27 531.52 467.26C535.673 466.03 540.063 465.831 544.31 466.68C547.922 467.597 551.221 469.469 553.86 472.1C557.096 475.273 559.408 479.265 560.55 483.65C560.614 483.869 560.727 484.071 560.88 484.241C561.033 484.41 561.222 484.543 561.433 484.63C561.645 484.716 561.873 484.754 562.101 484.74C562.329 484.726 562.551 484.661 562.75 484.55C570.03 480.55 575.4 491.55 576.36 497.13C576.846 500.388 576.523 503.716 575.42 506.82C574.58 509.4 573.31 512.38 570.97 513.94C569.38 515.01 570.88 517.61 572.49 516.53C575.49 514.53 577.22 511.01 578.31 507.62C579.657 503.713 579.923 499.515 579.08 495.47C577.42 487.93 570.2 477.05 561.24 481.96L563.44 482.85C561.14 474.47 554.96 466.74 546.44 464.14C541.685 462.857 536.677 462.833 531.91 464.07C527.356 465.048 523.103 467.106 519.51 470.07C515.484 473.323 512.811 477.956 512.01 483.07L513.51 481.57C510.465 481.986 507.541 483.036 504.926 484.652C502.312 486.267 500.065 488.413 498.33 490.95C494.5 496.6 494.33 503.95 496.27 510.27L496.96 508.58C493.96 510.03 491.82 513.69 491.44 516.92C491.085 521.028 491.977 525.147 494 528.74C495.955 532.196 498.758 535.096 502.146 537.166C505.534 539.236 509.393 540.407 513.36 540.57C515.29 540.64 515.29 537.64 513.36 537.57Z" fill="#D736BC"/>
<path id="Vector_111" d="M513.86 540.48L572.12 516.64C573.88 515.92 573.12 513.02 571.32 513.75L513.07 537.58C511.3 538.3 512.07 541.21 513.86 540.48Z" fill="#D736BC"/>
</g>
<g id="stiks-move-top">
<path id="Vector_112" d="M205.19 100.59C221.76 109.782 236.978 121.224 250.41 134.59C254.26 138.41 257.96 142.36 261.55 146.42C262.83 147.86 264.95 145.74 263.67 144.29C251.106 129.91 236.718 117.233 220.87 106.58C216.29 103.527 211.57 100.667 206.71 98C205.02 97.06 203.5 99.65 205.19 100.59Z" fill="#D736BC"/>
<path id="Vector_113" d="M193 94.32C195.127 95.3533 197.247 96.4067 199.36 97.48C199.53 97.5878 199.721 97.6601 199.92 97.6926C200.118 97.7252 200.322 97.7174 200.518 97.6696C200.714 97.6217 200.898 97.535 201.059 97.4144C201.221 97.2938 201.356 97.142 201.458 96.9678C201.559 96.7937 201.625 96.6009 201.65 96.401C201.675 96.201 201.66 95.998 201.605 95.8041C201.55 95.6101 201.457 95.4292 201.331 95.2722C201.204 95.1151 201.048 94.9851 200.87 94.89C198.77 93.81 196.65 92.7567 194.51 91.73C194.164 91.5404 193.759 91.4906 193.377 91.5911C192.996 91.6916 192.668 91.9346 192.46 92.27C192.28 92.6099 192.236 93.0051 192.337 93.3762C192.437 93.7473 192.674 94.0667 193 94.27V94.32Z" fill="#D736BC"/>
<path id="Vector_114" d="M547.25 103C549.53 101.667 551.83 100.39 554.15 99.17C554.49 98.964 554.736 98.6339 554.837 98.2494C554.938 97.8649 554.885 97.4562 554.69 97.11C554.481 96.7739 554.15 96.5306 553.767 96.4302C553.384 96.3298 552.977 96.3798 552.63 96.57C550.31 97.81 548.02 99.09 545.74 100.41C545.412 100.618 545.177 100.945 545.085 101.322C544.993 101.699 545.05 102.098 545.246 102.433C545.442 102.769 545.76 103.015 546.134 103.121C546.507 103.227 546.908 103.183 547.25 103V103Z" fill="#612CBF"/>
<path id="Vector_115" d="M512.83 127.42C521.413 120.042 530.527 113.308 540.1 107.27C541.73 106.27 540.23 103.65 538.59 104.68C528.798 110.856 519.476 117.749 510.7 125.3C509.24 126.56 511.37 128.67 512.83 127.42Z" fill="#612CBF"/>
<path id="Vector_116" d="M477 166.25C485.03 155.229 494.026 144.945 503.88 135.52C505.28 134.18 503.15 132.06 501.76 133.39C491.732 143.009 482.579 153.5 474.41 164.74C473.28 166.3 475.88 167.8 477 166.25V166.25Z" fill="#612CBF"/>
</g>
</g>
</g>
</g>
<defs>
<clipPath id="clip0_1:2">
<rect width="685.24" height="548" fill="white"/>
</clipPath>
</defs>
</svg>
