<svg xmlns="http://www.w3.org/2000/svg" viewBox="0 0 685.24 548"><defs><style>.cls-1{fill:#d736bc;}.cls-2{fill:#612cbf;}.cls-3{fill:#f5cb00;}.cls-4{fill:#30135a;}.cls-5,.cls-6{fill:none;stroke-miterlimit:10;}.cls-5{stroke:#d736bc;stroke-width:3px;}.cls-6{stroke:#f5cb00;}</style></defs><g id="Layer_2" data-name="Layer 2"><g id="vector_draw" data-name="vector draw"><path class="cls-1" d="M205.19,100.59a205.33,205.33,0,0,1,45.22,34c3.85,3.82,7.55,7.77,11.14,11.83,1.28,1.44,3.4-.68,2.12-2.13a219.3,219.3,0,0,0-42.8-37.71Q214,102,206.71,98c-1.69-.94-3.21,1.65-1.52,2.59Z"/><path class="cls-1" d="M193,94.32q3.19,1.55,6.36,3.16a1.5,1.5,0,1,0,1.51-2.59q-3.15-1.62-6.36-3.16a1.54,1.54,0,0,0-2.05.54,1.52,1.52,0,0,0,.54,2Z"/><path class="cls-2" d="M547.25,103q3.42-2,6.9-3.83a1.53,1.53,0,0,0,.54-2.06,1.55,1.55,0,0,0-2.06-.54c-2.32,1.24-4.61,2.52-6.89,3.84a1.5,1.5,0,0,0,1.51,2.59Z"/><path class="cls-2" d="M512.83,127.42a230.33,230.33,0,0,1,27.27-20.15c1.63-1,.13-3.62-1.51-2.59A234.82,234.82,0,0,0,510.7,125.3c-1.46,1.26.67,3.37,2.13,2.12Z"/><path class="cls-2" d="M477,166.25a229.74,229.74,0,0,1,26.88-30.73c1.4-1.34-.73-3.46-2.12-2.13a234.37,234.37,0,0,0-27.35,31.35c-1.13,1.56,1.47,3.06,2.59,1.51Z"/><path class="cls-1" d="M578,391a225,225,0,0,1,20,25.91c1.07,1.59,3.67.09,2.59-1.52a230.35,230.35,0,0,0-20.48-26.51c-1.3-1.43-3.42.7-2.12,2.12Z"/><path class="cls-1" d="M511.07,350.39c17.22,4.95,33.66,12.28,48,23.12a135.13,135.13,0,0,1,12.75,11c1.39,1.35,3.51-.77,2.12-2.12a137.47,137.47,0,0,0-46.41-29.68c-5.13-2-10.37-3.72-15.66-5.24a1.5,1.5,0,0,0-.8,2.89Z"/><path class="cls-3" d="M134.77,407.16a127.14,127.14,0,0,0-14.89,14.37,1.5,1.5,0,0,0,2.12,2.12,127.14,127.14,0,0,1,14.89-14.37,1.5,1.5,0,0,0,0-2.12,1.54,1.54,0,0,0-2.12,0Z"/><path class="cls-3" d="M218.12,377.29a131.11,131.11,0,0,0-52.33,11,136.06,136.06,0,0,0-13.54,6.82,1.5,1.5,0,0,0,1.51,2.59,129.81,129.81,0,0,1,49.46-16.53,127.81,127.81,0,0,1,14.9-.84,1.5,1.5,0,0,0,0-3Z"/><path class="cls-2" d="M102.61,253.71c-1.71.44-3.41.9-5.11,1.4a1.5,1.5,0,1,0,.8,2.89c1.69-.49,3.4-1,5.11-1.4a1.5,1.5,0,0,0,1-1.84,1.52,1.52,0,0,0-1.84-1Z"/><path class="cls-2" d="M127.65,249.47a159.16,159.16,0,0,0-19.89,3c-1.88.41-1.09,3.3.8,2.89a153.81,153.81,0,0,1,19.09-2.91c1.91-.17,1.93-3.18,0-3Z"/><path class="cls-2" d="M188.42,256.06a157.67,157.67,0,0,0-47.54-7.19,1.5,1.5,0,0,0,0,3A154.66,154.66,0,0,1,187.62,259c1.85.58,2.64-2.32.8-2.9Z"/><path class="cls-4" d="M587.76,218.82a176.21,176.21,0,0,1,22.49-1.47,1.5,1.5,0,0,0,0-3,176.21,176.21,0,0,0-22.49,1.47,1.54,1.54,0,0,0-1.5,1.5,1.51,1.51,0,0,0,1.5,1.5Z"/><path class="cls-4" d="M510.3,248.79a175.28,175.28,0,0,1,44.17-22.23c4.47-1.51,9-2.83,13.59-4,1.87-.47,1.08-3.36-.8-2.89a179.76,179.76,0,0,0-46.35,18.79c-4.15,2.4-8.19,5-12.13,7.72-1.57,1.1-.07,3.7,1.52,2.59Z"/><path class="cls-3" d="M486.51,468.55c.94,2.43,1.81,4.89,2.59,7.38a1.5,1.5,0,0,0,2.9-.8c-.79-2.49-1.65-4.95-2.6-7.38a1.5,1.5,0,1,0-2.89.8Z"/><path class="cls-3" d="M452.16,420.64A120.06,120.06,0,0,1,479.1,453q3,5.28,5.46,10.84c.79,1.76,3.37.24,2.59-1.51a123.09,123.09,0,0,0-23.84-35.4,121.73,121.73,0,0,0-9-8.42c-1.47-1.24-3.6.87-2.12,2.12Z"/><path class="cls-4" d="M236.21,487.55c-.31.76-.61,1.53-.91,2.31a1.11,1.11,0,0,0,0,.6,1.08,1.08,0,0,0,.17.55,1.51,1.51,0,0,0,2.06.54l.3-.23a1.59,1.59,0,0,0,.39-.66c.29-.78.59-1.55.9-2.32a1.08,1.08,0,0,0,0-.59,1.12,1.12,0,0,0-.18-.56,1.53,1.53,0,0,0-.89-.69,1.51,1.51,0,0,0-1.16.15l-.3.23a1.47,1.47,0,0,0-.39.67Z"/><path class="cls-4" d="M248.53,464.55a122.81,122.81,0,0,0-9.26,16,1.55,1.55,0,0,0,.54,2.06,1.52,1.52,0,0,0,2.05-.54,122.16,122.16,0,0,1,9.26-16,1.5,1.5,0,1,0-2.59-1.52Z"/><path class="cls-4" d="M281.39,432a122.64,122.64,0,0,0-21.9,18.77c-1.31,1.42.81,3.55,2.12,2.12a119.15,119.15,0,0,1,21.29-18.3c1.6-1.07.1-3.67-1.51-2.59Z"/><path class="cls-3" d="M575.31,69.21c9.57-13.31,9.41-30.52,16.43-44.94A37.39,37.39,0,0,1,629.26,3.19c14.82,1.58,27.93,13.28,31.41,27.72a37.37,37.37,0,0,1-15.76,39.57c-11.71,7.89-26.7,11.08-36.51,21.7a34.38,34.38,0,0,0-3.27,4.16c-1.07,1.61,1.52,3.12,2.59,1.52,4.09-6.13,10.37-10.13,16.8-13.43,6.65-3.41,13.64-6.2,20-10.14a41.54,41.54,0,0,0,15.75-16.71,41.06,41.06,0,0,0,4.07-23.06c-1.92-15.58-13.76-28.89-28.81-33.14C620-3,602.61,3.36,593.07,16.21,583,29.78,583.54,47.78,575.93,62.46a41.17,41.17,0,0,1-3.21,5.23c-1.13,1.57,1.48,3.07,2.59,1.52Z"/><path class="cls-3" d="M573.41,69.65c11.31,8.63,21.44,18.76,31.81,28.46,1.41,1.31,3.54-.8,2.12-2.13-10.57-9.87-20.9-20.13-32.42-28.92-1.54-1.17-3,1.44-1.51,2.59Z"/><path class="cls-3" d="M568.13,77.74c10.06,9.09,19.73,18.66,30.4,27.05,1.5,1.18,3.64-.92,2.12-2.12-10.67-8.39-20.33-18-30.4-27-1.43-1.29-3.56.83-2.12,2.12Z"/><path class="cls-3" d="M563.79,85.82a207.1,207.1,0,0,0,29.69,25.38c1.58,1.12,3.08-1.48,1.52-2.59A203.86,203.86,0,0,1,565.91,83.7c-1.35-1.39-3.47.73-2.12,2.12Z"/><path class="cls-3" d="M567.44,87.26c-3,3.78-4.44,9.24-2.94,13.89,2,6.18,8.94,11.39,15.42,11.51,3.88.08,7.22-1.87,10.26-4.07,1.55-1.12.06-3.73-1.51-2.59-2.87,2.08-6,4-9.68,3.61s-6.88-2.71-9.27-5.38a10.43,10.43,0,0,1-2.62-9.08,14.6,14.6,0,0,1,1.2-3.63c.22-.44.45-.88.71-1.3.12-.2.24-.39.37-.58s.4-.54.18-.26c1.18-1.5-.93-3.63-2.12-2.12Z"/><path class="cls-3" d="M604.7,28.39a111.31,111.31,0,0,1-18.87,48.7c-1.1,1.59,1.5,3.09,2.59,1.51A114.43,114.43,0,0,0,607.7,28.39c.11-.81-.76-1.49-1.5-1.5a1.54,1.54,0,0,0-1.5,1.5Z"/><path class="cls-3" d="M635.76,48.8a302.63,302.63,0,0,0-43.15,34.62c-1.39,1.34.73,3.46,2.12,2.12a298.54,298.54,0,0,1,42.54-34.15c1.61-1.06.1-3.66-1.51-2.59Z"/><path class="cls-3" d="M607.58,24.3c.58,3.27,1.48,6.81,4.58,8.58a5.86,5.86,0,0,0,4.42.67A9.91,9.91,0,0,0,620.37,31c.8-.73,2.75-2.3,3.47-.7a7.42,7.42,0,0,1,.35,2.4l.23,3.23c.11,1.54.09,3.24,1,4.58a3.33,3.33,0,0,0,4.11,1.13,4.33,4.33,0,0,1,2.68-.48,4.38,4.38,0,0,1,2.11,1.34c1.34,1.48,1.81,3.57,2.29,5.45a1.51,1.51,0,0,0,2.9-.8c-.83-3.19-2-6.74-5.13-8.34a6.12,6.12,0,0,0-4.46-.53c-.44.13-1.6.87-2,.59s-.38-1.74-.41-2.2c-.14-1.91-.2-3.86-.46-5.76a4.82,4.82,0,0,0-2.22-3.85,4.84,4.84,0,0,0-4.45.25c-1.4.71-2.34,2-3.63,2.87-1.56,1-3.32.32-4.4-1.08-1.2-1.58-1.51-3.71-1.85-5.6s-3.23-1.1-2.89.79Z"/><path class="cls-2" d="M53.91,507.17a242.75,242.75,0,0,1-35-32.14q-4.43-4.9-8.6-10v2.12l47.13-38,13.38-10.78H68.71c11,11.42,23.19,21.57,34.18,33,3,3.14,6,6.38,8.72,9.77,1.22,1.49,3.33-.64,2.12-2.12-10-12.29-22.12-22.65-33.57-33.52-3.17-3-6.3-6.07-9.33-9.22a1.54,1.54,0,0,0-2.12,0l-47.13,38L8.2,465a1.54,1.54,0,0,0,0,2.12,255.16,255.16,0,0,0,33.72,34.35q5.1,4.31,10.47,8.3c1.56,1.15,3-1.45,1.52-2.59Z"/><path class="cls-2" d="M19.43,469.38c11.51,9.4,22.27,19.67,33.55,29.34,1.46,1.25,3.59-.86,2.12-2.12-11.28-9.67-22-19.94-33.54-29.34-1.49-1.21-3.62.9-2.13,2.12Z"/><path class="cls-2" d="M21.66,469.49c13.93-12.58,28.86-24.12,43.64-35.68l4.31-3.36H67.49q11.27,12.44,22.42,25c2.39,2.7,4.78,5.41,7.14,8.15l.3-2.36C84.64,469,73.27,479.07,62,488.8c-3,2.6-6,5.21-9,7.8-1.47,1.26.66,3.37,2.12,2.12,11.21-9.61,22.2-19.54,34.1-28.32,3.14-2.31,6.34-4.54,9.67-6.58a1.52,1.52,0,0,0,.3-2.36c-8.78-10.19-17.84-20.15-26.85-30.14l-2.71-3a1.54,1.54,0,0,0-2.12,0c-12.19,9.45-24.29,19-36.15,28.9-4,3.32-7.95,6.66-11.8,10.13-1.44,1.3.69,3.42,2.12,2.13Z"/><path class="cls-2" d="M53.7,509.75c16.21-11.89,31.82-24.57,47.14-37.58q6.48-5.49,12.89-11.07c1.46-1.27-.67-3.39-2.12-2.12-15,13.06-30.31,25.9-46.06,38.1q-6.61,5.13-13.36,10.08c-1.54,1.13,0,3.73,1.51,2.59Z"/><path class="cls-2" d="M51.94,508.68a80.06,80.06,0,0,0,5.16,18.05,111.73,111.73,0,0,0,8,16.55,1.5,1.5,0,0,0,2.59-1.51,107.37,107.37,0,0,1-7.87-16.22,79.33,79.33,0,0,1-5-17.67c-.27-1.91-3.16-1.1-2.9.8Z"/><path class="cls-2" d="M67.17,543.82c20.7-15.14,41-30.83,60.62-47.35q8-6.75,15.79-13.71c1.44-1.29-.68-3.41-2.12-2.12-18.9,16.94-38.78,32.79-59,48.1q-8.34,6.32-16.79,12.49c-1.54,1.13,0,3.73,1.51,2.59Z"/><path class="cls-2" d="M112.27,461.48c11.64,3.68,21.27,12.31,29.54,21,1.33,1.4,3.45-.72,2.12-2.12-8.63-9.06-18.72-17.92-30.86-21.76-1.85-.58-2.64,2.31-.8,2.89Z"/><path class="cls-2" d="M62.61,508.68a21.2,21.2,0,0,0,1.22,7.1A35.17,35.17,0,0,0,67,522c1,1.65,3.61.14,2.59-1.51A32.71,32.71,0,0,1,66.72,515a18.34,18.34,0,0,1-1.11-6.3,1.5,1.5,0,0,0-3,0Z"/><path class="cls-2" d="M69.36,522.43l39.92-31.87,11.45-9.14c1.51-1.2-.63-3.31-2.12-2.12L78.69,511.17l-11.45,9.14c-1.51,1.2.62,3.31,2.12,2.12Z"/><path class="cls-2" d="M110.28,474.17c2.65,2.47,5.56,4.69,8.13,7.25a1.5,1.5,0,0,0,2.12-2.12c-2.57-2.56-5.47-4.78-8.13-7.25a1.5,1.5,0,0,0-2.12,2.12Z"/><path class="cls-2" d="M65,509.33a364.27,364.27,0,0,1,47.08-35.15c1.63-1,.12-3.62-1.52-2.59A369.32,369.32,0,0,0,73,498.67q-5.1,4.17-10,8.54c-1.46,1.28.67,3.39,2.12,2.12Z"/><path class="cls-2" d="M88.09,513a11.28,11.28,0,0,1,1,1.16l-.24-.3a15.75,15.75,0,0,1,1.78,2.84,1.5,1.5,0,0,0,.89.69,1.5,1.5,0,0,0,1.85-1.05,1.74,1.74,0,0,0-.15-1.16A15.22,15.22,0,0,0,92,513.07a14.49,14.49,0,0,0-1.82-2.24,1.51,1.51,0,0,0-2.12,0,1.53,1.53,0,0,0,0,2.12Z"/><path class="cls-2" d="M90.11,513.13l13-10.3-2.35-.3a23.07,23.07,0,0,0,3.73,4.4v-2.12a85.3,85.3,0,0,1-12.94,10.26c-1.62,1-.12,3.63,1.52,2.59a89.67,89.67,0,0,0,13.54-10.73,1.51,1.51,0,0,0,0-2.12,19.62,19.62,0,0,1-3.26-3.79,1.54,1.54,0,0,0-2.36-.31L88,511a1.51,1.51,0,0,0,0,2.12,1.55,1.55,0,0,0,2.12,0Z"/><path class="cls-2" d="M426.93,493.5c-3.55,3.67-5.88,9-2.76,13.7A11.08,11.08,0,0,0,437,511.64c4.63-1.73,8.19-6.72,8.9-11.55A8.41,8.41,0,0,0,444,493a8.9,8.9,0,0,0-4.58-2.15c-4.08-.79-9.41-.42-12.53,2.65-1.38,1.35.74,3.48,2.12,2.12,2-2,5.47-2.25,8.14-2.06a9.91,9.91,0,0,1,3.83.94,2.81,2.81,0,0,1,1.1.84c-.19-.23.11.19.11.2a6.65,6.65,0,0,1,.41.74,5.66,5.66,0,0,1,.4,1.62,10.13,10.13,0,0,1-1.61,5.85,12.13,12.13,0,0,1-3.52,4.08,7.91,7.91,0,0,1-10.25-1.06,6.41,6.41,0,0,1-2-4.75c.13-2.47,1.75-4.69,3.4-6.4C430.39,494.23,428.27,492.11,426.93,493.5Z"/><path class="cls-2" d="M140.35,139.64c-6.27-.19-12.84,1.74-16.45,7.21-2.91,4.42-3.69,11.09.51,15,4.71,4.39,12.54,3.34,18.06,1.26,5-1.9,10.59-6.08,9.61-12.1-.9-5.54-6-11.05-11.73-11.38-1.92-.11-1.92,2.89,0,3,4,.23,7.36,4.12,8.49,7.71a5.42,5.42,0,0,1-.5,5,13.07,13.07,0,0,1-5.68,4.52c-4.16,1.88-10.39,3.22-14.64,1s-4.22-7.5-2.19-11.3c2.84-5.32,8.84-7,14.52-6.84C142.29,142.7,142.28,139.7,140.35,139.64Z"/><path class="cls-1" d="M173.15,466.47a11.92,11.92,0,0,0,23.66-.74,15.33,15.33,0,0,0-6.64-14.12c-5-3.41-11.64-3.84-17.38-2.35-7.33,1.91-13.42,6.89-18.79,12-1.4,1.33.73,3.45,2.12,2.12,7.55-7.21,17.73-14.65,28.75-11.06a12.73,12.73,0,0,1,8.81,9.69c.88,4.49-1,9.28-5.47,11A9.11,9.11,0,0,1,176,465.67c-.3-1.9-3.19-1.09-2.89.8Z"/><path class="cls-4" d="M472,54.35a5.05,5.05,0,0,0,2,6.55c2.28,1.51,5.11.9,7.14-.73,4.31-3.49,4.34-9.83,2.05-14.44-5.6-11.27-21.86-10.27-29.73-2.13-6.83,7.08-7.2,18.9.27,25.67,5.47,5,13.4,6.36,20.55,6.42,8.48.08,18.79-1.86,22.88-10.25.84-1.73-1.74-3.25-2.59-1.51-2,4.15-6.08,6.5-10.4,7.7a27.21,27.21,0,0,1-6.42,1c-5.66.33-11.67-.1-16.93-2.36-6.32-2.72-10.61-8.83-9.55-15.91C452.76,44.41,464,38,473.45,41.05a11.89,11.89,0,0,1,8.29,11,7.27,7.27,0,0,1-3,6.22,2.8,2.8,0,0,1-3.22.09,2,2,0,0,1-.89-2.45c.91-1.71-1.68-3.22-2.59-1.51Z"/><path class="cls-3" d="M647.4,516.75c1.92-2.77,3.45-7,.57-9.71-2.34-2.21-6-2-8.75-.75a11.17,11.17,0,0,0-6.1,9.21c-.43,4.76,2.37,9,6.22,11.53,4.65,3.08,10.11,3.31,14.54-.27,3.67-3,5.7-7.75,6.09-12.38a13.75,13.75,0,0,0-4.87-11.9,23.25,23.25,0,0,0-7.35-3.75,20,20,0,0,0-9.11-1c-4.62.63-8.14,3.58-10.33,7.63-2.89,5.32-2.95,11.57-1.18,17.26.58,1.83,3.47,1,2.9-.8-2.14-6.85-1.26-16.21,5.67-20.12,3.84-2.17,8.89-1.05,12.74.47s7.08,3.8,8.19,7.85c1.79,6.56-2.74,17.13-10.67,16.45a11.75,11.75,0,0,1-9.41-7.28,8.65,8.65,0,0,1,1.78-8.61c1.66-1.74,4.57-2.86,6.7-1.93a2.32,2.32,0,0,1,1.54,2c.19,1.67-.86,3.33-1.76,4.63-1.1,1.59,1.5,3.09,2.59,1.51Z"/><circle class="cls-5" cx="342.5" cy="274" r="194.5"/><circle class="cls-6" cx="161.73" cy="44.26" r="33.29"/><path class="cls-3" d="M148.62,12.93a34.67,34.67,0,0,0-21.8,32.6,33.13,33.13,0,0,0,9,21.64,36.82,36.82,0,0,0,42.79,7.56c5.52-2.73,10.94-6.82,13.8-12.39a38.61,38.61,0,0,0,4.11-21.16,37.48,37.48,0,0,0-9.92-21.54C178,10.49,165,7.84,153.18,11.29a41,41,0,0,0-4.2,1.49c-1.76.73-1,3.64.8,2.9,10.14-4.22,22-4.07,31,2.76A33.88,33.88,0,0,1,192.2,35a34.42,34.42,0,0,1-.66,21.74,28.44,28.44,0,0,1-3.29,6.71,25.89,25.89,0,0,1-6.08,5.61,34,34,0,0,1-20,6.44c-14.84-.11-28.69-10.26-31.76-25C127.81,38,134.22,24.61,145,18.12a42.68,42.68,0,0,1,5.14-2.6C151.91,14.77,150.38,12.19,148.62,12.93Z"/><path class="cls-3" d="M131.31,58.7l47.22-18.83L192,34.52c1.77-.71,1-3.61-.8-2.9L143.94,50.45l-13.42,5.36c-1.78.7-1,3.6.79,2.89Z"/><path class="cls-3" d="M148.49,15.14c6.93,14.92,13.25,30.12,19.37,45.39,1.7,4.21,3.37,8.44,5,12.66.7,1.78,3.6,1,2.89-.79-6.08-15.48-12.31-30.91-19-46.14q-2.79-6.35-5.7-12.63c-.81-1.75-3.4-.23-2.59,1.51Z"/><path class="cls-3" d="M148.49,13.63a58.32,58.32,0,0,0-4.86,15.3,59.93,59.93,0,0,0-1.11,14.94c.34,5.74,1.74,11.23,5.31,15.83a45.23,45.23,0,0,0,11.6,10.15c4.78,3,10.14,5.54,15.8,6.25,1.91.24,1.89-2.76,0-3-4.49-.57-8.81-2.59-12.67-4.85A45.67,45.67,0,0,1,151.09,59c-6.58-7.57-6.44-18.59-4.8-28a57.4,57.4,0,0,1,4.79-15.85c.87-1.72-1.72-3.24-2.59-1.51Z"/><path class="cls-3" d="M149.39,15.83C158.26,18.28,166.1,24.9,171.7,32a28.12,28.12,0,0,1,5.7,10.9c1,4.56.83,9.37.38,14-.52,5.27-1.53,10.47-2.41,15.68-.31,1.89,2.58,2.71,2.9.8,1.63-9.76,4-20,2.3-29.89a28.67,28.67,0,0,0-5.53-12,56.51,56.51,0,0,0-10.26-10.64,41.72,41.72,0,0,0-14.59-7.91,1.5,1.5,0,0,0-.8,2.89Z"/><path class="cls-3" d="M131.08,32.6a55.73,55.73,0,0,0,20-.26,39.54,39.54,0,0,0,17.66-8.4,25.64,25.64,0,0,0,7.35-9.18c.78-1.75-1.81-3.27-2.59-1.51-2.67,5.94-8.11,10.09-13.78,13S148.15,30.1,142,30.3a46.59,46.59,0,0,1-10.08-.6c-1.89-.35-2.7,2.54-.8,2.9Z"/><path class="cls-3" d="M155.12,74.76c3.4-6.53,9.25-12.27,16.32-14.64a43,43,0,0,1,21-1.67c1.89.36,2.7-2.53.8-2.89a42.33,42.33,0,0,0-11.57-.45,46.43,46.43,0,0,0-11.32,2.22c-7.66,2.67-14.08,8.78-17.8,15.92-.9,1.71,1.69,3.22,2.59,1.51Z"/><path class="cls-3" d="M31.57,213.84c-3.79-1-8.1-2.06-10.56-5.37a6.25,6.25,0,0,1,1.38-8.9,8.51,8.51,0,0,1,9.46-.46,15.09,15.09,0,0,1,7,8.93c1.15,3.57,2,8,1,11.65a13.79,13.79,0,0,1-4.86,7.38c-4.22,3.28-9.4,3.29-14.08,1A35.56,35.56,0,0,1,9.37,218.3a22.08,22.08,0,0,1-5.37-12,19.41,19.41,0,0,1,1.66-11.14,19.28,19.28,0,0,1,7.79-7.84c6.76-3.83,14.82-3.86,22-1.1A32.8,32.8,0,0,1,53.83,204.1c3.09,7.84,2.26,17.25-3.43,23.71-1.63,1.85,1.08,4.57,2.71,2.71a26.75,26.75,0,0,0,5.22-25.06c-2.57-8.82-9.12-16.32-17.09-20.75-8.12-4.52-18-5.83-26.66-2.22C6.14,186,.24,193.44,0,202.74A26.42,26.42,0,0,0,5.8,219.91c3.7,4.82,8.4,9.37,14,11.87,6.17,2.74,12.68,2.21,18-2.13A17.53,17.53,0,0,0,43.65,220c1-4.34.09-9.6-1.4-13.74A18.91,18.91,0,0,0,34,195.91a12.72,12.72,0,0,0-12.24-.49c-3.55,1.9-6.28,5.84-5.91,10,.4,4.45,3.77,7.93,7.66,9.77a38.57,38.57,0,0,0,7,2.36c2.39.62,3.41-3.08,1-3.69Z"/><path class="cls-1" d="M627.85,280.87c-3.1-1.79-6.67-3.82-7.92-7.4a5.75,5.75,0,0,1,3.42-7.33,7.73,7.73,0,0,1,8.3,1.69,13.5,13.5,0,0,1,4.09,9.46c.18,3.64-.22,7.87-2.28,11a12.36,12.36,0,0,1-6.3,5,11.52,11.52,0,0,1-11.52-2.46,30.31,30.31,0,0,1-7.49-10.48,32.22,32.22,0,0,1-1.82-4.82c-.19-.64-.34-1.29-.47-1.95,0-.15-.06-.46,0-.14,0-.1,0-.21,0-.31-.06-.88-.09-1.75-.07-2.63.16-7,3.51-13.25,10.09-16s14.32-1.67,20.35,2.13c12,7.53,18.72,25.74,8.52,37.43a18.44,18.44,0,0,1-3.82,3.34c-1.61,1.05-.11,3.64,1.52,2.59a23.6,23.6,0,0,0,10.27-20.59,32,32,0,0,0-11.23-22.58c-6.3-5.4-14.6-8.11-22.82-6.33a20.46,20.46,0,0,0-10.47,5.66,20,20,0,0,0-5,10.27,22.37,22.37,0,0,0-.06,8.59A31.55,31.55,0,0,0,605,280.6a33.16,33.16,0,0,0,8.6,12.39c4.08,3.43,9.31,5,14.47,3.1a15.58,15.58,0,0,0,7.76-6c2.46-3.54,3.07-8.36,2.91-12.59a16.94,16.94,0,0,0-4.46-11.3,11.17,11.17,0,0,0-9.88-3.49,9.61,9.61,0,0,0-7.54,6.33c-1.23,4.08,1.11,8.27,4.15,10.86a36,36,0,0,0,5.32,3.55,1.5,1.5,0,0,0,1.51-2.59Z"/><path class="cls-4" d="M336.46,519.45c-2.89-.72-6.22-1.52-8-4.1a4.61,4.61,0,0,1,1.09-6.47,6.38,6.38,0,0,1,7.18-.32,11.42,11.42,0,0,1,5.16,6.7c.81,2.53,1.47,5.7.81,8.33a10.45,10.45,0,0,1-3.73,5.86,9.57,9.57,0,0,1-10.31.81,26.46,26.46,0,0,1-8.71-7.2,16.69,16.69,0,0,1-4.15-8.92,14.74,14.74,0,0,1,1.09-8.42,14.42,14.42,0,0,1,5.78-6,19.21,19.21,0,0,1,16.53-1A24.65,24.65,0,0,1,353,511.9c2.45,5.87,1.91,13-2.35,18-1.26,1.45.85,3.58,2.12,2.12a20.17,20.17,0,0,0,3.78-19,27.09,27.09,0,0,0-13-15.48c-6.21-3.38-13.64-4.26-20.22-1.45-6.3,2.7-10.64,8.38-10.75,15.33a20.08,20.08,0,0,0,4.6,13.06,28.3,28.3,0,0,0,10.64,8.75,12.53,12.53,0,0,0,13.59-1.92c5.16-4.44,5.28-11.8,3-17.78a14.13,14.13,0,0,0-6.35-7.6,9.57,9.57,0,0,0-9.17-.17,8.18,8.18,0,0,0-4.37,7.36c.23,3.39,2.79,6.08,5.74,7.48a28.82,28.82,0,0,0,5.43,1.8c1.87.47,2.67-2.43.8-2.9Z"/><path class="cls-1" d="M130.35,333.76c-2.37,1.86-2.85,5.57-2.56,8.36.36,3.45,1.81,7,4.86,8.9,3.37,2.09,8.36,2,10.9-1.31,2.77-3.63,1.18-9.1-.68-12.79-2.29-4.53-7.92-6.52-12.22-3.39a1.54,1.54,0,0,0-.53,2.05,1.5,1.5,0,0,0,2,.54,4.93,4.93,0,0,1,4.62-.91,5.24,5.24,0,0,1,3,2.41,16.24,16.24,0,0,1,1.9,5,7.14,7.14,0,0,1-.18,4.72c-1.32,2.62-4.83,2.58-7.12,1.28a6.17,6.17,0,0,1-2.37-2.46,10.47,10.47,0,0,1-1.22-3.71c0-.18-.06-.48-.08-.8a9.45,9.45,0,0,1,0-1.19,7.12,7.12,0,0,1,.22-1.83,4.16,4.16,0,0,1,1.52-2.71,1.5,1.5,0,0,0,0-2.12A1.54,1.54,0,0,0,130.35,333.76Z"/><path class="cls-3" d="M40.46,365.44c-4.33-1.29-9.06,1.54-12,4.47-3.62,3.55-5.85,8.56-4.38,13.61,1.51,5.23,6.59,9.38,12.16,7.41a15.75,15.75,0,0,0,6.75-5.2c2-2.46,4-5.3,4.56-8.49a11.26,11.26,0,0,0-.86-6.53,10.14,10.14,0,0,0-6.19-5.27c-1.83-.62-2.62,2.27-.8,2.89a7.28,7.28,0,0,1,5,7.37c-.06,2.47-1.48,4.67-2.87,6.62a17.84,17.84,0,0,1-4.9,5,6.14,6.14,0,0,1-6,.59,8,8,0,0,1-3.76-4.54c-1.35-3.78,0-7.53,2.57-10.43,2.25-2.52,6.33-5.66,10-4.58C41.51,368.89,42.31,366,40.46,365.44Z"/><path class="cls-1" d="M358.1,38.3a13.95,13.95,0,0,0-5.76-.31A8.19,8.19,0,0,0,348,41.12c-1.8,2.49-1.15,6.14.84,8.31,2.3,2.52,6.29,2.84,9.31,1.62a10.69,10.69,0,0,0,3.45-2.16,6.37,6.37,0,0,0,1.82-4c.34-3.29-2.43-5.59-5.29-6.54a1.5,1.5,0,0,0-1.84,1,1.52,1.52,0,0,0,1.05,1.85l.46.17c-.38-.15.21.11.29.15a7.16,7.16,0,0,1,1.18.72c-.23-.17.15.13.16.13l.21.2.26.27s.23.29.09.1a1.83,1.83,0,0,1,.49,1.11c0-.3,0,.21,0,.22s0,.26,0,.39a3.25,3.25,0,0,1-.12.65,3,3,0,0,1-.5,1.1c.12-.16-.16.19-.14.17l-.2.2c-.07.07-.52.45-.33.31a9.94,9.94,0,0,1-1.29.8,6.07,6.07,0,0,1-6.24,0,4,4,0,0,1-1.49-2.1,5.62,5.62,0,0,1-.16-.71c0,.27,0-.25,0-.24s0-.21,0-.32,0-.26,0-.4-.08.34,0-.14a2.74,2.74,0,0,1,.09-.39c0-.05.19-.48.1-.29a5.16,5.16,0,0,1,2.6-2.31,5.61,5.61,0,0,1,2.13-.17,8.65,8.65,0,0,1,2.42.36C359.16,41.76,360,38.86,358.1,38.3Z"/><path class="cls-1" d="M341.29,36a25.35,25.35,0,0,1,15.6-5.36,21.07,21.07,0,0,1,14.22,6.18c1.38,1.35,3.5-.77,2.12-2.13a24.31,24.31,0,0,0-16-7,27.83,27.83,0,0,0-17.48,5.76c-1.54,1.14,0,3.74,1.51,2.59Z"/><path class="cls-1" d="M333.52,25.06a41,41,0,0,1,24.69-6.54c8.13.57,16.83,4,22,10.52,1.19,1.51,3.3-.62,2.12-2.13C378,21.44,371.21,18,364.54,16.46a41.31,41.31,0,0,0-21,.72A46.72,46.72,0,0,0,332,22.46c-1.62,1-.12,3.63,1.52,2.6Z"/><path class="cls-1" d="M327.63,16.06a47.57,47.57,0,0,1,24.82-9,42.61,42.61,0,0,1,24.11,6,46.68,46.68,0,0,1,11.05,9.24c1.28,1.44,3.4-.68,2.12-2.13A48.23,48.23,0,0,0,367.49,5.8a46.18,46.18,0,0,0-27,.44,51.61,51.61,0,0,0-14.37,7.23c-1.56,1.11-.07,3.71,1.51,2.59Z"/><path class="cls-4" d="M251.05,56.79a7.89,7.89,0,0,0-9.24,3.46c-2.2,4.11-1,9.56,1.62,13.19,2.47,3.43,6.69,5.9,10.83,3.8,3.28-1.66,5-5.81,4.66-9.34a14.21,14.21,0,0,0-2.63-6.46,11.47,11.47,0,0,0-5.24-4.65,1.5,1.5,0,1,0-.8,2.89,7.8,7.8,0,0,1,3.2,2.91,14.84,14.84,0,0,1,2.3,4.43,7.23,7.23,0,0,1-2,7c-2.41,2.11-5.38.65-7.21-1.42a11,11,0,0,1-2.63-9.43,4.58,4.58,0,0,1,2.6-3.31,5.36,5.36,0,0,1,3.74-.15C252.09,60.29,252.87,57.4,251.05,56.79Z"/><path class="cls-2" d="M632.16,181.31l21.62,15.88c1.55,1.15,3.05-1.45,1.51-2.59l-21.61-15.88c-1.56-1.14-3.06,1.46-1.52,2.59Z"/><path class="cls-2" d="M639.06,172.72,661,192c1.44,1.27,3.57-.84,2.12-2.12L641.18,170.6c-1.44-1.27-3.57.84-2.12,2.12Z"/><path class="cls-2" d="M642.44,216.37l-4.64,1.79c-1.06.41-1.65,2.15-.35,2.74a34.51,34.51,0,0,0,36.61-5.2c9.79-8.56,13.6-23.23,9.63-35.55-2.24-7-7.09-13.54-14.34-15.74-1.85-.56-2.64,2.34-.79,2.9,5.77,1.74,9.79,7,11.82,12.43a31.47,31.47,0,0,1-6.71,32.19,30.34,30.34,0,0,1-15.3,8.33A30.84,30.84,0,0,1,639,218.31l-.36,2.75,4.64-1.8c1.78-.69,1-3.59-.8-2.89Z"/><path class="cls-3" d="M209.77,510c-5.51,2.63-11.16,5-16.68,7.61a1.7,1.7,0,0,0-.61,2.31,1.72,1.72,0,0,0,2.31.6c5.52-2.63,11.17-5,16.69-7.61a1.7,1.7,0,0,0,.6-2.31,1.72,1.72,0,0,0-2.31-.6Z"/><path class="cls-3" d="M193,520.63a160,160,0,0,0,16.26,8.89,1.73,1.73,0,0,0,2.31-.61,1.69,1.69,0,0,0-.61-2.3,158.91,158.91,0,0,1-16.25-8.9c-1.84-1.17-3.54,1.75-1.71,2.92Z"/><path class="cls-3" d="M208.5,528.17q1.09,9.33,2.61,18.6a1.7,1.7,0,0,0,2.07,1.18,1.73,1.73,0,0,0,1.18-2.08q-1.44-8.82-2.48-17.7a1.74,1.74,0,0,0-1.69-1.68,1.7,1.7,0,0,0-1.69,1.68Z"/><path class="cls-3" d="M224.16,532.34c-2,2.21-4.06,4.44-6.12,6.63s-4.24,3.73-6.16,5.8a1.72,1.72,0,0,0,0,2.39,1.7,1.7,0,0,0,2.38,0c1.92-2.07,4.23-3.74,6.17-5.8s4.08-4.42,6.11-6.63a1.69,1.69,0,0,0-2.38-2.39Z"/><path class="cls-3" d="M225.59,535.23c6.19.22,12.14,2.13,18.12,3.59,2.1.51,3-2.74.89-3.26-6.27-1.53-12.5-3.48-19-3.71-2.17-.08-2.17,3.3,0,3.38Z"/><path class="cls-3" d="M234.21,521.31c2.71,5.64,5.84,11.06,8.56,16.7a1.69,1.69,0,0,0,2.31.6,1.72,1.72,0,0,0,.6-2.3c-2.71-5.64-5.84-11.06-8.55-16.7a1.7,1.7,0,0,0-2.31-.6,1.72,1.72,0,0,0-.61,2.3Z"/><path class="cls-3" d="M212.77,494.34a134.78,134.78,0,0,1,11.8,13.47,1.74,1.74,0,0,0,2.31.6,1.69,1.69,0,0,0,.6-2.3A140.62,140.62,0,0,0,215.16,492a1.69,1.69,0,0,0-2.39,2.38Z"/><path class="cls-3" d="M212.2,492.74c-.35,1.45-.73,2.84-1,4.32s-.49,3.09-.73,4.64c-.47,3.07-.94,6.14-1.45,9.2a1.74,1.74,0,0,0,1.18,2.07,1.7,1.7,0,0,0,2.08-1.17c.51-3.07,1-6.14,1.44-9.21.24-1.49.47-3,.71-4.48s.64-3,1-4.47c.51-2.12-2.75-3-3.26-.9Z"/><path class="cls-3" d="M226.28,508.72a71.66,71.66,0,0,0,9.34-1.21c3.09-.51,6.19-1,9.25-1.65,2.13-.45,1.23-3.7-.89-3.25-3,.63-6,1.11-9,1.61a68,68,0,0,1-8.65,1.13c-2.17.07-2.18,3.45,0,3.37Z"/><path class="cls-3" d="M243.18,503.77c-.74,2.82-2.74,5.31-4.28,7.74l-2.56,4a28.1,28.1,0,0,0-2.21,3.88,1.74,1.74,0,0,0,.61,2.31,1.7,1.7,0,0,0,2.31-.61,28.76,28.76,0,0,1,2.37-4.14l2.57-4c1.65-2.62,3.65-5.25,4.45-8.28.55-2.11-2.71-3-3.26-.9Z"/><path class="cls-4" d="M614.33,449c1.67,7.3,3,14.69,4.64,22,.43,1.88,3.33,1.08,2.9-.8-1.67-7.31-3-14.69-4.64-22-.43-1.88-3.33-1.09-2.9.8Z"/><path class="cls-4" d="M621.59,471.78a194.5,194.5,0,0,0,15-17.07,1.55,1.55,0,0,0,0-2.12,1.51,1.51,0,0,0-2.12,0,194.5,194.5,0,0,1-15,17.07,1.5,1.5,0,0,0,2.12,2.12Z"/><path class="cls-4" d="M635.68,455.06q11.16,1.17,22.39,1.81c1.92.11,1.92-2.89,0-3q-11.22-.64-22.39-1.81c-1.92-.19-1.91,2.81,0,3Z"/><path class="cls-4" d="M644.85,437.62c2.08,3,4.18,6,6.24,9s3.37,6.12,5.35,9c1.08,1.58,3.68.08,2.59-1.52-2-2.88-3.38-6.11-5.35-9s-4.16-6-6.24-9c-1.1-1.57-3.7-.07-2.59,1.52Z"/><path class="cls-4" d="M647.66,437c1.93-7.41,5.81-14.06,9.18-20.87.85-1.72-1.73-3.25-2.59-1.51-3.48,7-7.49,13.93-9.48,21.58a1.5,1.5,0,0,0,2.89.8Z"/><path class="cls-4" d="M633.66,422.47c7.47-1.74,14.8-4,22.26-5.77,1.88-.44,1.09-3.33-.8-2.89-7.46,1.73-14.79,4-22.25,5.76-1.88.44-1.09,3.34.79,2.9Z"/><path class="cls-4" d="M595.54,441a169.74,169.74,0,0,1,19.75-10.74c1.75-.81.22-3.39-1.52-2.59A170.42,170.42,0,0,0,594,438.39c-1.63,1-.12,3.63,1.51,2.59Z"/><path class="cls-4" d="M594,441.15c1.74.86,3.42,1.73,5.22,2.46s3.57,1.42,5.36,2.12c3.55,1.39,7.12,2.77,10.65,4.2a1.51,1.51,0,0,0,1.85-1,1.53,1.53,0,0,0-1-1.85c-3.42-1.38-6.86-2.72-10.3-4.06-1.68-.66-3.37-1.32-5-2s-3.45-1.57-5.18-2.42-3.25,1.74-1.51,2.59Z"/><path class="cls-4" d="M616.13,429.06a88,88,0,0,0,1.06-11.35c.22-3.83.46-7.67.5-11.5a1.5,1.5,0,0,0-3,0c0,3.75-.28,7.5-.48,11.25a83,83,0,0,1-1,10.8c-.35,1.89,2.54,2.7,2.89.8Z"/><path class="cls-4" d="M615.52,407a16.85,16.85,0,0,1,4,3.06c1.39,1.36,2.76,2.74,4.14,4.11l4.16,4.15a36.63,36.63,0,0,0,4.44,4,1.5,1.5,0,0,0,1.52-2.59,35.8,35.8,0,0,1-4.19-3.88l-4.28-4.27c-2.55-2.54-5-5.52-8.3-7.18-1.71-.88-3.23,1.71-1.51,2.59Z"/><path class="cls-1" d="M39.85,70.76c-3,5.78-6.19,11.4-9.14,17.17-.88,1.72,1.71,3.24,2.59,1.51,3-5.77,6.19-11.39,9.14-17.16.87-1.72-1.71-3.24-2.59-1.52Z"/><path class="cls-1" d="M32,90.35a172.49,172.49,0,0,0,19.82-3c1.89-.39,1.09-3.28-.8-2.89a167.39,167.39,0,0,1-19,2.94c-1.91.16-1.93,3.17,0,3Z"/><path class="cls-1" d="M50.5,86.94q6.77,7,13.84,13.64c1.41,1.32,3.54-.8,2.13-2.13q-7.08-6.65-13.85-13.63c-1.35-1.39-3.47.74-2.12,2.12Z"/><path class="cls-1" d="M66.28,80.62c-.29,3.11-.55,6.23-.85,9.34S64.25,96,64,99a1.5,1.5,0,0,0,1.5,1.5A1.54,1.54,0,0,0,67,99c.29-3,1.17-6,1.47-9s.56-6.23.85-9.34c.17-1.92-2.83-1.91-3,0Z"/><path class="cls-1" d="M68.74,81.76c5.49-3.91,11.86-6.2,18-8.89a1.5,1.5,0,1,0-1.51-2.59c-6.12,2.69-12.5,5-18,8.89a1.54,1.54,0,0,0-.54,2,1.51,1.51,0,0,0,2,.54Z"/><path class="cls-1" d="M67.28,64.26c5.92,3,12,5.54,18,8.53,1.72.87,3.24-1.71,1.52-2.59-5.92-3-12.05-5.54-18-8.53-1.72-.87-3.24,1.72-1.51,2.59Z"/><path class="cls-1" d="M32.15,55.47a144.47,144.47,0,0,1,18.66,3.79,1.5,1.5,0,0,0,.8-2.89,149.61,149.61,0,0,0-19.46-3.9c-.8-.11-1.5.77-1.5,1.5a1.54,1.54,0,0,0,1.5,1.5Z"/><path class="cls-1" d="M30.77,54.84c.67,1.52,1.29,3,2.07,4.48l2.29,4.22c1.57,2.87,3.15,5.73,4.69,8.63.91,1.7,3.5.19,2.59-1.52-1.54-2.89-3.12-5.76-4.69-8.63q-1.15-2.1-2.29-4.22c-.78-1.46-1.39-3-2.07-4.47a1.52,1.52,0,0,0-2.05-.54,1.54,1.54,0,0,0-.54,2.05Z"/><path class="cls-1" d="M52.53,58.77A70.81,70.81,0,0,0,59.37,52c2.24-2.39,4.5-4.77,6.63-7.25a1.53,1.53,0,0,0,0-2.12,1.51,1.51,0,0,0-2.12,0c-2.13,2.48-4.39,4.86-6.63,7.25a70.81,70.81,0,0,1-6.84,6.8,1.5,1.5,0,0,0,2.12,2.12Z"/><path class="cls-1" d="M63.81,43.8C65,46.72,65,50.09,65.27,53.2c.3,3.32.32,6.83,1.14,10.07.48,1.87,3.37,1.08,2.89-.8a32.83,32.83,0,0,1-.66-5.15l-.44-4.87c-.28-3.13-.27-6.52-1.5-9.45a1.54,1.54,0,0,0-1.84-1,1.51,1.51,0,0,0-1,1.85Z"/><path class="cls-3" d="M590.22,330.52c-4.59,1.42-9.25,2.61-13.83,4-1.84.57-1.06,3.47.79,2.9,4.59-1.42,9.25-2.61,13.83-4,1.84-.57,1.06-3.46-.79-2.89Z"/><path class="cls-3" d="M575.63,337.14a128.83,128.83,0,0,0,11.94,9,1.51,1.51,0,0,0,2-.54,1.53,1.53,0,0,0-.54-2.05A121.79,121.79,0,0,1,577.75,335a1.53,1.53,0,0,0-2.12,0,1.51,1.51,0,0,0,0,2.12Z"/><path class="cls-3" d="M586.89,344.92q-.2,7.2-.07,14.4c0,1.92,3,1.93,3,0q-.14-7.2.07-14.4c.05-1.93-2.95-1.93-3,0Z"/><path class="cls-3" d="M598.51,349.74c-1.85,1.5-3.69,3-5.56,4.51s-3.68,2.39-5.39,3.77a1.51,1.51,0,0,0,0,2.12,1.54,1.54,0,0,0,2.12,0,28.34,28.34,0,0,1,2.51-1.7,34.38,34.38,0,0,0,2.88-2.07c1.87-1.48,3.71-3,5.56-4.51a1.51,1.51,0,0,0,0-2.12,1.54,1.54,0,0,0-2.12,0Z"/><path class="cls-3" d="M599.36,352.28c4.91.89,9.42,3.08,14,4.93a1.52,1.52,0,0,0,1.85-1,1.54,1.54,0,0,0-1.05-1.84c-4.59-1.86-9.11-4.05-14-4.94a1.55,1.55,0,0,0-1.85,1.05,1.52,1.52,0,0,0,1.05,1.85Z"/><path class="cls-3" d="M607.62,342.2c1.47,4.69,3.29,9.26,4.76,13.94.58,1.84,3.48,1.06,2.9-.79-1.48-4.69-3.3-9.26-4.77-13.94-.58-1.84-3.47-1.06-2.89.79Z"/><path class="cls-3" d="M594,318.88A109.87,109.87,0,0,1,601.8,331c.94,1.69,3.53.18,2.59-1.51a108.93,108.93,0,0,0-7.82-12.09,1.56,1.56,0,0,0-2.06-.54,1.51,1.51,0,0,0-.53,2.05Z"/><path class="cls-3" d="M593.72,317.74c-.46,1.15-.94,2.26-1.31,3.45s-.71,2.25-1,3.38c-.71,2.31-1.41,4.63-2.15,6.93-.58,1.84,2.31,2.63,2.9.8.73-2.31,1.43-4.62,2.14-6.93.35-1.13.69-2.26,1-3.38s.85-2.3,1.31-3.45a1.51,1.51,0,0,0-1.05-1.85,1.53,1.53,0,0,0-1.84,1.05Z"/><path class="cls-3" d="M603.28,331.8a56.53,56.53,0,0,0,7.13.12c2.43-.06,4.86-.09,7.29-.24a1.54,1.54,0,0,0,1.5-1.5,1.5,1.5,0,0,0-1.5-1.5c-2.43.15-4.86.18-7.29.24a56.53,56.53,0,0,1-7.13-.12,1.5,1.5,0,0,0,0,3Z"/><path class="cls-3" d="M616.56,329.81a10.26,10.26,0,0,1-1.66,2.43c-.81,1-1.64,1.92-2.46,2.87L610,338a23.78,23.78,0,0,0-2.27,2.92c-1,1.66,1.6,3.17,2.6,1.52a20.65,20.65,0,0,1,2.09-2.67l2.6-3c1.64-1.92,3.45-3.76,4.44-6.11a1.5,1.5,0,1,0-2.89-.8Z"/><path class="cls-4" d="M78.68,306.18c5.75-3.3,11.65-6.31,17.14-10.06,1.59-1.08.09-3.68-1.51-2.59-5.49,3.75-11.4,6.75-17.15,10.06a1.5,1.5,0,0,0,1.52,2.59Z"/><path class="cls-4" d="M79.13,304.15A252.4,252.4,0,0,0,65,279.43c-1.05-1.61-3.65-.11-2.59,1.52a251.09,251.09,0,0,1,14.1,24.71c.86,1.73,3.45.21,2.59-1.51Z"/><path class="cls-4" d="M63.22,278.77a39.05,39.05,0,0,0-9.3,4.58,1.5,1.5,0,1,0,1.52,2.59,41.48,41.48,0,0,1,4.33-2.53l1.08-.52.57-.26.29-.12c-.09,0-.09,0,0,0,.76-.31,1.52-.59,2.3-.85a1.5,1.5,0,1,0-.8-2.89Z"/><path class="cls-4" d="M50.74,243.23l2.44,41.42c.11,1.92,3.11,1.93,3,0l-2.44-41.42c-.11-1.92-3.11-1.93-3,0Z"/><path class="cls-4" d="M96.36,294.07a245.72,245.72,0,0,1-14.74-23.95c-.94-1.68-3.54-.17-2.59,1.52a246.92,246.92,0,0,0,14.74,23.95c1.12,1.55,3.72.05,2.59-1.52Z"/><path class="cls-4" d="M81.39,271.94c.58-.57,1.17-1.12,1.78-1.66l1-.81.52-.41c.06-.05.17-.13,0,0l.3-.22a22.76,22.76,0,0,1,4.26-2.57,1.52,1.52,0,0,0,.54-2.05,1.55,1.55,0,0,0-2.06-.54,30.36,30.36,0,0,0-8.45,6.18,1.5,1.5,0,0,0,0,2.12,1.53,1.53,0,0,0,2.12,0Z"/><path class="cls-4" d="M51.47,244.39l36.25,21.84a1.5,1.5,0,0,0,1.52-2.59L53,241.8a1.5,1.5,0,0,0-1.52,2.59Z"/><path class="cls-1" d="M513.36,537.57A20.29,20.29,0,0,1,497,527.93a18.48,18.48,0,0,1-2.67-9.74c.08-2.72,1.57-5.81,4.14-7a1.53,1.53,0,0,0,.69-1.7c-1.71-5.52-1.68-11.71,1.54-16.7a18.8,18.8,0,0,1,12.8-8.2,1.57,1.57,0,0,0,1.5-1.5c1.1-8.28,9-13.82,16.52-15.83a26.65,26.65,0,0,1,12.79-.58,20.77,20.77,0,0,1,9.55,5.42,25,25,0,0,1,6.69,11.55,1.52,1.52,0,0,0,2.2.9c7.28-4,12.65,7,13.61,12.58a20.08,20.08,0,0,1-.94,9.69c-.84,2.58-2.11,5.56-4.45,7.12-1.59,1.07-.09,3.67,1.52,2.59,3-2,4.73-5.52,5.82-8.91a22.93,22.93,0,0,0,.77-12.15c-1.66-7.54-8.88-18.42-17.84-13.51l2.2.89c-2.3-8.38-8.48-16.11-17-18.71a28.4,28.4,0,0,0-14.53-.07,29.08,29.08,0,0,0-12.4,6,20.86,20.86,0,0,0-7.5,13l1.5-1.5a22,22,0,0,0-15.18,9.38c-3.83,5.65-4,13-2.06,19.32l.69-1.69c-3,1.45-5.14,5.11-5.52,8.34A20.5,20.5,0,0,0,494,528.74a23.34,23.34,0,0,0,19.36,11.83c1.93.07,1.93-2.93,0-3Z"/><path class="cls-1" d="M513.86,540.48l58.26-23.84c1.76-.72,1-3.62-.8-2.89l-58.25,23.83c-1.77.72-1,3.63.79,2.9Z"/></g></g></svg>