<svg xmlns="http://www.w3.org/2000/svg" viewBox="0 0 77.03 75.52"><g data-name="Layer 2"><path d="M0 36.23C.19 34.82.36 33.4.59 32a36.89 36.89 0 0 1 6.14-15.19A38.25 38.25 0 0 1 42.37.19a37.18 37.18 0 0 1 19.09 7.42A38.64 38.64 0 0 1 76.65 44c-1.5 10.84-6.84 19.39-15.4 26A35.74 35.74 0 0 1 51 75.33c-1.69.58-2.84-.23-2.85-2v-10a11.27 11.27 0 0 0-.82-4.88 29.46 29.46 0 0 0-1.53-2.57c1.41-.26 2.93-.46 4.41-.84 3.93-1 7.44-2.77 9.82-6.23a18.39 18.39 0 0 0 2.89-8.41 22.73 22.73 0 0 0-.09-6.84 14 14 0 0 0-3.26-6.7 1 1 0 0 1-.21-1.07 13.28 13.28 0 0 0-.49-9.37.89.89 0 0 0-.61-.4 6.58 6.58 0 0 0-3.78.75c-2 .92-3.82 2-5.75 2.94a1.86 1.86 0 0 1-1.17.19 36.21 36.21 0 0 0-18 0 1.61 1.61 0 0 1-1.17-.22 27.61 27.61 0 0 0-7.84-3.55h-.14c-1.8-.38-2.12-.18-2.63 1.59a13.19 13.19 0 0 0 0 8.24 1 1 0 0 1-.14.79c-3.24 3.69-4 8.06-3.53 12.77a22.26 22.26 0 0 0 2.09 7.78 13.77 13.77 0 0 0 8.22 6.88A62.54 62.54 0 0 0 31 55.72h.26c-.56 1-1.14 2-1.67 3.07a2.77 2.77 0 0 0-.35 1.21A1.37 1.37 0 0 1 28 61.37c-2.43.66-4.85 1.09-7.19-.35A8.43 8.43 0 0 1 18 58a8.14 8.14 0 0 0-4.77-3.91 7.45 7.45 0 0 0-2.5-.12c-.51 0-.67.44-.33.87A4.76 4.76 0 0 0 11.53 56a10.47 10.47 0 0 1 4.16 5.21 9.25 9.25 0 0 0 2 3.3 8.72 8.72 0 0 0 5.66 2.11c1.82.08 3.64 0 5.57 0v6.61c0 1.81-1.2 2.68-2.9 2.1A37.26 37.26 0 0 1 11.19 66a39.26 39.26 0 0 1-9.1-14.6 38.57 38.57 0 0 1-2-9.74c0-.29-.08-.59-.12-.88Z" style="fill:#fff" data-name="vector draw"/></g></svg>