<svg xmlns="http://www.w3.org/2000/svg" viewBox="0 0 77.24 109.63"><defs><style>.a{fill:#d736bc;}</style></defs><path class="a" d="M74.24,1.45c-.94,28-2.32,55.88-2.93,83.85-.16,7.61-.26,15.22-.26,22.84a1.5,1.5,0,0,0,3,0c0-28,1.25-55.95,2.35-83.9q.43-11.4.84-22.79c.06-1.93-2.94-1.93-3,0Z"/><path class="a" d="M75.19.2a21.32,21.32,0,0,0-4.6,2.43c-2.25,1.45-4.42,3-6.56,4.64-6,4.48-11.74,9.2-17.46,14C34.28,31.51,22.23,42.07,10.36,52.81c-3.34,3-6.82,6-9.94,9.25-1.33,1.39.79,3.52,2.13,2.12C5.13,61.48,8,59,10.76,56.5q7.94-7.23,16-14.3c12-10.56,24.11-21.1,36.8-30.84,2.51-1.93,5.05-3.83,7.69-5.58.94-.63,1.9-1.25,2.89-1.8.38-.22.77-.42,1.17-.61.12-.06.66-.29.18-.1L76,3.09c1.82-.61,1-3.51-.8-2.89Z"/><path class="a" d="M.73,64.41C10,70.89,19.54,77.06,29,83.23c10.5,6.82,21,13.6,31.64,20.23,3.25,2,6.49,4.12,9.85,6,1.69.93,3.21-1.66,1.51-2.59-7.72-4.25-15.1-9.25-22.52-14Q32.78,82.19,16.25,71.27c-4.7-3.11-9.39-6.23-14-9.45C.66,60.72-.85,63.32.73,64.41Z"/><path class="a" d="M62.59,29.21c0,10.21,0,20.43,0,30.65,0,3.46.23,6.92.09,10.39-.13,3.08-.38,6.83-2.39,9.35l2.36.31C56.85,70,55.47,58.17,52.2,47.36a1.52,1.52,0,0,0-2.9,0c-3.22,11.52.21,23.67-.74,35.39L51.35,82c-2.74-5.25-3.41-11.36-3.89-17.17-.5-6.22-.66-12.49-1.85-18.63a31.62,31.62,0,0,0-3.1-9.07,1.51,1.51,0,0,0-2.59,0c-2.17,3.55-2.36,7.9-2.46,11.95s.18,8.66-1.53,12.51l2.36-.31c-2.17-2.27-2.78-5.59-3.89-8.43-.5-1.27-2.54-1.58-2.9,0-1.2,5.26-.67,10.69-1.51,16l2.5-.67c-1.52-1.85-1.81-4.76-2.13-7a75.29,75.29,0,0,0-1.2-8.06,1.51,1.51,0,0,0-2.89,0,28,28,0,0,1-1.77,5.3l2.35-.3c-1.25-1.29-3-1.85-4.51-.56s-2,3.34-2.31,5.12,2.53,2.69,2.89.79a10.66,10.66,0,0,1,.88-2.93c.44-.84.35-.89.93-.3a1.52,1.52,0,0,0,2.36-.3,31.35,31.35,0,0,0,2.07-6H26.27c1.32,5.32.43,12,4.1,16.43a1.51,1.51,0,0,0,2.51-.66c.84-5.3.32-10.75,1.52-16H31.5c1.32,3.37,2.1,7.07,4.67,9.77a1.5,1.5,0,0,0,2.35-.31c1.75-3.94,1.83-8.28,1.91-12.52.08-4-.06-8.43,2.08-11.94H39.92c2.76,5.09,3.39,11.1,3.86,16.78.51,6.25.68,12.56,1.86,18.74a34.2,34.2,0,0,0,3.12,9.35c.74,1.42,2.69.62,2.8-.76.47-5.83-.1-11.7-.4-17.53-.29-5.67-.51-11.54,1-17.07H49.3c3.35,11.09,4.82,23.16,10.79,33.27a1.5,1.5,0,0,0,2.35.3c3.55-4.45,3.4-10.88,3.29-16.28-.15-7.3-.1-14.6-.11-21.9,0-4.77,0-9.55,0-14.33a1.5,1.5,0,0,0-3,0Z"/></svg>