<svg xmlns="http://www.w3.org/2000/svg" viewBox="0 0 77.24 109.63"><defs><style>.a{fill:#d736bc;}</style></defs><path class="a" d="M0,1.45c.94,28,2.32,55.88,2.93,83.85q.24,11.42.27,22.84a1.5,1.5,0,0,0,3,0c0-28-1.26-55.95-2.36-83.9Q3.41,12.84,3,1.45C2.94-.48-.06-.49,0,1.45Z"/><path class="a" d="M1.25,3.09l.41.15c.29.11-.34-.15,0,0l.23.11c.36.17.71.35,1.06.54.84.46,1.66,1,2.47,1.5,2.23,1.45,4.37,3,6.49,4.61,5.91,4.45,11.63,9.16,17.3,13.91Q47.36,39.1,64.91,55.07c3.29,3,6.71,5.9,9.78,9.11,1.34,1.4,3.46-.73,2.13-2.12-2.63-2.75-5.55-5.25-8.35-7.81Q60.49,47,52.39,39.9C40.2,29.19,27.91,18.51,15,8.64c-2.5-1.91-5-3.8-7.65-5.54A23.47,23.47,0,0,0,2.05.2C.22-.42-.57,2.48,1.25,3.09Z"/><path class="a" d="M75,61.82C65.71,68.3,56.19,74.47,46.7,80.64c-10.5,6.82-21,13.6-31.64,20.23-3.25,2-6.49,4.12-9.85,6-1.7.93-.18,3.52,1.51,2.59,7.73-4.25,15.1-9.25,22.53-14Q46,84.78,62.51,73.86c4.69-3.11,9.38-6.23,14-9.45,1.57-1.09.08-3.7-1.51-2.59Z"/><path class="a" d="M11.65,29.21c0,8.32-.05,16.64,0,25,0,3.36,0,6.71-.07,10.06a65.17,65.17,0,0,0,.2,8.84c.35,3.11,1.07,6.16,3.06,8.65a1.5,1.5,0,0,0,2.35-.3c6-10.11,7.44-22.18,10.79-33.27H25c1.55,5.53,1.33,11.4,1,17.07-.3,5.83-.87,11.7-.4,17.53.11,1.38,2.05,2.18,2.8.76,2.77-5.29,3.63-11.31,4.17-17.19.57-6.2.64-12.49,1.75-18.63a29.7,29.7,0,0,1,2.92-9H34.73c2.14,3.51,2,8,2.08,11.94.08,4.24.16,8.58,1.91,12.52a1.5,1.5,0,0,0,2.35.31c2.57-2.7,3.35-6.4,4.67-9.77h-2.9c1.2,5.25.68,10.7,1.52,16a1.51,1.51,0,0,0,2.51.66c3.67-4.47,2.78-11.11,4.1-16.43H48.08a32,32,0,0,0,2.07,6,1.52,1.52,0,0,0,2.36.3c.58-.59.49-.54.93.3a10.66,10.66,0,0,1,.88,2.93c.36,1.9,3.25,1.1,2.89-.79s-.88-3.89-2.31-5.12-3.26-.73-4.51.56l2.35.3A28,28,0,0,1,51,53.08a1.51,1.51,0,0,0-2.89,0,75.29,75.29,0,0,0-1.2,8.06c-.32,2.29-.61,5.19-2.13,7l2.5.67c-.84-5.31-.31-10.74-1.51-16-.36-1.58-2.4-1.27-2.9,0C41.73,55.69,41.12,59,39,61.28l2.36.31c-1.71-3.85-1.43-8.4-1.53-12.51s-.29-8.4-2.46-11.95a1.51,1.51,0,0,0-2.59,0c-2.79,5.13-3.61,11.06-4.14,16.8-.57,6.24-.65,12.55-1.76,18.73A32.27,32.27,0,0,1,25.89,82l2.79.75c-.95-11.72,2.48-23.87-.74-35.39a1.52,1.52,0,0,0-2.9,0C21.77,58.17,20.39,70,14.56,79.91l2.36-.31c-2-2.52-2.26-6.27-2.39-9.35-.14-3.47.1-6.93.09-10.39,0-10.22,0-20.44,0-30.65a1.5,1.5,0,0,0-3,0Z"/></svg>