<svg xmlns="http://www.w3.org/2000/svg" viewBox="0 0 35.35 35.35"><defs><style>.a{fill:#fff;}</style></defs><path class="a" d="M17.68,0A17.68,17.68,0,1,0,35.35,17.68,17.67,17.67,0,0,0,17.68,0Zm8.61,11.24C26.19,12.86,23.18,25,23.18,25s-.18.71-.82.73a1.2,1.2,0,0,1-.87-.33c-.68-.58-2.25-1.7-3.72-2.71-.44.37-1.32,1.13-2.23,2-1.3,1.3-1.13,0-1.13,0l.4-4.22h0a.17.17,0,0,1,0-.08s7.63-6.78,7.83-7.49c0,0-.05-.08-.13-.06-.5.19-9.28,5.73-10.25,6.34-.05,0-.21,0-.21,0L7.84,17.84s-.51-.21-.34-.68c0-.09.1-.17.3-.32.94-.65,17.46-6.59,17.46-6.59A1.39,1.39,0,0,1,26,10.2c.12,0,.2.1.27.3a1.59,1.59,0,0,1,0,.37C26.32,11,26.3,11.08,26.29,11.24Z"/></svg>