<svg xmlns="http://www.w3.org/2000/svg" viewBox="0 0 35.35 35.35"><defs><style>.a{fill:#fff;}</style></defs><path class="a" d="M17.68,0A17.68,17.68,0,1,0,35.35,17.68,17.67,17.67,0,0,0,17.68,0Zm9.76,13.89c0,.21,0,.41,0,.61A13.35,13.35,0,0,1,6.91,25.75,10.37,10.37,0,0,0,8,25.81a9.42,9.42,0,0,0,5.83-2,4.7,4.7,0,0,1-4.39-3.26,4.33,4.33,0,0,0,.89.09,4.57,4.57,0,0,0,1.23-.17,4.7,4.7,0,0,1-3.76-4.6V15.8a4.73,4.73,0,0,0,2.12.59A4.72,4.72,0,0,1,8.5,10.12,13.37,13.37,0,0,0,18.18,15,4.82,4.82,0,0,1,18.05,14a4.71,4.71,0,0,1,4.7-4.7,4.64,4.64,0,0,1,3.42,1.49,9.5,9.5,0,0,0,3-1.14,4.7,4.7,0,0,1-2.06,2.59,9.16,9.16,0,0,0,2.7-.74A9.37,9.37,0,0,1,27.44,13.89Z"/></svg>