<svg xmlns="http://www.w3.org/2000/svg" viewBox="0 0 35.35 35.35"><defs><style>.a{fill:#fff;}</style></defs><path class="a" d="M17.68,35.35A17.68,17.68,0,1,0,0,17.68,17.69,17.69,0,0,0,17.68,35.35Zm-11-23.3h4a.38.38,0,0,1,.35.23,23.74,23.74,0,0,0,3.37,5.38.27.27,0,0,0,.48,0c.42-1,1.2-3.5-.3-5.26a.31.31,0,0,1,.11-.49,5.38,5.38,0,0,1,4.44-.07.82.82,0,0,1,.5.77l.34,5.11a.37.37,0,0,0,.43.36C22,17.68,23,15.19,24,12.59a.82.82,0,0,1,.76-.54h3.67a.48.48,0,0,1,.48.56c-.34,1.85-2.2,4.25-3.17,5.4a1.07,1.07,0,0,0,0,1.38L29,23.29a.43.43,0,0,1-.33.71H24.51a1.18,1.18,0,0,1-.89-.4l-2.9-2.41a.41.41,0,0,0-.58-.05c-.36.44-.33,1-.5,2.2a.79.79,0,0,1-.79.66H16a2.77,2.77,0,0,1-1.17-.26C13.22,23,8.78,20.23,6.28,12.58A.4.4,0,0,1,6.66,12.05Z"/></svg>