<svg xmlns="http://www.w3.org/2000/svg" viewBox="0 0 35.35 35.35"><defs><style>.a{fill:#fff;}</style></defs><path class="a" d="M18.25,8a9.32,9.32,0,0,0-7.9,14.27l.22.35-.94,3.44,3.53-.92.34.2a9.28,9.28,0,0,0,4.74,1.3h0A9.32,9.32,0,0,0,18.25,8Zm5.48,13.32a2.88,2.88,0,0,1-1.89,1.33,3.89,3.89,0,0,1-1.76-.11,15.84,15.84,0,0,1-1.6-.59,12.46,12.46,0,0,1-4.79-4.23,5.47,5.47,0,0,1-1.14-2.9,3.11,3.11,0,0,1,1-2.33,1,1,0,0,1,.75-.35h.53c.18,0,.41-.06.63.49s.8,1.94.87,2.08a.52.52,0,0,1,0,.49,1.83,1.83,0,0,1-.28.46,5.55,5.55,0,0,1-.42.49c-.14.14-.29.3-.12.58a8.32,8.32,0,0,0,1.56,1.94,7.75,7.75,0,0,0,2.25,1.39c.28.14.44.11.61-.07s.7-.82.88-1.1.38-.24.63-.14,1.64.77,1.92.91.47.21.54.33A2.31,2.31,0,0,1,23.73,21.32Z"/><path class="a" d="M17.68,0A17.68,17.68,0,1,0,35.35,17.68,17.67,17.67,0,0,0,17.68,0Zm.57,28.53h0a11.23,11.23,0,0,1-5.36-1.36L6.94,28.72l1.59-5.8a11.22,11.22,0,1,1,9.72,5.61Z"/></svg>