<svg xmlns="http://www.w3.org/2000/svg" viewBox="0 0 79.9 109.54"><defs><style>.a{fill:#d736bc;}</style></defs><path class="a" d="M23.8,67.23c-.95-16.58-2-33.17-2.81-49.76A96.69,96.69,0,0,1,21.3,1.69c.22-1.91-2.78-1.9-3,0-1,8.86-.22,17.8.29,26.67q.7,12.53,1.42,25,.39,6.91.79,13.83c.11,1.92,3.11,1.93,3,0Z"/><path class="a" d="M19.69,3.14q17.75,0,35.51-.05a1.5,1.5,0,0,0,0-3Q37.44.12,19.69.14a1.5,1.5,0,0,0,0,3Z"/><path class="a" d="M54.37,1.45q-.59,25.68.69,51.35.38,7.32.89,14.62c.13,1.91,3.13,1.93,3,0Q57.14,41.8,57.19,16.09q0-7.32.18-14.64c0-1.93-3-1.93-3,0Z"/><path class="a" d="M57.67,68.74H78.45a1.5,1.5,0,0,0,0-3H57.67a1.5,1.5,0,0,0,0,3Z"/><path class="a" d="M77.09,66.7Q58.82,87.61,38.9,107c-1.39,1.35.73,3.47,2.12,2.12Q60.91,89.75,79.21,68.82c1.27-1.44-.84-3.57-2.12-2.12Z"/><path class="a" d="M22.22,65.74H1.45a1.5,1.5,0,0,0,0,3H22.22a1.5,1.5,0,0,0,0-3Z"/><path class="a" d="M.68,68.82Q19,89.73,38.88,109.11c1.38,1.35,3.51-.77,2.12-2.12Q21.11,87.63,2.8,66.7c-1.27-1.45-3.38.67-2.12,2.12Z"/><path class="a" d="M29.71,9.54c2.28-.18,4.43-.63,6.74-.62,2.07,0,4.15.12,6.23.22a5,5,0,0,0,.9.11c.19.11.2.11,0,0s-.14-.2-.06-.07c0-.05-.09-.62-.1-.64,0,.15,0,.12,0-.08l-.13.2c.14-.15-.44.4-.59.53a11.31,11.31,0,0,1-1,.65A58.29,58.29,0,0,1,35.85,13a16.75,16.75,0,0,0-4.38,2.43,1.5,1.5,0,0,0,0,2.12c2.08,1.73,4.64,1.78,7.14,2.45L38,17.47c-1.45,1.35-3.83,1.78-5.67,2.3-2.85.8-5.72,1.48-8.6,2.16a1.51,1.51,0,0,0,0,2.89c3.37.75,6.82,1,10.23,1.51,1.26.2,2.51.34,3.78.49a6.66,6.66,0,0,1,3.18.94l-.3-2.36c-1.59,1.78-4.29,2.42-6.44,3.27-1.69.67-4.29,1.08-5.22,2.85a1.52,1.52,0,0,0,.9,2.2c3.88,1.13,7.94-.8,11.75.39L40.9,31.6c-2.12,2-5.35,2.26-7.8,3.74a1.54,1.54,0,0,0-.54,2c1,2.11,4.7,2.46,6.71,2.83,1.19.21,2.38.48,3.57.67,1.93.32,4,.4,5.84,1.24l-.74-1.29c0,.23.07-.25.1-.33.11-.31,0,0,0,0s-.54.32-.75.43a16.89,16.89,0,0,1-2.49.92c-1.92.6-3.88,1.07-5.85,1.51-1.39.32-2.77.68-4.16,1-2.39.61-5.06,1.27-6.63,3.32a1.53,1.53,0,0,0,.54,2.05c3.07,2.31,7.71.32,11.14,1.33l-.67-2.51c-1.42,1.63-4.11,2-6.06,2.76-2.14.78-4.88,1.41-6.46,3.14a1.53,1.53,0,0,0,.31,2.36c1.58,1,3.55.91,5.35.89.43,0,.86,0,1.29,0a5.57,5.57,0,0,0,1.14.08c.42-.1.28.39.15-.16,0-.15,0,.08-.06.18-.32.41-.54,1-.85,1.4s-.84,1.09-1.24,1.64a5.22,5.22,0,0,0-1.39,3.22,1.57,1.57,0,0,0,1.1,1.45C36.21,67,40.36,67,44.35,66.92c1.8,0,3.59,0,5.38-.09a16.9,16.9,0,0,1,5.72.29l-.36-2.74c-2,1.15-4.49,1.42-6.67,1.92-2.53.57-5.06,1.07-7.59,1.62-1.9.41-3.8.76-5.7,1.16a12.35,12.35,0,0,0-4.88,1.86c-.78.59-1.15,2.09,0,2.59,3.85,1.67,7.64.06,11.61.34L40.8,71.31c-1.27,1.27-3.41,1.79-5.09,2.33s-3.71,1-4.61,2.53a1.5,1.5,0,0,0,.89,2.2c2.71.65,5.46.42,8.21.42,3.07,0,6.14-.08,9.21,0l-1.3-2.26c.12-.22.47-.23.22-.3s-.37.1-.51.12-.48.09-.72.14c-.83.16-1.64.38-2.46.58-2.09.51-4.18,1-6.24,1.67-3.9,1.19-7.68,2.75-11.52,4.14-1.27.46-3.59,1.11-3.65,2.75a2.69,2.69,0,0,0,1.49,2.27c1.86,1.11,4.31,1.32,6.4,1.56a27.16,27.16,0,0,0,3,.23c2.23,0,4.51-.38,6.71,0l-.66-2.51c-.94,1.14-2.57,1.44-3.62,2.51a1.52,1.52,0,0,0,.3,2.36c3.74,1.88,8.14-.26,12,.74L48,90.64c-.37.77-1.8,1-2.52,1.33a8.46,8.46,0,0,0-3.21,1.82,1.52,1.52,0,0,0,0,2.12A5,5,0,0,0,44.16,97l-.9-2.21a2.88,2.88,0,0,1-1.07.78c-1.7.93-.19,3.52,1.51,2.59a5.92,5.92,0,0,0,2.15-1.85,1.53,1.53,0,0,0-.9-2.21,1.65,1.65,0,0,1-.6-.28v2.12c1.68-1.75,5-1.33,6.2-3.75a1.51,1.51,0,0,0-.89-2.2c-2-.52-4.08-.23-6.12-.2-1.61,0-3.68.51-5.18-.24l.3,2.35c1.05-1.07,2.64-1.31,3.62-2.51a1.51,1.51,0,0,0-.66-2.5c-3.32-.65-6.72,0-10.08-.34A26.49,26.49,0,0,1,28.12,86a8.49,8.49,0,0,1-1.56-.47c-.15-.07-.47-.2-.41-.21-.13-.13-.14-.13,0,0,.07.46.1.56.1.3l-.74,1.29c1.66-1.19,3.9-1.71,5.8-2.43,2.54-1,5.08-1.92,7.68-2.73s5.08-1.4,7.63-2c1.27-.32,3.43-.33,4.1-1.64a1.51,1.51,0,0,0-1.29-2.25c-2.92-.09-5.85,0-8.77,0-2.61,0-5.29.3-7.85-.31l.9,2.2c.44-.74,2.91-1.15,3.87-1.49,1.86-.67,3.94-1.32,5.36-2.76a1.51,1.51,0,0,0-1.06-2.56c-3.23-.23-7,1.41-10.09.07v2.59a11.53,11.53,0,0,1,4.85-1.69c2-.39,4-.81,6-1.23,2.53-.54,5.07-1,7.59-1.64,2.19-.51,4.48-.84,6.45-2a1.52,1.52,0,0,0-.36-2.74,17.23,17.23,0,0,0-5.73-.44c-1.78.08-3.56.11-5.34.13-4,0-8.14.21-12-1.26l1.1,1.44A3.1,3.1,0,0,1,34.88,63c.42-.63.91-1.22,1.36-1.83.81-1.07,1.72-2.34,1.61-3.75-.32-4.38-7-1.69-9.4-3.14l.3,2.36A7.61,7.61,0,0,1,32,55c1-.36,2-.75,3-1.09,2.15-.72,4.79-1.4,6.33-3.17a1.53,1.53,0,0,0-.67-2.51c-1.88-.55-3.88-.32-5.81-.36-1.48,0-3.35.28-4.6-.66l.53,2.05c.63-.82,2.09-1.16,3-1.44,1.2-.36,2.43-.64,3.64-1s2.74-.64,4.11-1a44.51,44.51,0,0,0,6.1-1.81c1.33-.53,3.49-1.44,3.35-3.21a1.52,1.52,0,0,0-.74-1.3c-2.82-1.31-6.14-1.5-9.18-2-1.19-.21-2.38-.41-3.55-.71a9.82,9.82,0,0,1-1.77-.55,3.36,3.36,0,0,0-.42-.22c-.27-.08-.06,0-.13-.13l-.53,2c2.72-1.64,6-2,8.4-4.21a1.51,1.51,0,0,0-.66-2.5c-3.88-1.22-7.91.73-11.75-.39L31.5,33c.27-.5,1.69-.83,2.28-1,.88-.3,1.74-.67,2.61-1,2.2-.84,4.68-1.65,6.3-3.46a1.52,1.52,0,0,0-.3-2.35c-2-1.46-4.85-1.27-7.23-1.66-3.55-.58-7.16-.8-10.68-1.58v2.89c3.07-.73,6.13-1.46,9.16-2.32,2.23-.63,4.7-1.29,6.43-2.91a1.51,1.51,0,0,0-.66-2.5c-1.84-.5-4.3-.41-5.82-1.68v2.12c.16-.15.08,0-.05,0a2.68,2.68,0,0,0,.28-.18l.92-.52c.76-.39,1.54-.77,2.31-1.14,1.89-.92,3.8-1.82,5.61-2.9,1.31-.77,3.08-1.77,3.61-3.31.77-2.26-1.6-3.26-3.42-3.36-2.05-.12-4.11-.22-6.16-.23a26.93,26.93,0,0,0-3.59.13c-1.13.14-2.25.4-3.39.49-1.91.16-1.93,3.16,0,3Z"/></svg>