<svg data-name="Layer 1" xmlns="http://www.w3.org/2000/svg" width="890.215" height="504.948"><path fill="#fff" d="M374.69 1h514.525v334.285H374.69z"/><path d="M890.215 336.285H373.69V0h516.525Zm-514.525-2h512.525V2H375.69Z" fill="#e4e4e4"/><path d="M599.617 33.695c15.113.258 15.11 22.738 0 22.994-15.113-.258-15.11-22.738 0-22.994Z" fill="#3f3d56"/><path d="M631.952 33.695c15.113.258 15.111 22.738 0 22.994-15.112-.258-15.11-22.738 0-22.994Z" fill="#311258"/><path d="M664.288 33.695c15.113.258 15.11 22.738 0 22.994-15.113-.258-15.11-22.738 0-22.994ZM463.563 121.727h102.905v1.247H463.563zM800.966 302.59H659.394V170.373h141.572Zm-140.325-1.247H799.72V171.62H660.64Z" fill="#cacaca"/><path fill="#cacaca" d="m659.592 171.452.852-.912 140.324 130.97-.852.912z"/><path fill="#cacaca" d="m659.589 301.508 140.33-130.963.852.912-140.33 130.963zM800.966 104.264H462.94V81.19h338.027Zm-336.78-1.247H799.72V82.436H464.186ZM587.966 206.264H463.94V183.19h124.027Zm-122.78-1.247H586.72v-20.581H465.186ZM587.966 245.264H463.94V222.19h124.027Zm-122.78-1.247H586.72v-20.581H465.186ZM587.966 284.264H463.94V261.19h124.027Zm-122.78-1.247H586.72v-20.581H465.186Z"/><path d="M496.42 150.32h-33.265c2.568-10.334 2.258-21.513 0-33.265h33.265a41.352 41.352 0 0 0 0 33.265Z" fill="#311258"/><path fill="#fff" d="M468.195 124.111h20.161v4.032h-20.161zM468.195 132.176h20.161v4.032h-20.161zM468.195 140.24h20.161v4.032h-20.161z"/><path d="M746.927 200.557h-33.265c2.568-10.334 2.258-21.513 0-33.265h33.265a41.352 41.352 0 0 0 0 33.265Z" fill="#311258"/><path fill="#fff" d="M718.702 174.348h20.161v4.032h-20.161zM718.702 182.413h20.161v4.032h-20.161zM718.702 190.477h20.161v4.032h-20.161z"/><path d="M789.696 129.275h-33.265c2.568-10.334 2.258-21.514 0-33.265h33.265a41.353 41.353 0 0 0 0 33.265Z" fill="#311258"/><path fill="#fff" d="M761.471 103.066h20.161v4.032h-20.161zM761.471 111.13h20.161v4.032h-20.161zM761.471 119.195h20.161v4.032h-20.161z"/><path d="M206.598 153.448h-57v-30.5a28.5 28.5 0 0 1 57 0Z" fill="#2f2e41"/><path fill="#ffb6b6" d="M232.043 492.792h12.259l5.833-47.288-18.094.001.002 47.287z"/><path d="m228.915 488.79 24.144-.001h.001a15.387 15.387 0 0 1 15.387 15.386v.5l-39.53.001Z" fill="#2f2e41"/><path fill="#ffb6b6" d="m85.489 476.431 10.676 6.027 28.328-38.311-15.757-8.895-23.247 41.179z"/><path d="m84.734 471.408 21.025 11.87a15.387 15.387 0 0 1 5.835 20.963l-.246.435-34.424-19.433ZM163.843 280.12l-.946 4.731s-2.839 2.838-1.42 4.258.947 8.041.947 8.041c-.794 12.076-16.573 79.936-19.395 93.19 0 0-21.76 14.191-38.79 42.1s-17.502 35.006-17.502 35.006l18.921 8.041 47.305-57.238s13.245-8.042 17.975-15.137 34.06-80.417 34.06-80.417l16.556 76.632s-.946 27.91 3.311 45.886a192.52 192.52 0 0 1 4.73 34.532l22.234-2.366s-1.42-67.172-3.785-74.267c0 0 9.934-81.837-9.934-114.477l-16.012-42.687-15.682-6.036Z" fill="#2f2e41"/><path d="M177.806 101.904c29.847.51 29.842 44.906 0 45.412-29.847-.51-29.842-44.907 0-45.412Z" fill="#ffb8b8"/><path d="M200.775 123.432h-5.072l-1.382-3.454.691 3.454h-27.744l.903-7.227-6.744 7.227h-6.728v-3.916a23.038 23.038 0 1 1 46.076 0Z" fill="#2f2e41"/><path d="m208.582 160.579-56.405.456 11.921 120.913s65.96-3.48 66-23.614l-6.179-17.89Z" fill="#e4e4e4"/><path data-name="Path 138" d="M313.553 371.56 116.93 412.277c-2.01.411-4.33-2.583-5.183-6.696L91.08 305.785c-.852-4.113.09-7.781 2.098-8.204l196.622-40.718c2.01-.41 4.33 2.583 5.184 6.696l20.666 99.796c.849 4.113-.092 7.784-2.098 8.205Z" fill="#fff"/><g data-name="Group 38"><circle data-name="Ellipse 7" cx="164.595" cy="323.998" r="17.558" fill="#f0f0f0"/><path data-name="Path 63" d="m229.484 365.815-84.345 17.467a1.763 1.763 0 0 1-.32.04l25.584-77.358a2.852 2.852 0 0 1 4.862-1.007l36.374 40.825 1.743 1.953Z" fill="#e4e4e4"/><path data-name="Path 65" d="m276.445 356.091-72.952 15.107 9.884-23.46.71-1.69 12.88-30.573a3.807 3.807 0 0 1 5.469-1.477 3.398 3.398 0 0 1 .333.275Z" fill="#e4e4e4"/></g><path data-name="Path 138" d="M313.553 371.56 116.93 412.277c-2.01.411-4.33-2.583-5.183-6.696L91.08 305.785c-.852-4.113.09-7.781 2.098-8.204l196.622-40.718c2.01-.41 4.33 2.583 5.184 6.696l20.666 99.796c.849 4.113-.092 7.784-2.098 8.205Zm-219.756-71c-1.207.25-1.769 2.456-1.26 4.923l20.666 99.796c.511 2.467 1.904 4.265 3.111 4.017l196.621-40.717c1.207-.25 1.77-2.454 1.26-4.923l-20.666-99.795c-.511-2.467-1.904-4.265-3.111-4.018Z" fill="#cacaca"/><path d="M255.38 279.19a9.377 9.377 0 0 1-3.673-13.902l-11.422-18.13 9.324-9.628 15.771 25.83a9.428 9.428 0 0 1-10 15.83Z" fill="#ffb6b6"/><path d="m199.915 165.34 8.183-5.392s6.315 1.416 13.032 14.334 33.8 70.672 33.8 70.672l-11.132 11.303-29.7-45.309Z" fill="#e4e4e4"/><path d="M149.763 293.637a9.377 9.377 0 0 0-2.705-14.121l2.451-21.288-12.573-4.644-3.039 30.11a9.428 9.428 0 0 0 15.866 9.943Z" fill="#ffb6b6"/><path d="m159.598 171.448-7.42-10.373s-5.08-1.127-11.08 5.873-9.5 94.5-9.5 94.5l22 5 13-62Z" fill="#e4e4e4"/><path d="M382 504.948H1a1 1 0 0 1 0-2h381a1 1 0 0 1 0 2Z" fill="#cacaca"/><path d="m136.854 324-32.54 6.909c.366-10.642-2.259-21.514-6.908-32.54l32.54-6.909a41.353 41.353 0 0 0 6.908 32.54Z" fill="#311258"/><path fill="#fff" d="m103.802 304.225 19.721-4.188.837 3.944-19.721 4.188zM105.476 312.113l19.722-4.188.837 3.944-19.721 4.188zM107.152 320.002l19.721-4.188.837 3.944-19.721 4.188z"/></svg>