<svg xmlns="http://www.w3.org/2000/svg" viewBox="0 0 76.94 76.89"><g data-name="Layer 2"><path d="M38.49 0c20.85-.3 38.83 17.22 38.45 39.16A38.47 38.47 0 1 1 38.49 0Zm-23.1 19.94v33.41c0 .53.14.67.66.66h5.59a2.35 2.35 0 0 0 .27-.72V41.15a3.2 3.2 0 0 0-.18-.74l.06-.79c.36-.2.32-.44.07-.71.46-3.26 2.69-5 5.75-4.55a3.16 3.16 0 0 1 2.8 3.09 3.57 3.57 0 0 0-.14.71c0 .73.12 1.47.12 2.2v12.92a2.43 2.43 0 0 0 .26.74h6.25c.09-.2.26-.4.26-.61V38.35a2 2 0 0 0-.24-.62l-.16-1.67A6.77 6.77 0 0 0 32.27 30a9.11 9.11 0 0 0-10.22 2.57l-.29.25c0-.13-.05-.25-.07-.37a2.43 2.43 0 0 1 0-.27V20.41c0-.24.18-.61-.35-.61h-5.96a.36.36 0 0 0 .01.14Zm34 10.36-.27.15-.23.13-.44.29-1.7 1.47h-.46V20.38c0-.31.1-.62-.43-.61h-5.84a2.55 2.55 0 0 0-.28.8v32.62A2.85 2.85 0 0 0 40 54h5.59c.58 0 .68-.18.68-.72 0-3.88-.05-7.76 0-11.64a17.21 17.21 0 0 1 .45-3.92 4.67 4.67 0 0 1 5.76-3.35A3.23 3.23 0 0 1 55 37.12a13.13 13.13 0 0 1 .2 1.88v14.4c0 .45.08.62.58.61h5.11c.47 0 .6-.12.6-.6V39.35c0-1 0-2-.13-3-.32-3.84-2.47-6.24-6.12-6.88a9.75 9.75 0 0 0-5.81.83Z" style="fill:#fff" data-name="1 block"/></g></svg>