<svg xmlns="http://www.w3.org/2000/svg" viewBox="0 0 54 54"><defs><style>.cls-1{fill:#fff;}.cls-2{fill:#d736bc;}</style></defs><g id="Layer_2" data-name="Layer 2"><g id="_1_block" data-name="1 block"><circle class="cls-1" cx="27" cy="27" r="27"/><path class="cls-2" d="M16.41,7.27c.45,13.15,1.17,26.3,1.18,39.46a.56.56,0,0,0,1.11,0c0-13.16-.73-26.31-1.18-39.46,0-.71-1.13-.72-1.11,0Z"/><path class="cls-2" d="M16.88,7.88a16.06,16.06,0,0,1,3.94,2.56c2.19,1.65,4.32,3.41,6.43,5.17,4.47,3.74,8.86,7.59,13.18,11.5,1.21,1.1,2.47,2.18,3.61,3.36.49.52,1.28-.27.78-.78-2.84-3-6.08-5.6-9.15-8.3-4.48-3.93-9-7.85-13.72-11.47a18.71,18.71,0,0,0-4.78-3.11c-.68-.24-1,.83-.29,1.07Z"/><path class="cls-2" d="M44.15,29.6c-4.6,3.2-9.32,6.23-14,9.26-3.88,2.51-7.74,5.15-11.78,7.39-.63.35-.07,1.3.56,1,4-2.24,7.9-4.89,11.78-7.39,4.71-3,9.43-6.06,14-9.26.58-.41,0-1.37-.56-1Z"/><path class="cls-2" d="M20.72,17.54c0,3.92,0,7.86,0,11.78,0,2.4-.47,5.49,1.09,7.53a.57.57,0,0,0,1,0c2.18-3.76,2.75-8.2,4-12.31H25.67c1.13,4.17-.08,8.57.24,12.8,0,.51.76.81,1,.28,1.28-2.48,1.49-5.32,1.68-8.06s.22-6,1.59-8.53h-.95c.82,1.41.74,3.15.77,4.73a11.64,11.64,0,0,0,.7,4.31.55.55,0,0,0,.87.12,10.81,10.81,0,0,0,1.73-3.62H32.26c.42,1.95.26,4,.56,5.92a.56.56,0,0,0,.93.25c1.32-1.7,1-4.09,1.52-6.08H34.2A12.47,12.47,0,0,0,35,28.89a.56.56,0,0,0,.87.11c.38-.34.64,1.05.67,1.2.15.69,1.22.4,1.07-.3-.26-1.27-1.14-3-2.52-1.68l.87.11a10.57,10.57,0,0,1-.65-2,.56.56,0,0,0-1.07,0C33.78,28.08,34.09,30.5,33,32l.93.25c-.3-2-.14-4-.56-5.92-.13-.58-.89-.47-1.07,0a9.55,9.55,0,0,1-1.44,3.12l.87.11c-1.22-2.87.15-6.27-1.48-9a.55.55,0,0,0-.95,0c-2.73,5.12-.64,11.46-3.27,16.59l1,.28c-.33-4.34.88-8.82-.28-13.09a.56.56,0,0,0-1.07,0c-1.2,4-1.74,8.37-3.87,12h1c-1.52-2-1-5.09-.94-7.42,0-3.78,0-7.55,0-11.33a.56.56,0,0,0-1.11,0Z"/></g></g></svg>