<svg xmlns="http://www.w3.org/2000/svg" viewBox="0 0 35.35 35.35"><path d="M17.68 0a17.68 17.68 0 1 0 17.67 17.68A17.67 17.67 0 0 0 17.68 0Zm9.76 13.89v.61A13.35 13.35 0 0 1 6.91 25.75a10.37 10.37 0 0 0 1.09.06 9.42 9.42 0 0 0 5.83-2 4.7 4.7 0 0 1-4.39-3.26 4.33 4.33 0 0 0 .89.09 4.57 4.57 0 0 0 1.23-.17 4.7 4.7 0 0 1-3.76-4.6v-.07a4.73 4.73 0 0 0 2.12.59 4.72 4.72 0 0 1-1.42-6.27A13.37 13.37 0 0 0 18.18 15a4.82 4.82 0 0 1-.13-1 4.71 4.71 0 0 1 4.7-4.7 4.64 4.64 0 0 1 3.42 1.49 9.5 9.5 0 0 0 3-1.14 4.7 4.7 0 0 1-2.06 2.59 9.16 9.16 0 0 0 2.7-.74 9.37 9.37 0 0 1-2.37 2.39Z" style="fill:#fff"/></svg>