<svg xmlns="http://www.w3.org/2000/svg" viewBox="0 0 35.35 35.35"><path d="M17.68 35.35A17.68 17.68 0 1 0 0 17.68a17.69 17.69 0 0 0 17.68 17.67Zm-11-23.3h4a.38.38 0 0 1 .35.23 23.74 23.74 0 0 0 3.37 5.38.27.27 0 0 0 .48 0c.42-1 1.2-3.5-.3-5.26a.31.31 0 0 1 .11-.49 5.38 5.38 0 0 1 4.44-.07.82.82 0 0 1 .5.77l.34 5.11a.37.37 0 0 0 .43.36c1.6-.4 2.6-2.89 3.6-5.49a.82.82 0 0 1 .76-.54h3.67a.48.48 0 0 1 .48.56c-.34 1.85-2.2 4.25-3.17 5.4a1.07 1.07 0 0 0 0 1.38l3.26 3.9a.43.43 0 0 1-.33.71h-4.16a1.18 1.18 0 0 1-.89-.4l-2.9-2.41a.41.41 0 0 0-.58-.05c-.36.44-.33 1-.5 2.2a.79.79 0 0 1-.79.66H16a2.77 2.77 0 0 1-1.17-.26c-1.61-.74-6.05-3.51-8.55-11.16a.4.4 0 0 1 .38-.53Z" style="fill:#fff"/></svg>